{
.appVersion = "1272";
DisplayStrings = (
"U/Uogonek",
"/ogonekcomb",
"A/Aogonek",
"/Aogonek.ss01",
"E/Eogonek",
"/E.ss01/Eogonek.ss01",
"/Iogonek",
"O/Oogonek",
"U/Uogonek",
"/U.ss01/Uogonek.ss01",
"na/aogonek",
"/a.ss01/aogonek.ss01",
"e/eogonek",
"/eogonek.ss01",
"/eogonek.ss01",
"/idotless/iogonek",
"/idotless.ss01/iogonek.ss01",
"o/oogonek",
"/oogonekmacron",
"u/uogonek",
"/u.ss01/uogonek.ss01"
);
classes = (
{
automatic = 1;

glyphs = (
{
glyphname = A;
lastChange = "2019-11-08 13:47:51 +0000";
layers = (
{
anchors = (
{
name = bottom;
position = "{414, 0}";
},
{
name = ogonek;
position = "{715, 0}";
},
{
name = top;
position = "{414, 684}";
}
);
layerId = "873CAA12-270D-4223-A88E-AE8E101FDBE8";
paths = (
{
closed = 1;
nodes = (
"148 -13 OFFCURVE",
"182 6 OFFCURVE",
"196 41 CURVE SMOOTH",
"271 227 LINE",
"556 227 LINE",
"651 0 LINE",
"715 0 LINE",
"424 693 LINE",
"404 693 LINE",
"148 78 LINE SMOOTH",
"138 54 OFFCURVE",
"129 43 OFFCURVE",
"113 43 CURVE SMOOTH",
"95 43 OFFCURVE",
"82 58 OFFCURVE",
"76 73 CURVE",
"30 48 LINE",
"39 13 OFFCURVE",
"71 -13 OFFCURVE",
"114 -13 CURVE SMOOTH"
);
},
{
closed = 1;
nodes = (
"403 552 LINE",
"413 592 LINE",
"424 552 LINE",
"532 283 LINE",
"295 283 LINE"
);
}
);
width = 748;
},
{
anchors = (
{
name = bottom;
position = "{415, 11}";
},
{
name = ogonek;
position = "{724, -1}";
},
{
name = top;
position = "{413, 684}";
}
);
layerId = "0CAF3BED-C4AC-4024-B3E1-4C69D1EF7EC0";
paths = (
{
closed = 1;
nodes = (
"159 -9 OFFCURVE",
"199 13 OFFCURVE",
"214 50 CURVE SMOOTH",
"285 220 LINE",
"545 220 LINE",
"637 -1 LINE",
"724 -1 LINE",
"431 688 LINE",
"397 688 LINE",
"147 94 LINE SMOOTH",
"140 77 OFFCURVE",
"132 65 OFFCURVE",
"117 65 CURVE SMOOTH",
"104 65 OFFCURVE",
"93 76 OFFCURVE",
"89 93 CURVE",
"30 61 LINE",
"39 22 OFFCURVE",
"69 -9 OFFCURVE",
"124 -9 CURVE SMOOTH"
);
},
{
closed = 1;
nodes = (
"412 548 LINE",
"413 563 LINE",
"415 548 LINE",
"511 294 LINE",
"315 294 LINE"
);
}
);
width = 754;
},
{
anchors = (
{
name = bottom;
position = "{421, -8}";
},
{
name = ogonek;
position = "{714, 1}";
},
{
name = top;
position = "{421, 684}";
}
);
layerId = "49C16FD3-6177-408B-A733-AEB3898BB77C";
paths = (
{
closed = 1;
nodes = (
"148 -9 OFFCURVE",
"176 8 OFFCURVE",
"190 42 CURVE SMOOTH",
"268 234 LINE",
"572 234 LINE",
"669 1 LINE",
"714 1 LINE",
"425 692 LINE",
"417 692 LINE",
"152 58 LINE SMOOTH",
"147 46 OFFCURVE",
"133 31 OFFCURVE",
"115 31 CURVE SMOOTH",
"96 31 OFFCURVE",
"80 45 OFFCURVE",
"75 59 CURVE",
"36 53 LINE",
"47 15 OFFCURVE",
"76 -9 OFFCURVE",
"114 -9 CURVE SMOOTH"
);
},
{
closed = 1;
nodes = (
"401 560 LINE",
"420 625 LINE",
"439 562 LINE",
"554 274 LINE",
"285 274 LINE"
);
}
);
width = 752;
}
);
leftKerningGroup = A;
rightKerningGroup = A;
unicode = 0041;
userData = {
position = 666;
width = 20;
};
},
{
glyphname = A.ss01;
lastChange = "2019-10-24 18:16:33 +0000";
layers = (
{
anchors = (
{
name = bottom;
position = "{336, 0}";
},
{
name = ogonek;
position = "{638, 0}";
},
{
name = top;
position = "{335, 684}";
}
);
layerId = "873CAA12-270D-4223-A88E-AE8E101FDBE8";
paths = (
{
closed = 1;
nodes = (
"97 0 LINE",
"192 227 LINE",
"477 227 LINE",
"574 0 LINE",
"638 0 LINE",
"344 703 LINE",
"325 703 LINE",
"33 0 LINE"
);
},
{
closed = 1;
nodes = (
"310 517 LINE SMOOTH",
"321 545 OFFCURVE",
"328 571 OFFCURVE",
"334 595 CURVE",
"339 574 OFFCURVE",
"349 542 OFFCURVE",
"359 517 CURVE SMOOTH",
"453 283 LINE",
"216 283 LINE"
);
}
);
width = 671;
},
{
anchors = (
{
name = bottom;
position = "{341, 0}";
},
{
name = ogonek;
position = "{651, -1}";
},
{
name = top;
position = "{340, 684}";
}
);
layerId = "0CAF3BED-C4AC-4024-B3E1-4C69D1EF7EC0";
paths = (
{
closed = 1;
nodes = (
"117 -1 LINE",
"209 220 LINE",
"470 220 LINE",
"564 -1 LINE",
"651 -1 LINE",
"356 705 LINE",
"323 705 LINE",
"30 -1 LINE"
);
},
{
closed = 1;
nodes = (
"324 508 LINE SMOOTH",
"328 519 OFFCURVE",
"335 545 OFFCURVE",
"339 557 CURVE",
"343 545 OFFCURVE",
"349 519 OFFCURVE",
"353 508 CURVE SMOOTH",
"438 294 LINE",
"240 294 LINE"
);
}
);
width = 681;
},
{
anchors = (
{
name = bottom;
position = "{340, 0}";
},
{
name = ogonek;
position = "{642, 1}";
},
{
name = top;
position = "{339, 684}";
}
);
layerId = "49C16FD3-6177-408B-A733-AEB3898BB77C";
paths = (
{
closed = 1;
nodes = (
"84 1 LINE",
"182 234 LINE",
"496 234 LINE",
"595 1 LINE",
"642 1 LINE",
"343 704 LINE",
"335 704 LINE",
"38 1 LINE"
);
},
{
closed = 1;
nodes = (
"305 526 LINE SMOOTH",
"320 562 OFFCURVE",
"333 614 OFFCURVE",
"338 629 CURVE",
"343 615 OFFCURVE",
"359 563 OFFCURVE",
"375 526 CURVE SMOOTH",
"480 274 LINE",
"198 274 LINE"
);
}
);
width = 680;
}
);
leftKerningGroup = Atext;
rightKerningGroup = A;
userData = {
position = 10;
width = 615;
};
},
{
glyphname = A.swsh;
lastChange = "2019-10-24 18:16:33 +0000";
layers = (
{
anchors = (
{
name = bottom;
position = "{428, 0}";
},
{
name = ogonek;
position = "{729, 0}";
},
{
name = top;
position = "{428, 684}";
}
);
layerId = "873CAA12-270D-4223-A88E-AE8E101FDBE8";
paths = (
{
closed = 1;
nodes = (
"173 -11 OFFCURVE",
"197 8 OFFCURVE",
"222 70 CURVE SMOOTH",
"285 227 LINE",
"570 227 LINE",
"665 0 LINE",
"729 0 LINE",
"437 693 LINE",
"418 693 LINE",
"167 92 LINE SMOOTH",
"152 56 OFFCURVE",
"148 43 OFFCURVE",
"120 43 CURVE SMOOTH",
"109 43 OFFCURVE",
"92 55 OFFCURVE",
"92 71 CURVE SMOOTH",
"92 75 OFFCURVE",
"92 79 OFFCURVE",
"94 83 CURVE",
"47 113 LINE",
"39 101 OFFCURVE",
"36 83 OFFCURVE",
"36 71 CURVE SMOOTH",
"36 25 OFFCURVE",
"76 -13 OFFCURVE",
"127 -12 CURVE SMOOTH"
);
},
{
closed = 1;
nodes = (
"417 552 LINE",
"427 592 LINE",
"438 552 LINE",
"546 283 LINE",
"309 283 LINE"
);
}
);
width = 762;
},
{
anchors = (
{
name = bottom;
position = "{434, 11}";
},
{
name = ogonek;
position = "{748, -1}";
},
{
name = top;
position = "{432, 684}";
}
);
layerId = "0CAF3BED-C4AC-4024-B3E1-4C69D1EF7EC0";
paths = (
{
closed = 1;
nodes = (
"185 -14 OFFCURVE",
"213 19 OFFCURVE",
"234 65 CURVE SMOOTH",
"298 220 LINE",
"569 220 LINE",
"661 0 LINE",
"748 0 LINE",
"450 688 LINE",
"416 688 LINE",
"166 108 LINE SMOOTH",
"156 84 OFFCURVE",
"149 60 OFFCURVE",
"129 60 CURVE SMOOTH",
"119 60 OFFCURVE",
"107 67 OFFCURVE",
"104 78 CURVE SMOOTH",
"103 82 OFFCURVE",
"103 86 OFFCURVE",
"106 92 CURVE",
"45 131 LINE",
"36 112 OFFCURVE",
"32 96 OFFCURVE",
"32 80 CURVE SMOOTH",
"32 25 OFFCURVE",
"81 -14 OFFCURVE",
"129 -14 CURVE SMOOTH"
);
},
{
closed = 1;
nodes = (
"420 518 LINE",
"433 564 LINE",
"446 518 LINE",
"535 294 LINE",
"328 294 LINE"
);
}
);
width = 778;
},
{
anchors = (
{
name = bottom;
position = "{424, -6}";
},
{
name = ogonek;
position = "{720, 0}";
},
{
name = top;
position = "{424, 684}";
}
);
layerId = "49C16FD3-6177-408B-A733-AEB3898BB77C";
paths = (
{
closed = 1;
nodes = (
"162 -11 OFFCURVE",
"188 10 OFFCURVE",
"204 49 CURVE SMOOTH",
"278 233 LINE",
"569 233 LINE",
"666 0 LINE",
"715 0 LINE",
"429 692 LINE",
"419 692 LINE",
"164 70 LINE SMOOTH",
"153 44 OFFCURVE",
"142 35 OFFCURVE",
"126 33 CURVE SMOOTH",
"104 30 OFFCURVE",
"84 46 OFFCURVE",
"84 67 CURVE SMOOTH",
"84 72 OFFCURVE",
"85 77 OFFCURVE",
"87 82 CURVE",
"52 106 LINE",
"44 94 OFFCURVE",
"40 76 OFFCURVE",
"40 66 CURVE SMOOTH",
"40 21 OFFCURVE",
"81 -11 OFFCURVE",
"123 -11 CURVE SMOOTH"
);
},
{
closed = 1;
nodes = (
"410 569 LINE",
"423 619 LINE",
"437 569 LINE",
"550 277 LINE",
"297 277 LINE"
);
}
);
width = 753;
}
);
leftKerningGroup = A;
rightKerningGroup = A;
userData = {
position = 666;
width = 20;
};
},
{
glyphname = AE;
lastChange = "2019-10-24 18:14:08 +0000";
layers = (
{
anchors = (
{
name = bottom;
position = "{545, 0}";
},
{
name = top;
position = "{555, 682}";
}
);
layerId = "873CAA12-270D-4223-A88E-AE8E101FDBE8";
paths = (
{
closed = 1;
nodes = (
"127 -14 OFFCURVE",
"158 1 OFFCURVE",
"173 31 CURVE SMOOTH",
"272 227 LINE",
"494 227 LINE",
"494 0 LINE",
"922 0 LINE",
"922 56 LINE",
"555 56 LINE",
"555 334 LINE",
"802 334 LINE",
"802 390 LINE",
"555 390 LINE",
"555 628 LINE",
"902 628 LINE",
"902 684 LINE",
"465 684 LINE",
"124 62 LINE SMOOTH",
"118 52 OFFCURVE",
"108 43 OFFCURVE",
"95 43 CURVE SMOOTH",
"81 43 OFFCURVE",
"71 45 OFFCURVE",
"58 64 CURVE",
"18 24 LINE",
"38 0 OFFCURVE",
"64 -14 OFFCURVE",
"91 -14 CURVE SMOOTH"
);
},
{
closed = 1;
nodes = (
"477 592 LINE",
"495 630 LINE",
"494 283 LINE",
"307 283 LINE"
);
}
);
width = 963;
},
{
anchors = (
{
name = bottom;
position = "{543, 0}";
},
{
name = top;
position = "{554, 673}";
}
);
layerId = "0CAF3BED-C4AC-4024-B3E1-4C69D1EF7EC0";
paths = (
{
closed = 1;
nodes = (
"143 -12 OFFCURVE",
"179 8 OFFCURVE",
"196 44 CURVE SMOOTH",
"286 220 LINE",
"483 220 LINE",
"483 -1 LINE",
"920 -1 LINE",
"920 75 LINE",
"565 75 LINE",
"565 325 LINE",
"802 325 LINE",
"802 401 LINE",
"565 401 LINE",
"565 610 LINE",
"900 610 LINE",
"900 686 LINE",
"456 686 LINE",
"133 93 LINE SMOOTH",
"123 75 OFFCURVE",
"113 67 OFFCURVE",
"99 67 CURVE SMOOTH",
"88 67 OFFCURVE",
"76 72 OFFCURVE",
"66 86 CURVE",
"18 30 LINE",
"35 5 OFFCURVE",
"66 -12 OFFCURVE",
"107 -12 CURVE SMOOTH"
);
},
{
closed = 1;
nodes = (
"462 537 LINE",
"483 586 LINE",
"483 296 LINE",
"330 296 LINE"
);
}
);
width = 962;
},
{
anchors = (
{
name = bottom;
position = "{553, 0}";
},
{
name = top;
position = "{561, 692}";
}
);
layerId = "49C16FD3-6177-408B-A733-AEB3898BB77C";
paths = (
{
closed = 1;
nodes = (
"144 -2 OFFCURVE",
"156 26 OFFCURVE",
"187 71 CURVE",
"279 235 LINE",
"507 235 LINE",
"507 1 LINE",
"926 1 LINE",
"926 41 LINE",
"549 41 LINE",
"549 344 LINE",
"803 344 LINE",
"803 384 LINE",
"549 384 LINE",
"549 645 LINE",
"906 645 LINE",
"906 685 LINE",
"479 685 LINE",
"145 78 LINE",
"131 57 OFFCURVE",
"122 38 OFFCURVE",
"98 38 CURVE SMOOTH",
"84 38 OFFCURVE",
"67 47 OFFCURVE",
"59 56 CURVE",
"22 38 LINE",
"39 12 OFFCURVE",
"66 -2 OFFCURVE",
"97 -2 CURVE SMOOTH"
);
},
{
closed = 1;
nodes = (
"475 596 LINE",
"506 656 LINE",
"507 275 LINE",
"300 275 LINE"
);
}
);
width = 971;
}
);
leftKerningGroup = AE;
leftMetricsKey = "=A*.6";
rightKerningGroup = E;
unicode = 00C6;
userData = {
position = 422;
width = 61;
};
},
{
glyphname = AE.ss01;
lastChange = "2019-10-24 18:16:34 +0000";
layers = (
{
anchors = (
{
name = bottom;
position = "{478, 0}";
},
{
name = top;
position = "{488, 682}";
}
);
layerId = "873CAA12-270D-4223-A88E-AE8E101FDBE8";
paths = (
{
closed = 1;
nodes = (
"83 0 LINE",
"208 227 LINE",
"427 227 LINE",
"427 0 LINE",
"844 0 LINE",
"844 56 LINE",
"487 56 LINE",
"487 334 LINE",
"724 334 LINE",
"724 390 LINE",
"487 390 LINE",
"487 628 LINE",
"824 628 LINE",
"824 684 LINE",
"404 684 LINE",
"15 0 LINE"
);
},
{
closed = 1;
nodes = (
"408 587 LINE",
"427 631 LINE",
"427 283 LINE",
"236 283 LINE"
);
}
);
width = 885;
},
{
anchors = (
{
name = bottom;
position = "{484, 0}";
},
{
name = top;
position = "{495, 673}";
}
);
layerId = "0CAF3BED-C4AC-4024-B3E1-4C69D1EF7EC0";
paths = (
{
closed = 1;
nodes = (
"106 0 LINE",
"227 220 LINE",
"424 220 LINE",
"424 -1 LINE",
"851 -1 LINE",
"851 75 LINE",
"506 75 LINE",
"506 325 LINE",
"733 325 LINE",
"733 401 LINE",
"506 401 LINE",
"506 610 LINE",
"831 610 LINE",
"831 686 LINE",
"407 686 LINE",
"15 -1 LINE"
);
},
{
closed = 1;
nodes = (
"410 561 LINE",
"424 593 LINE",
"424 296 LINE",
"265 296 LINE"
);
}
);
width = 894;
},
{
anchors = (
{
name = bottom;
position = "{468, 0}";
},
{
name = top;
position = "{475, 692}";
}
);
layerId = "49C16FD3-6177-408B-A733-AEB3898BB77C";
paths = (
{
closed = 1;
nodes = (
"70 1 LINE",
"195 234 LINE",
"422 234 LINE",
"422 1 LINE",
"842 1 LINE",
"842 41 LINE",
"464 41 LINE",
"464 344 LINE",
"720 344 LINE",
"720 384 LINE",
"464 384 LINE",
"464 645 LINE",
"822 645 LINE",
"822 685 LINE",
"395 685 LINE",
"18 1 LINE"
);
},
{
closed = 1;
nodes = (
"392 598 LINE",
"422 645 LINE",
"422 274 LINE",
"213 274 LINE"
);
}
);
width = 886;
}
);
leftKerningGroup = AE;
leftMetricsKey = "=A*.5";
rightKerningGroup = E;
userData = {
position = 422;
width = 61;
};
},
{
glyphname = B;
lastChange = "2019-10-24 18:23:32 +0000";
layers = (
{
anchors = (
{
name = bottom;
position = "{316, 0}";
},
{
name = top;
position = "{316, 684}";
}
);
hints = (
{
origin = "{0, 22}";
type = Corner;
name = _corner.caps_left;
}
);
layerId = "873CAA12-270D-4223-A88E-AE8E101FDBE8";
paths = (
{
closed = 1;
nodes = (
"203 -5 LINE SMOOTH",
"243 -10 OFFCURVE",
"322 -10 OFFCURVE",
"327 -10 CURVE SMOOTH",
"499 -10 OFFCURVE",
"605 47 OFFCURVE",
"605 181 CURVE SMOOTH",
"605 263 OFFCURVE",
"565 328 OFFCURVE",
"499 358 CURVE SMOOTH",
"486 364 OFFCURVE",
"481 364 OFFCURVE",
"467 368 CURVE",
"493 376 OFFCURVE",
"494 378 OFFCURVE",
"497 379 CURVE SMOOTH",
"545 395 OFFCURVE",
"573 449 OFFCURVE",
"573 514 CURVE SMOOTH",
"573 625 OFFCURVE",
"484 695 OFFCURVE",
"371 695 CURVE SMOOTH",
"150 695 LINE",
"150 1 LINE"
);
},
{
closed = 1;
nodes = (
"324 45 OFFCURVE",
"319 46 OFFCURVE",
"210 50 CURVE",
"210 639 LINE",
"385 639 LINE",
"460 635 OFFCURVE",
"513 595 OFFCURVE",
"513 515 CURVE SMOOTH",
"513 476 OFFCURVE",
"500 445 OFFCURVE",
"474 423 CURVE SMOOTH",
"449 402 OFFCURVE",
"412 390 OFFCURVE",
"370 390 CURVE SMOOTH",
"282 390 LINE",
"282 335 LINE",
"377 335 LINE SMOOTH",
"469 335 OFFCURVE",
"545 281 OFFCURVE",
"545 183 CURVE SMOOTH",
"545 81 OFFCURVE",
"464 45 OFFCURVE",
"344 45 CURVE SMOOTH"
);
}
);
width = 662;
},
{
anchors = (
{
name = bottom;
position = "{329, 0}";
},
{
name = top;
position = "{329, 684}";
}
);
hints = (
{
origin = "{0, 22}";
type = Corner;
name = _corner.caps_left;
}
);
layerId = "0CAF3BED-C4AC-4024-B3E1-4C69D1EF7EC0";
paths = (
{
closed = 1;
nodes = (
"218 -5 LINE SMOOTH",
"278 -12 OFFCURVE",
"335 -10 OFFCURVE",
"352 -10 CURVE SMOOTH",
"505 -10 OFFCURVE",
"619 50 OFFCURVE",
"619 188 CURVE SMOOTH",
"619 269 OFFCURVE",
"589 318 OFFCURVE",
"552 338 CURVE SMOOTH",
"521 355 OFFCURVE",
"490 364 OFFCURVE",
"474 364 CURVE",
"488 367 OFFCURVE",
"499 370 OFFCURVE",
"509 375 CURVE SMOOTH",
"558 399 OFFCURVE",
"589 446 OFFCURVE",
"589 511 CURVE SMOOTH",
"589 620 OFFCURVE",
"499 697 OFFCURVE",
"382 697 CURVE SMOOTH",
"156 697 LINE",
"156 2 LINE"
);
},
{
closed = 1;
nodes = (
"338 66 OFFCURVE",
"307 66 OFFCURVE",
"238 71 CURVE",
"238 621 LINE",
"395 621 LINE SMOOTH",
"462 621 OFFCURVE",
"508 580 OFFCURVE",
"508 511 CURVE SMOOTH",
"508 475 OFFCURVE",
"497 450 OFFCURVE",
"474 430 CURVE SMOOTH",
"452 411 OFFCURVE",
"420 400 OFFCURVE",
"381 400 CURVE SMOOTH",
"295 399 LINE",
"294 325 LINE",
"388 325 LINE SMOOTH",
"471 325 OFFCURVE",
"539 276 OFFCURVE",
"539 189 CURVE SMOOTH",
"539 99 OFFCURVE",
"468 66 OFFCURVE",
"356 66 CURVE SMOOTH"
);
}
);
width = 674;
},
{
anchors = (
{
name = bottom;
position = "{307, 0}";
},
{
name = top;
position = "{307, 684}";
}
);
hints = (
{
origin = "{0, 22}";
type = Corner;
name = _corner.caps_left;
}
);
layerId = "49C16FD3-6177-408B-A733-AEB3898BB77C";
paths = (
{
closed = 1;
nodes = (
"186 -4 LINE SMOOTH",
"227 -9 OFFCURVE",
"304 -9 OFFCURVE",
"325 -9 CURVE SMOOTH",
"482 -9 OFFCURVE",
"586 46 OFFCURVE",
"586 180 CURVE SMOOTH",
"586 261 OFFCURVE",
"548 312 OFFCURVE",
"485 347 CURVE SMOOTH",
"465 358 OFFCURVE",
"444 363 OFFCURVE",
"424 366 CURVE",
"447 369 OFFCURVE",
"467 374 OFFCURVE",
"483 385 CURVE SMOOTH",
"522 412 OFFCURVE",
"555 458 OFFCURVE",
"555 520 CURVE SMOOTH",
"555 626 OFFCURVE",
"471 696 OFFCURVE",
"357 696 CURVE SMOOTH",
"142 696 LINE",
"142 1 LINE"
);
},
{
closed = 1;
nodes = (
"306 30 OFFCURVE",
"303 31 OFFCURVE",
"184 35 CURVE",
"184 657 LINE",
"371 657 LINE",
"447 653 OFFCURVE",
"511 609 OFFCURVE",
"511 520 CURVE SMOOTH",
"511 479 OFFCURVE",
"496 444 OFFCURVE",
"467 419 CURVE SMOOTH",
"441 397 OFFCURVE",
"400 384 OFFCURVE",
"356 384 CURVE SMOOTH",
"274 384 LINE",
"274 345 LINE",
"363 345 LINE SMOOTH",
"460 345 OFFCURVE",
"543 284 OFFCURVE",
"543 181 CURVE SMOOTH",
"543 70 OFFCURVE",
"453 30 OFFCURVE",
"329 30 CURVE SMOOTH"
);
}
);
width = 647;
}
);
leftKerningGroup = E;
rightKerningGroup = B;
unicode = 0042;
userData = {
position = 514;
width = 59;
};
},
{
glyphname = B.ss01;
lastChange = "2019-10-24 18:16:34 +0000";
layers = (
{
anchors = (
{
name = bottom;
position = "{295, 0}";
},
{
name = top;
position = "{295, 684}";
}
);
layerId = "873CAA12-270D-4223-A88E-AE8E101FDBE8";
paths = (
{
closed = 1;
nodes = (
"353 -10 OFFCURVE",
"388 -6 OFFCURVE",
"419 4 CURVE SMOOTH",
"509 33 OFFCURVE",
"553 106 OFFCURVE",
"553 185 CURVE SMOOTH",
"553 261 OFFCURVE",
"511 320 OFFCURVE",
"448 358 CURVE SMOOTH",
"443 361 OFFCURVE",
"437 363 OFFCURVE",
"416 368 CURVE",
"439 375 OFFCURVE",
"444 378 OFFCURVE",
"446 379 CURVE SMOOTH",
"500 406 OFFCURVE",
"522 456 OFFCURVE",
"522 514 CURVE SMOOTH",
"522 594 OFFCURVE",
"477 655 OFFCURVE",
"402 682 CURVE SMOOTH",
"377 691 OFFCURVE",
"350 695 OFFCURVE",
"320 695 CURVE SMOOTH",
"100 695 LINE",
"100 639 LINE",
"334 639 LINE",
"415 633 OFFCURVE",
"462 592 OFFCURVE",
"462 518 CURVE SMOOTH",
"462 433 OFFCURVE",
"401 390 OFFCURVE",
"319 390 CURVE SMOOTH",
"141 390 LINE",
"141 335 LINE",
"326 335 LINE SMOOTH",
"435 335 OFFCURVE",
"493 270 OFFCURVE",
"493 185 CURVE SMOOTH",
"493 92 OFFCURVE",
"423 45 OFFCURVE",
"312 45 CURVE SMOOTH",
"297 45 OFFCURVE",
"267 46 OFFCURVE",
"245 47 CURVE SMOOTH",
"160 50 LINE",
"160 652 LINE",
"100 652 LINE",
"100 1 LINE",
"152 -5 LINE SMOOTH",
"196 -10 OFFCURVE",
"275 -10 OFFCURVE",
"302 -10 CURVE SMOOTH"
);
}
);
width = 609;
},
{
anchors = (
{
name = bottom;
position = "{298, 0}";
},
{
name = top;
position = "{298, 684}";
}
);
layerId = "0CAF3BED-C4AC-4024-B3E1-4C69D1EF7EC0";
paths = (
{
closed = 1;
nodes = (
"356 -10 OFFCURVE",
"392 -6 OFFCURVE",
"423 4 CURVE SMOOTH",
"514 33 OFFCURVE",
"561 111 OFFCURVE",
"561 191 CURVE SMOOTH",
"561 268 OFFCURVE",
"526 320 OFFCURVE",
"465 357 CURVE SMOOTH",
"455 363 OFFCURVE",
"437 369 OFFCURVE",
"429 369 CURVE",
"441 373 OFFCURVE",
"446 375 OFFCURVE",
"450 377 CURVE SMOOTH",
"506 405 OFFCURVE",
"531 451 OFFCURVE",
"531 510 CURVE SMOOTH",
"531 591 OFFCURVE",
"483 655 OFFCURVE",
"407 684 CURVE SMOOTH",
"381 694 OFFCURVE",
"353 697 OFFCURVE",
"323 697 CURVE SMOOTH",
"97 697 LINE",
"97 619 LINE",
"336 619 LINE",
"409 614 OFFCURVE",
"449 578 OFFCURVE",
"449 514 CURVE SMOOTH",
"449 439 OFFCURVE",
"396 401 OFFCURVE",
"322 401 CURVE SMOOTH",
"137 401 LINE",
"137 324 LINE",
"329 324 LINE SMOOTH",
"428 324 OFFCURVE",
"480 267 OFFCURVE",
"480 191 CURVE SMOOTH",
"480 109 OFFCURVE",
"418 66 OFFCURVE",
"316 66 CURVE SMOOTH",
"300 66 OFFCURVE",
"271 67 OFFCURVE",
"251 68 CURVE SMOOTH",
"179 71 LINE",
"179 655 LINE",
"97 655 LINE",
"97 2 LINE",
"158 -5 LINE SMOOTH",
"194 -9 OFFCURVE",
"279 -10 OFFCURVE",
"306 -10 CURVE SMOOTH"
);
}
);
width = 615;
},
{
anchors = (
{
name = bottom;
position = "{294, 0}";
},
{
name = top;
position = "{294, 684}";
}
);
layerId = "49C16FD3-6177-408B-A733-AEB3898BB77C";
paths = (
{
closed = 1;
nodes = (
"351 -9 OFFCURVE",
"389 -5 OFFCURVE",
"420 5 CURVE SMOOTH",
"509 34 OFFCURVE",
"552 104 OFFCURVE",
"552 182 CURVE SMOOTH",
"552 256 OFFCURVE",
"513 319 OFFCURVE",
"447 352 CURVE",
"440 357 OFFCURVE",
"429 358 OFFCURVE",
"386 369 CURVE",
"433 381 OFFCURVE",
"443 386 OFFCURVE",
"447 389 CURVE SMOOTH",
"491 422 OFFCURVE",
"519 460 OFFCURVE",
"519 519 CURVE SMOOTH",
"519 599 OFFCURVE",
"477 656 OFFCURVE",
"402 683 CURVE SMOOTH",
"374 693 OFFCURVE",
"349 696 OFFCURVE",
"321 696 CURVE SMOOTH",
"104 696 LINE",
"104 656 LINE",
"336 656 LINE",
"426 650 OFFCURVE",
"476 600 OFFCURVE",
"476 523 CURVE SMOOTH",
"476 432 OFFCURVE",
"407 384 OFFCURVE",
"320 384 CURVE SMOOTH",
"147 384 LINE",
"147 345 LINE",
"327 345 LINE SMOOTH",
"444 345 OFFCURVE",
"509 272 OFFCURVE",
"509 182 CURVE SMOOTH",
"509 82 OFFCURVE",
"429 30 OFFCURVE",
"313 30 CURVE SMOOTH",
"298 30 OFFCURVE",
"271 31 OFFCURVE",
"244 32 CURVE SMOOTH",
"149 34 LINE",
"149 664 LINE",
"104 664 LINE",
"105 3 LINE",
"151 -4 LINE SMOOTH",
"188 -10 OFFCURVE",
"280 -9 OFFCURVE",
"303 -9 CURVE SMOOTH"
);
}
);
width = 612;
}
);
leftKerningGroup = L;
rightKerningGroup = B;
userData = {
position = 494;
width = 59;
};
},
{
glyphname = B.swsh;
lastChange = "2019-10-24 18:31:15 +0000";
layers = (
{
hints = (
{
origin = "{0, 21}";
type = Corner;
name = _corner.caps_swash;
}
);
layerId = "873CAA12-270D-4223-A88E-AE8E101FDBE8";
paths = (
{
closed = 1;
nodes = (
"515 -14 OFFCURVE",
"608 48 OFFCURVE",
"608 181 CURVE SMOOTH",
"608 267 OFFCURVE",
"563 318 OFFCURVE",
"503 358 CURVE SMOOTH",
"500 360 OFFCURVE",
"494 362 OFFCURVE",
"471 368 CURVE",
"493 375 OFFCURVE",
"496 376 OFFCURVE",
"501 379 CURVE SMOOTH",
"549 408 OFFCURVE",
"577 450 OFFCURVE",
"577 511 CURVE SMOOTH",
"577 566 OFFCURVE",
"553 642 OFFCURVE",
"461 674 CURVE SMOOTH",
"435 683 OFFCURVE",
"404 687 OFFCURVE",
"375 687 CURVE SMOOTH",
"143 687 LINE",
"143 631 LINE",
"389 631 LINE",
"468 626 OFFCURVE",
"517 585 OFFCURVE",
"517 514 CURVE SMOOTH",
"517 429 OFFCURVE",
"456 390 OFFCURVE",
"374 390 CURVE SMOOTH",
"286 390 LINE",
"286 335 LINE",
"381 335 LINE SMOOTH",
"471 335 OFFCURVE",
"549 284 OFFCURVE",
"549 185 CURVE SMOOTH",
"549 89 OFFCURVE",
"477 45 OFFCURVE",
"351 45 CURVE SMOOTH",
"334 45 OFFCURVE",
"320 46 OFFCURVE",
"300 47 CURVE SMOOTH",
"224 50 LINE",
"224 592 LINE",
"164 592 LINE",
"164 1 LINE",
"217 -4 LINE SMOOTH",
"249 -7 OFFCURVE",
"290 -9 OFFCURVE",
"331 -10 CURVE SMOOTH"
);
}
);
width = 664;
},
{
hints = (
{
origin = "{0, 21}";
type = Corner;
name = _corner.caps_swash;
}
);
layerId = "0CAF3BED-C4AC-4024-B3E1-4C69D1EF7EC0";
paths = (
{
closed = 1;
nodes = (
"543 -10 OFFCURVE",
"622 55 OFFCURVE",
"622 187 CURVE SMOOTH",
"622 254 OFFCURVE",
"594 306 OFFCURVE",
"555 335 CURVE SMOOTH",
"530 354 OFFCURVE",
"501 363 OFFCURVE",
"480 363 CURVE",
"500 367 OFFCURVE",
"516 368 OFFCURVE",
"543 393 CURVE SMOOTH",
"574 421 OFFCURVE",
"591 458 OFFCURVE",
"591 506 CURVE SMOOTH",
"591 562 OFFCURVE",
"561 642 OFFCURVE",
"485 667 CURVE SMOOTH",
"440 682 OFFCURVE",
"412 685 OFFCURVE",
"383 685 CURVE SMOOTH",
"147 685 LINE",
"147 609 LINE",
"396 609 LINE SMOOTH",
"466 609 OFFCURVE",
"509 571 OFFCURVE",
"509 509 CURVE SMOOTH",
"509 434 OFFCURVE",
"456 401 OFFCURVE",
"382 401 CURVE SMOOTH",
"295 401 LINE",
"295 324 LINE",
"389 324 LINE SMOOTH",
"470 324 OFFCURVE",
"540 278 OFFCURVE",
"540 191 CURVE SMOOTH",
"540 97 OFFCURVE",
"476 66 OFFCURVE",
"360 66 CURVE SMOOTH",
"340 66 OFFCURVE",
"328 67 OFFCURVE",
"310 68 CURVE SMOOTH",
"248 71 LINE",
"248 571 LINE",
"166 571 LINE",
"166 2 LINE",
"229 -5 LINE SMOOTH",
"256 -8 OFFCURVE",
"313 -10 OFFCURVE",
"354 -10 CURVE SMOOTH"
);
}
);
width = 676;
},
{
hints = (
{
origin = "{0, 21}";
type = Corner;
name = _corner.caps_swash;
}
);
layerId = "49C16FD3-6177-408B-A733-AEB3898BB77C";
paths = (
{
closed = 1;
nodes = (
"517 -9 OFFCURVE",
"611 47 OFFCURVE",
"611 178 CURVE SMOOTH",
"611 266 OFFCURVE",
"569 319 OFFCURVE",
"505 351 CURVE SMOOTH",
"503 352 OFFCURVE",
"481 360 OFFCURVE",
"451 365 CURVE",
"482 370 OFFCURVE",
"500 380 OFFCURVE",
"502 381 CURVE SMOOTH",
"552 406 OFFCURVE",
"580 452 OFFCURVE",
"580 514 CURVE SMOOTH",
"580 568 OFFCURVE",
"553 640 OFFCURVE",
"462 672 CURVE SMOOTH",
"436 681 OFFCURVE",
"410 685 OFFCURVE",
"382 685 CURVE SMOOTH",
"144 685 LINE",
"144 645 LINE",
"396 645 LINE",
"480 640 OFFCURVE",
"537 593 OFFCURVE",
"537 517 CURVE SMOOTH",
"537 425 OFFCURVE",
"467 383 OFFCURVE",
"381 383 CURVE SMOOTH",
"299 383 LINE",
"299 345 LINE",
"388 345 LINE SMOOTH",
"483 345 OFFCURVE",
"569 289 OFFCURVE",
"569 182 CURVE SMOOTH",
"569 78 OFFCURVE",
"489 29 OFFCURVE",
"356 29 CURVE SMOOTH",
"338 29 OFFCURVE",
"324 29 OFFCURVE",
"304 30 CURVE SMOOTH",
"217 34 LINE",
"217 591 LINE",
"175 591 LINE",
"175 1 LINE",
"221 -3 LINE SMOOTH",
"256 -6 OFFCURVE",
"294 -9 OFFCURVE",
"336 -9 CURVE SMOOTH"
);
}
);
width = 672;
}
);
leftKerningGroup = E.swsh;
rightKerningGroup = B;
userData = {
position = 514;
width = 59;
};
},
{
glyphname = C;
lastChange = "2019-10-24 18:14:08 +0000";
layers = (
{
anchors = (
{
name = bottom;
position = "{378, -21}";
},
{
name = top;
position = "{378, 713}";
}
);
layerId = "873CAA12-270D-4223-A88E-AE8E101FDBE8";
paths = (
{
closed = 1;
nodes = (
"503 -23 OFFCURVE",
"611 25 OFFCURVE",
"678 124 CURVE",
"632 156 LINE",
"581 81 OFFCURVE",
"493 34 OFFCURVE",
"396 34 CURVE SMOOTH",
"228 34 OFFCURVE",
"116 171 OFFCURVE",
"116 336 CURVE SMOOTH",
"116 506 OFFCURVE",
"236 654 OFFCURVE",
"402 654 CURVE SMOOTH",
"473 654 OFFCURVE",
"577 622 OFFCURVE",
"577 561 CURVE SMOOTH",
"577 538 OFFCURVE",
"563 522 OFFCURVE",
"546 522 CURVE SMOOTH",
"538 522 OFFCURVE",
"531 525 OFFCURVE",
"523 530 CURVE",
"488 486 LINE",
"504 474 OFFCURVE",
"524 466 OFFCURVE",
"545 466 CURVE SMOOTH",
"595 466 OFFCURVE",
"638 508 OFFCURVE",
"638 560 CURVE SMOOTH",
"638 661 OFFCURVE",
"514 711 OFFCURVE",
"401 711 CURVE SMOOTH",
"208 711 OFFCURVE",
"56 539 OFFCURVE",
"56 336 CURVE SMOOTH",
"56 140 OFFCURVE",
"198 -23 OFFCURVE",
"395 -23 CURVE SMOOTH"
);
}
);
width = 715;
},
{
anchors = (
{
name = bottom;
position = "{387, -9}";
},
{
name = top;
position = "{387, 703}";
}
);
layerId = "0CAF3BED-C4AC-4024-B3E1-4C69D1EF7EC0";
paths = (
{
closed = 1;
nodes = (
"546 -19 OFFCURVE",
"647 56 OFFCURVE",
"689 146 CURVE",
"621 178 LINE",
"586 101 OFFCURVE",
"495 52 OFFCURVE",
"401 52 CURVE SMOOTH",
"250 52 OFFCURVE",
"135 178 OFFCURVE",
"135 339 CURVE SMOOTH",
"135 507 OFFCURVE",
"262 630 OFFCURVE",
"392 630 CURVE SMOOTH",
"459 630 OFFCURVE",
"552 601 OFFCURVE",
"552 541 CURVE SMOOTH",
"552 524 OFFCURVE",
"542 511 OFFCURVE",
"530 511 CURVE SMOOTH",
"524 511 OFFCURVE",
"516 515 OFFCURVE",
"509 525 CURVE",
"444 487 LINE",
"466 452 OFFCURVE",
"498 436 OFFCURVE",
"529 436 CURVE SMOOTH",
"579 436 OFFCURVE",
"626 475 OFFCURVE",
"627 539 CURVE SMOOTH",
"628 637 OFFCURVE",
"522 704 OFFCURVE",
"398 704 CURVE SMOOTH",
"200 704 OFFCURVE",
"53 537 OFFCURVE",
"53 339 CURVE SMOOTH",
"53 150 OFFCURVE",
"189 -27 OFFCURVE",
"404 -22 CURVE SMOOTH"
);
}
);
width = 720;
},
{
anchors = (
{
name = bottom;
position = "{384, -29}";
},
{
name = top;
position = "{384, 723}";
}
);
layerId = "49C16FD3-6177-408B-A733-AEB3898BB77C";
paths = (
{
closed = 1;
nodes = (
"504 -22 OFFCURVE",
"610 20 OFFCURVE",
"679 118 CURVE",
"647 140 LINE",
"593 65 OFFCURVE",
"500 18 OFFCURVE",
"403 18 CURVE SMOOTH",
"226 18 OFFCURVE",
"102 166 OFFCURVE",
"102 337 CURVE SMOOTH",
"102 508 OFFCURVE",
"234 665 OFFCURVE",
"409 665 CURVE SMOOTH",
"486 665 OFFCURVE",
"598 628 OFFCURVE",
"598 561 CURVE SMOOTH",
"598 536 OFFCURVE",
"580 512 OFFCURVE",
"557 512 CURVE SMOOTH",
"549 512 OFFCURVE",
"542 515 OFFCURVE",
"535 518 CURVE",
"510 486 LINE",
"524 476 OFFCURVE",
"540 472 OFFCURVE",
"556 472 CURVE SMOOTH",
"603 472 OFFCURVE",
"635 511 OFFCURVE",
"635 560 CURVE SMOOTH",
"635 661 OFFCURVE",
"521 706 OFFCURVE",
"408 706 CURVE SMOOTH",
"214 706 OFFCURVE",
"60 535 OFFCURVE",
"60 337 CURVE SMOOTH",
"60 140 OFFCURVE",
"204 -22 OFFCURVE",
"402 -22 CURVE SMOOTH"
);
}
);
width = 720;
}
);
leftKerningGroup = O;
rightKerningGroup = C;
unicode = 0043;
userData = {
position = 570;
width = 54;
};
},
{
glyphname = C.ss01;
lastChange = "2019-10-24 18:16:34 +0000";
layers = (
{
anchors = (
{
name = bottom;
position = "{377, -18}";
},
{
name = top;
position = "{377, 711}";
}
);
layerId = "873CAA12-270D-4223-A88E-AE8E101FDBE8";
paths = (
{
closed = 1;
nodes = (
"504 -17 OFFCURVE",
"613 35 OFFCURVE",
"677 132 CURVE",
"628 166 LINE",
"580 92 OFFCURVE",
"492 44 OFFCURVE",
"394 44 CURVE SMOOTH",
"230 44 OFFCURVE",
"115 180 OFFCURVE",
"115 333 CURVE SMOOTH",
"115 492 OFFCURVE",
"237 645 OFFCURVE",
"392 645 CURVE SMOOTH",
"443 645 OFFCURVE",
"567 633 OFFCURVE",
"572 531 CURVE",
"632 531 LINE",
"626 680 OFFCURVE",
"475 705 OFFCURVE",
"397 705 CURVE SMOOTH",
"208 705 OFFCURVE",
"55 533 OFFCURVE",
"55 336 CURVE SMOOTH",
"55 145 OFFCURVE",
"197 -17 OFFCURVE",
"393 -17 CURVE SMOOTH"
);
}
);
width = 712;
},
{
anchors = (
{
name = bottom;
position = "{376, -7}";
},
{
name = top;
position = "{376, 701}";
}
);
layerId = "0CAF3BED-C4AC-4024-B3E1-4C69D1EF7EC0";
paths = (
{
closed = 1;
nodes = (
"502 -17 OFFCURVE",
"618 30 OFFCURVE",
"684 136 CURVE",
"617 182 LINE",
"569 102 OFFCURVE",
"485 59 OFFCURVE",
"393 59 CURVE SMOOTH",
"240 59 OFFCURVE",
"133 186 OFFCURVE",
"133 334 CURVE SMOOTH",
"133 489 OFFCURVE",
"248 631 OFFCURVE",
"391 631 CURVE SMOOTH",
"448 631 OFFCURVE",
"560 616 OFFCURVE",
"556 520 CURVE",
"635 520 LINE",
"638 680 OFFCURVE",
"482 707 OFFCURVE",
"396 707 CURVE SMOOTH",
"207 707 OFFCURVE",
"53 538 OFFCURVE",
"53 337 CURVE SMOOTH",
"53 142 OFFCURVE",
"197 -17 OFFCURVE",
"392 -17 CURVE SMOOTH"
);
}
);
width = 716;
},
{
anchors = (
{
name = bottom;
position = "{381, -27}";
},
{
name = top;
position = "{381, 721}";
}
);
layerId = "49C16FD3-6177-408B-A733-AEB3898BB77C";
paths = (
{
closed = 1;
nodes = (
"504 -20 OFFCURVE",
"609 24 OFFCURVE",
"676 119 CURVE",
"642 142 LINE",
"589 67 OFFCURVE",
"497 20 OFFCURVE",
"400 20 CURVE SMOOTH",
"225 20 OFFCURVE",
"103 167 OFFCURVE",
"103 334 CURVE SMOOTH",
"103 507 OFFCURVE",
"233 669 OFFCURVE",
"398 669 CURVE SMOOTH",
"455 669 OFFCURVE",
"580 654 OFFCURVE",
"592 552 CURVE",
"633 552 LINE",
"621 684 OFFCURVE",
"487 709 OFFCURVE",
"403 709 CURVE SMOOTH",
"212 709 OFFCURVE",
"61 540 OFFCURVE",
"61 337 CURVE SMOOTH",
"61 140 OFFCURVE",
"201 -20 OFFCURVE",
"399 -20 CURVE SMOOTH"
);
}
);
width = 715;
}
);
leftKerningGroup = O;
rightKerningGroup = C;
userData = {
position = 570;
width = 54;
};
},
{
glyphname = C.swsh;
lastChange = "2019-10-24 18:16:34 +0000";
layers = (
{
anchors = (
{
name = bottom;
position = "{402, 0}";
},
{
name = top;
position = "{393, 684}";
}
);
layerId = "873CAA12-270D-4223-A88E-AE8E101FDBE8";
paths = (
{
closed = 1;
nodes = (
"514 -22 OFFCURVE",
"637 36 OFFCURVE",
"688 145 CURVE",
"637 168 LINE",
"600 85 OFFCURVE",
"503 32 OFFCURVE",
"401 32 CURVE SMOOTH",
"234 32 OFFCURVE",
"116 172 OFFCURVE",
"116 347 CURVE SMOOTH",
"116 504 OFFCURVE",
"238 652 OFFCURVE",
"392 652 CURVE SMOOTH",
"467 652 OFFCURVE",
"568 619 OFFCURVE",
"568 551 CURVE SMOOTH",
"568 527 OFFCURVE",
"553 508 OFFCURVE",
"534 508 CURVE SMOOTH",
"521 508 OFFCURVE",
"514 514 OFFCURVE",
"502 527 CURVE",
"455 499 LINE",
"470 474 OFFCURVE",
"500 453 OFFCURVE",
"535 453 CURVE SMOOTH",
"584 453 OFFCURVE",
"622 496 OFFCURVE",
"622 550 CURVE SMOOTH",
"622 648 OFFCURVE",
"511 705 OFFCURVE",
"400 707 CURVE SMOOTH",
"206 710 OFFCURVE",
"56 534 OFFCURVE",
"56 348 CURVE SMOOTH",
"56 144 OFFCURVE",
"195 -22 OFFCURVE",
"402 -22 CURVE SMOOTH"
);
}
);
width = 721;
},
{
anchors = (
{
name = bottom;
position = "{378, -9}";
},
{
name = top;
position = "{378, 703}";
}
);
layerId = "0CAF3BED-C4AC-4024-B3E1-4C69D1EF7EC0";
paths = (
{
closed = 1;
nodes = (
"505 -16 OFFCURVE",
"621 32 OFFCURVE",
"687 139 CURVE",
"620 184 LINE",
"574 106 OFFCURVE",
"489 60 OFFCURVE",
"395 60 CURVE SMOOTH",
"243 60 OFFCURVE",
"133 184 OFFCURVE",
"133 337 CURVE SMOOTH",
"133 493 OFFCURVE",
"251 630 OFFCURVE",
"401 630 CURVE SMOOTH",
"464 630 OFFCURVE",
"558 604 OFFCURVE",
"558 552 CURVE SMOOTH",
"558 539 OFFCURVE",
"548 528 OFFCURVE",
"537 528 CURVE SMOOTH",
"530 528 OFFCURVE",
"520 532 OFFCURVE",
"515 539 CURVE",
"467 478 LINE",
"485 460 OFFCURVE",
"513 447 OFFCURVE",
"543 447 CURVE SMOOTH",
"594 447 OFFCURVE",
"638 494 OFFCURVE",
"638 551 CURVE SMOOTH",
"638 661 OFFCURVE",
"511 706 OFFCURVE",
"400 706 CURVE SMOOTH",
"207 706 OFFCURVE",
"53 536 OFFCURVE",
"53 337 CURVE SMOOTH",
"53 141 OFFCURVE",
"200 -16 OFFCURVE",
"394 -16 CURVE SMOOTH"
);
}
);
width = 720;
},
{
anchors = (
{
name = bottom;
position = "{371, 0}";
},
{
name = top;
position = "{383, 684}";
}
);
layerId = "49C16FD3-6177-408B-A733-AEB3898BB77C";
paths = (
{
closed = 1;
nodes = (
"507 -21 OFFCURVE",
"630 33 OFFCURVE",
"680 140 CURVE",
"641 157 LINE",
"608 85 OFFCURVE",
"527 18 OFFCURVE",
"390 19 CURVE SMOOTH",
"248 20 OFFCURVE",
"102 149 OFFCURVE",
"102 343 CURVE SMOOTH",
"102 508 OFFCURVE",
"234 657 OFFCURVE",
"394 657 CURVE SMOOTH",
"475 657 OFFCURVE",
"572 621 OFFCURVE",
"572 548 CURVE SMOOTH",
"572 521 OFFCURVE",
"556 500 OFFCURVE",
"532 500 CURVE SMOOTH",
"519 500 OFFCURVE",
"502 510 OFFCURVE",
"495 523 CURVE",
"459 501 LINE",
"477 471 OFFCURVE",
"504 458 OFFCURVE",
"531 458 CURVE SMOOTH",
"573 458 OFFCURVE",
"614 492 OFFCURVE",
"614 546 CURVE SMOOTH",
"614 639 OFFCURVE",
"506 697 OFFCURVE",
"395 697 CURVE SMOOTH",
"211 697 OFFCURVE",
"60 536 OFFCURVE",
"60 344 CURVE SMOOTH",
"60 159 OFFCURVE",
"191 -21 OFFCURVE",
"391 -21 CURVE SMOOTH"
);
}
);
width = 718;
}
);
leftKerningGroup = O;
rightKerningGroup = C;
userData = {
position = 570;
width = 54;
};
},
{
glyphname = D;
lastChange = "2019-10-24 18:29:57 +0000";
layers = (
{
anchors = (
{
name = bottom;
position = "{396, 0}";
},
{
name = center;
position = "{213, 367}";
},
{
name = top;
position = "{414, 684}";
}
);
hints = (
{
origin = "{0, 6}";
type = Corner;
name = _corner.caps_left;
}
);
layerId = "873CAA12-270D-4223-A88E-AE8E101FDBE8";
paths = (
{
closed = 1;
nodes = (
"595 -8 OFFCURVE",
"730 109 OFFCURVE",
"730 339 CURVE SMOOTH",
"730 540 OFFCURVE",
"599 685 OFFCURVE",
"413 689 CURVE",
"150 690 LINE",
"150 0 LINE",
"197 -5 LINE SMOOTH",
"211 -6 OFFCURVE",
"288 -8 OFFCURVE",
"330 -8 CURVE SMOOTH"
);
},
{
closed = 1;
nodes = (
"297 48 OFFCURVE",
"235 52 OFFCURVE",
"210 53 CURVE",
"210 633 LINE",
"403 633 LINE",
"563 633 OFFCURVE",
"670 515 OFFCURVE",
"670 338 CURVE SMOOTH",
"670 149 OFFCURVE",
"552 48 OFFCURVE",
"332 48 CURVE SMOOTH"
);
}
);
width = 787;
},
{
anchors = (
{
name = bottom;
position = "{406, 0}";
},
{
name = center;
position = "{239, 367}";
},
{
name = top;
position = "{424, 675}";
}
);
hints = (
{
origin = "{0, 6}";
type = Corner;
name = _corner.caps_left;
}
);
layerId = "0CAF3BED-C4AC-4024-B3E1-4C69D1EF7EC0";
paths = (
{
closed = 1;
nodes = (
"614 -9 OFFCURVE",
"742 106 OFFCURVE",
"742 342 CURVE SMOOTH",
"742 544 OFFCURVE",
"614 684 OFFCURVE",
"423 691 CURVE",
"156 692 LINE",
"156 1 LINE",
"213 -5 LINE SMOOTH",
"226 -6 OFFCURVE",
"320 -9 OFFCURVE",
"352 -9 CURVE SMOOTH"
);
},
{
closed = 1;
nodes = (
"333 66 OFFCURVE",
"266 68 OFFCURVE",
"238 71 CURVE",
"238 615 LINE",
"412 615 LINE",
"564 615 OFFCURVE",
"660 509 OFFCURVE",
"660 342 CURVE SMOOTH",
"660 159 OFFCURVE",
"560 66 OFFCURVE",
"365 66 CURVE SMOOTH"
);
}
);
width = 797;
},
{
anchors = (
{
name = bottom;
position = "{390, 0}";
},
{
name = center;
position = "{186, 367}";
},
{
name = top;
position = "{403, 694}";
}
);
hints = (
{
origin = "{0, 6}";
type = Corner;
name = _corner.caps_left;
}
);
layerId = "49C16FD3-6177-408B-A733-AEB3898BB77C";
paths = (
{
closed = 1;
nodes = (
"577 -8 OFFCURVE",
"717 100 OFFCURVE",
"717 331 CURVE SMOOTH",
"717 535 OFFCURVE",
"586 684 OFFCURVE",
"402 690 CURVE",
"142 691 LINE",
"142 0 LINE",
"181 -4 LINE SMOOTH",
"205 -6 OFFCURVE",
"244 -8 OFFCURVE",
"277 -8 CURVE SMOOTH"
);
},
{
closed = 1;
nodes = (
"247 32 OFFCURVE",
"223 33 OFFCURVE",
"184 36 CURVE",
"184 650 LINE",
"392 650 LINE",
"569 638 OFFCURVE",
"675 520 OFFCURVE",
"675 333 CURVE SMOOTH",
"675 132 OFFCURVE",
"549 32 OFFCURVE",
"295 32 CURVE SMOOTH"
);
}
);
width = 779;
}
);
leftKerningGroup = E;
rightKerningGroup = O;
unicode = 0044;
userData = {
position = 674;
width = 60;
};
},
{
glyphname = D.ss01;
lastChange = "2019-10-24 18:16:34 +0000";
layers = (
{
anchors = (
{
name = bottom;
position = "{376, 0}";
},
{
name = center;
position = "{155, 341}";
},
{
name = top;
position = "{378, 689}";
}
);
layerId = "873CAA12-270D-4223-A88E-AE8E101FDBE8";
paths = (
{
closed = 1;
nodes = (
"338 -10 LINE SMOOTH",
"541 -10 OFFCURVE",
"680 132 OFFCURVE",
"680 341 CURVE SMOOTH",
"680 538 OFFCURVE",
"553 677 OFFCURVE",
"363 689 CURVE",
"100 690 LINE",
"100 633 LINE",
"353 633 LINE",
"520 624 OFFCURVE",
"620 514 OFFCURVE",
"620 338 CURVE SMOOTH",
"620 150 OFFCURVE",
"506 45 OFFCURVE",
"300 45 CURVE SMOOTH",
"260 45 OFFCURVE",
"190 49 OFFCURVE",
"160 50 CURVE",
"160 655 LINE",
"100 655 LINE",
"100 0 LINE",
"147 -4 LINE SMOOTH",
"230 -11 OFFCURVE",
"236 -10 OFFCURVE",
"281 -10 CURVE SMOOTH"
);
}
);
width = 737;
},
{
anchors = (
{
name = bottom;
position = "{349, -10}";
},
{
name = center;
position = "{179, 367}";
},
{
name = top;
position = "{379, 691}";
}
);
layerId = "0CAF3BED-C4AC-4024-B3E1-4C69D1EF7EC0";
paths = (
{
closed = 1;
nodes = (
"334 -10 LINE SMOOTH",
"538 -10 OFFCURVE",
"682 136 OFFCURVE",
"682 342 CURVE SMOOTH",
"682 537 OFFCURVE",
"553 679 OFFCURVE",
"364 691 CURVE",
"97 692 LINE",
"97 615 LINE",
"353 615 LINE",
"507 607 OFFCURVE",
"600 504 OFFCURVE",
"600 339 CURVE SMOOTH",
"600 163 OFFCURVE",
"494 65 OFFCURVE",
"302 65 CURVE SMOOTH",
"271 65 OFFCURVE",
"220 67 OFFCURVE",
"179 70 CURVE",
"179 658 LINE",
"97 658 LINE",
"97 1 LINE",
"153 -4 LINE SMOOTH",
"231 -11 OFFCURVE",
"239 -10 OFFCURVE",
"284 -10 CURVE SMOOTH"
);
}
);
width = 735;
},
{
anchors = (
{
name = bottom;
position = "{285, -10}";
},
{
name = center;
position = "{125, 357}";
},
{
name = top;
position = "{380, 690}";
}
);
layerId = "49C16FD3-6177-408B-A733-AEB3898BB77C";
paths = (
{
closed = 1;
nodes = (
"344 -9 LINE SMOOTH",
"547 -9 OFFCURVE",
"682 131 OFFCURVE",
"682 342 CURVE SMOOTH",
"682 541 OFFCURVE",
"557 678 OFFCURVE",
"365 690 CURVE",
"105 691 LINE",
"105 651 LINE",
"356 651 LINE",
"532 641 OFFCURVE",
"639 523 OFFCURVE",
"639 339 CURVE SMOOTH",
"639 143 OFFCURVE",
"516 30 OFFCURVE",
"301 30 CURVE SMOOTH",
"256 30 OFFCURVE",
"167 35 OFFCURVE",
"147 35 CURVE",
"147 655 LINE",
"105 655 LINE",
"105 0 LINE",
"146 -3 LINE SMOOTH",
"214 -8 OFFCURVE",
"226 -9 OFFCURVE",
"282 -9 CURVE SMOOTH"
);
}
);
width = 744;
}
);
leftKerningGroup = L;
rightKerningGroup = O;
userData = {
position = 674;
width = 60;
};
},
{
glyphname = D.swsh;
lastChange = "2019-10-24 18:31:25 +0000";
layers = (
{
anchors = (
{
name = bottom;
position = "{407, 0}";
},
{
name = center;
position = "{428, 0}";
},
{
name = top;
position = "{428, 0}";
}
);
hints = (
{
origin = "{0, 7}";
type = Corner;
name = _corner.caps_swash;
}
);
layerId = "873CAA12-270D-4223-A88E-AE8E101FDBE8";
paths = (
{
closed = 1;
nodes = (
"397 -10 LINE SMOOTH",
"602 -10 OFFCURVE",
"744 136 OFFCURVE",
"744 341 CURVE SMOOTH",
"744 533 OFFCURVE",
"620 689 OFFCURVE",
"427 689 CURVE",
"143 690 LINE",
"143 634 LINE",
"417 634 LINE",
"573 634 OFFCURVE",
"684 524 OFFCURVE",
"684 336 CURVE SMOOTH",
"684 157 OFFCURVE",
"583 45 OFFCURVE",
"357 45 CURVE SMOOTH",
"320 45 OFFCURVE",
"268 48 OFFCURVE",
"224 50 CURVE",
"224 575 LINE",
"164 575 LINE",
"164 0 LINE",
"211 -4 LINE SMOOTH",
"294 -11 OFFCURVE",
"300 -10 OFFCURVE",
"345 -10 CURVE SMOOTH"
);
}
);
width = 800;
},
{
anchors = (
{
name = bottom;
position = "{409, 0}";
},
{
name = center;
position = "{434, 11}";
},
{
name = top;
position = "{434, 11}";
}
);
hints = (
{
origin = "{0, 7}";
type = Corner;
name = _corner.caps_swash;
}
);
layerId = "0CAF3BED-C4AC-4024-B3E1-4C69D1EF7EC0";
paths = (
{
closed = 1;
nodes = (
"403 -10 LINE SMOOTH",
"607 -10 OFFCURVE",
"752 138 OFFCURVE",
"752 342 CURVE SMOOTH",
"752 532 OFFCURVE",
"625 678 OFFCURVE",
"433 690 CURVE",
"147 691 LINE",
"147 615 LINE",
"422 615 LINE",
"567 606 OFFCURVE",
"670 517 OFFCURVE",
"670 342 CURVE SMOOTH",
"670 175 OFFCURVE",
"577 66 OFFCURVE",
"365 66 CURVE SMOOTH",
"332 66 OFFCURVE",
"290 69 OFFCURVE",
"248 71 CURVE",
"248 569 LINE",
"166 569 LINE",
"166 1 LINE",
"223 -4 LINE SMOOTH",
"304 -11 OFFCURVE",
"307 -10 OFFCURVE",
"353 -10 CURVE SMOOTH"
);
}
);
width = 805;
},
{
anchors = (
{
name = bottom;
position = "{418, 0}";
},
{
name = center;
position = "{436, -8}";
},
{
name = top;
position = "{436, -8}";
}
);
hints = (
{
origin = "{0, 7}";
type = Corner;
name = _corner.caps_swash;
}
);
layerId = "49C16FD3-6177-408B-A733-AEB3898BB77C";
paths = (
{
closed = 1;
nodes = (
"415 -9 LINE SMOOTH",
"603 -9 OFFCURVE",
"752 122 OFFCURVE",
"752 342 CURVE SMOOTH",
"752 535 OFFCURVE",
"637 690 OFFCURVE",
"435 690 CURVE",
"144 691 LINE",
"144 651 LINE",
"425 651 LINE",
"588 651 OFFCURVE",
"710 535 OFFCURVE",
"710 349 CURVE SMOOTH",
"710 161 OFFCURVE",
"601 30 OFFCURVE",
"387 30 CURVE SMOOTH",
"346 30 OFFCURVE",
"257 33 OFFCURVE",
"216 35 CURVE",
"216 573 LINE",
"174 573 LINE",
"174 0 LINE",
"214 -3 LINE SMOOTH",
"299 -9 OFFCURVE",
"308 -9 OFFCURVE",
"351 -9 CURVE SMOOTH"
);
}
);
width = 814;
}
);
leftKerningGroup = Swash;
rightKerningGroup = O;
userData = {
position = 674;
width = 60;
};
},
{
glyphname = E;
lastChange = "2019-11-08 13:48:10 +0000";
layers = (
{
anchors = (
{
name = bottom;
position = "{380, 0}";
},
{
name = ogonek;
position = "{588, 0}";
},
{
name = top;
position = "{369, 684}";
},
{
name = topleft;
position = "{32, 684}";
}
);
background = {
paths = (
{
closed = 1;
nodes = (
"598 0 LINE",
"598 56 LINE",
"210 56 LINE",
"210 334 LINE",
"478 334 LINE",
"478 390 LINE",
"210 390 LINE",
"210 628 LINE",
"598 628 LINE",
"598 684 LINE",
"137 684 LINE SMOOTH",
"107 684 OFFCURVE",
"83 671 OFFCURVE",
"64 652 CURVE SMOOTH",
"45 633 OFFCURVE",
"34 608 OFFCURVE",
"34 579 CURVE",
"90 579 LINE",
"90 592 OFFCURVE",
"96 606 OFFCURVE",
"104 614 CURVE SMOOTH",
"114 624 OFFCURVE",
"124 628 OFFCURVE",
"150 628 CURVE",
"150 0 LINE"
);
}
);
};
hints = (
{
origin = "{0, 10}";
type = Corner;
name = _corner.caps_left;
}
);
layerId = "873CAA12-270D-4223-A88E-AE8E101FDBE8";
paths = (
{
closed = 1;
nodes = (
"588 0 LINE",
"588 56 LINE",
"210 56 LINE",
"210 334 LINE",
"468 334 LINE",
"468 390 LINE",
"210 390 LINE",
"210 628 LINE",
"588 628 LINE",
"588 684 LINE",
"150 684 LINE",
"150 0 LINE"
);
}
);
width = 634;
},
{
anchors = (
{
name = bottom;
position = "{391, 11}";
},
{
name = ogonek;
position = "{604, -1}";
},
{
name = top;
position = "{381, 684}";
},
{
name = topleft;
position = "{40, 684}";
}
);
hints = (
{
origin = "{0, 10}";
type = Corner;
name = _corner.caps_left;
}
);
layerId = "0CAF3BED-C4AC-4024-B3E1-4C69D1EF7EC0";
paths = (
{
closed = 1;
nodes = (
"604 -1 LINE",
"604 75 LINE",
"238 75 LINE",
"238 325 LINE",
"488 325 LINE",
"488 401 LINE",
"238 401 LINE",
"238 610 LINE",
"604 610 LINE",
"604 686 LINE",
"156 686 LINE",
"156 -1 LINE"
);
}
);
width = 651;
},
{
anchors = (
{
name = bottom;
position = "{369, -8}";
},
{
name = ogonek;
position = "{571, 1}";
},
{
name = top;
position = "{358, 693}";
},
{
name = topleft;
position = "{40, 684}";
}
);
hints = (
{
origin = "{0, 10}";
type = Corner;
name = _corner.caps_left;
}
);
layerId = "49C16FD3-6177-408B-A733-AEB3898BB77C";
paths = (
{
closed = 1;
nodes = (
"571 1 LINE",
"571 41 LINE",
"185 41 LINE",
"185 344 LINE",
"448 344 LINE",
"448 384 LINE",
"185 384 LINE",
"185 645 LINE",
"571 645 LINE",
"571 685 LINE",
"143 684 LINE",
"143 1 LINE"
);
}
);
width = 619;
}
);
leftKerningGroup = E;
rightKerningGroup = E;
unicode = 0045;
userData = {
position = 130;
width = 61;
};
},
{
glyphname = E.ss01;
lastChange = "2019-11-08 13:48:23 +0000";
layers = (
{
anchors = (
{
name = bottom;
position = "{348, 0}";
},
{
name = ogonek;
position = "{558, 0}";
},
{
name = top;
position = "{343, 684}";
},
{
name = topleft;
position = "{34, 684}";
}
);
layerId = "873CAA12-270D-4223-A88E-AE8E101FDBE8";
paths = (
{
closed = 1;
nodes = (
"558 0 LINE",
"558 56 LINE",
"159 56 LINE",
"159 334 LINE",
"438 334 LINE",
"438 390 LINE",
"159 390 LINE",
"159 628 LINE",
"538 628 LINE",
"538 684 LINE",
"99 684 LINE",
"99 0 LINE"
);
}
);
width = 599;
},
{
anchors = (
{
name = bottom;
position = "{333, 0}";
},
{
name = ogonek;
position = "{564, -1}";
},
{
name = top;
position = "{335, 685}";
},
{
name = topleft;
position = "{31, 684}";
}
);
layerId = "0CAF3BED-C4AC-4024-B3E1-4C69D1EF7EC0";
paths = (
{
closed = 1;
nodes = (
"564 -1 LINE",
"564 75 LINE",
"177 75 LINE",
"177 325 LINE",
"448 325 LINE",
"448 401 LINE",
"177 401 LINE",
"177 610 LINE",
"545 610 LINE",
"545 686 LINE",
"97 686 LINE",
"97 -1 LINE"
);
}
);
width = 607;
},
{
anchors = (
{
name = bottom;
position = "{301, -7}";
},
{
name = ogonek;
position = "{556, 1}";
},
{
name = top;
position = "{348, 687}";
},
{
name = topleft;
position = "{38, 684}";
}
);
layerId = "49C16FD3-6177-408B-A733-AEB3898BB77C";
paths = (
{
closed = 1;
nodes = (
"556 1 LINE",
"556 41 LINE",
"146 41 LINE",
"146 344 LINE",
"433 344 LINE",
"433 384 LINE",
"146 384 LINE",
"146 645 LINE",
"536 645 LINE",
"536 685 LINE",
"104 685 LINE",
"104 1 LINE"
);
}
);
width = 600;
}
);
leftKerningGroup = L;
rightKerningGroup = E;
userData = {
position = 95;
width = 61;
};
},
{
glyphname = E.swsh;
lastChange = "2019-10-24 18:31:39 +0000";
layers = (
{
anchors = (
{
name = bottom;
position = "{350, 0}";
},
{
name = ogonek;
position = "{604, 0}";
},
{
name = top;
position = "{350, 0}";
},
{
name = topleft;
position = "{33, 684}";
}
);
hints = (
{
origin = "{1, 3}";
type = Corner;
name = _corner.caps_swash;
}
);
layerId = "873CAA12-270D-4223-A88E-AE8E101FDBE8";
paths = (
{
closed = 1;
nodes = (
"594 0 LINE",
"594 56 LINE",
"216 56 LINE",
"216 334 LINE",
"474 334 LINE",
"474 390 LINE",
"216 390 LINE",
"216 572 LINE",
"156 572 LINE",
"156 0 LINE"
);
},
{
closed = 1;
nodes = (
"143 628 LINE",
"594 628 LINE",
"594 684 LINE",
"143 684 LINE"
);
}
);
width = 640;
},
{
anchors = (
{
name = bottom;
position = "{367, 11}";
},
{
name = ogonek;
position = "{625, -1}";
},
{
name = top;
position = "{367, 11}";
},
{
name = topleft;
position = "{38, 684}";
}
);
hints = (
{
origin = "{1, 3}";
type = Corner;
name = _corner.caps_swash;
}
);
layerId = "0CAF3BED-C4AC-4024-B3E1-4C69D1EF7EC0";
paths = (
{
closed = 1;
nodes = (
"615 0 LINE",
"615 76 LINE",
"249 76 LINE",
"249 325 LINE",
"499 325 LINE",
"499 401 LINE",
"249 401 LINE",
"249 569 LINE",
"167 569 LINE",
"167 0 LINE"
);
},
{
closed = 1;
nodes = (
"147 609 LINE",
"615 609 LINE",
"615 685 LINE",
"147 685 LINE"
);
}
);
width = 663;
},
{
anchors = (
{
name = bottom;
position = "{363, -15}";
},
{
name = ogonek;
position = "{607, 1}";
},
{
name = top;
position = "{363, -15}";
},
{
name = topleft;
position = "{56, 684}";
}
);
hints = (
{
origin = "{1, 3}";
type = Corner;
name = _corner.caps_swash;
}
);
layerId = "49C16FD3-6177-408B-A733-AEB3898BB77C";
paths = (
{
closed = 1;
nodes = (
"597 0 LINE",
"597 40 LINE",
"208 40 LINE",
"208 344 LINE",
"474 344 LINE",
"474 384 LINE",
"208 384 LINE",
"208 570 LINE",
"166 570 LINE",
"166 0 LINE"
);
},
{
closed = 1;
nodes = (
"144 644 LINE",
"597 644 LINE",
"597 684 LINE",
"144 684 LINE"
);
}
);
width = 644;
}
);
leftKerningGroup = Swash;
rightKerningGroup = E;
userData = {
position = 130;
width = 61;
};
},
{
glyphname = F;
lastChange = "2019-10-24 18:32:11 +0000";
layers = (
{
anchors = (
{
name = bottom;
position = "{317, 0}";
},
{
name = top;
position = "{317, 684}";
}
);
hints = (
{
origin = "{0, 8}";
type = Corner;
name = _corner.caps_left;
}
);
layerId = "873CAA12-270D-4223-A88E-AE8E101FDBE8";
paths = (
{
closed = 1;
nodes = (
"210 -1 LINE",
"210 333 LINE",
"468 333 LINE",
"468 389 LINE",
"210 389 LINE",
"210 627 LINE",
"588 627 LINE",
"588 683 LINE",
"150 683 LINE",
"150 -1 LINE"
);
}
);
width = 622;
},
{
anchors = (
{
name = bottom;
position = "{330, 0}";
},
{
name = top;
position = "{330, 684}";
}
);
hints = (
{
origin = "{0, 8}";
type = Corner;
name = _corner.caps_left;
}
);
layerId = "0CAF3BED-C4AC-4024-B3E1-4C69D1EF7EC0";
paths = (
{
closed = 1;
nodes = (
"238 -1 LINE",
"238 323 LINE",
"488 323 LINE",
"488 400 LINE",
"238 400 LINE",
"238 609 LINE",
"604 609 LINE",
"604 685 LINE",
"155 685 LINE",
"156 -1 LINE"
);
}
);
width = 638;
},
{
anchors = (
{
name = bottom;
position = "{302, 0}";
},
{
name = top;
position = "{302, 684}";
}
);
hints = (
{
origin = "{0, 8}";
type = Corner;
name = _corner.caps_left;
}
);
layerId = "49C16FD3-6177-408B-A733-AEB3898BB77C";
paths = (
{
closed = 1;
nodes = (
"184 0 LINE",
"184 343 LINE",
"450 343 LINE",
"450 383 LINE",
"184 383 LINE",
"184 644 LINE",
"572 644 LINE",
"572 684 LINE",
"142 684 LINE",
"142 0 LINE"
);
}
);
width = 609;
}
);
leftKerningGroup = E;
rightKerningGroup = F;
unicode = 0046;
userData = {
position = 129;
width = 61;
};
},
{
glyphname = F.ss01;
lastChange = "2019-10-24 18:16:34 +0000";
layers = (
{
anchors = (
{
name = bottom;
position = "{292, 0}";
},
{
name = top;
position = "{292, 684}";
}
);
layerId = "873CAA12-270D-4223-A88E-AE8E101FDBE8";
paths = (
{
closed = 1;
nodes = (
"160 0 LINE",
"160 325 LINE",
"447 325 LINE",
"447 382 LINE",
"160 382 LINE",
"160 627 LINE",
"537 627 LINE",
"537 684 LINE",
"99 684 LINE",
"99 0 LINE"
);
}
);
width = 571;
},
{
anchors = (
{
name = bottom;
position = "{296, 0}";
},
{
name = top;
position = "{296, 684}";
}
);
layerId = "0CAF3BED-C4AC-4024-B3E1-4C69D1EF7EC0";
paths = (
{
closed = 1;
nodes = (
"179 -1 LINE",
"179 315 LINE",
"457 315 LINE",
"457 393 LINE",
"179 393 LINE",
"179 608 LINE",
"545 608 LINE",
"545 686 LINE",
"97 686 LINE",
"97 -1 LINE"
);
}
);
width = 579;
},
{
anchors = (
{
name = bottom;
position = "{284, 0}";
},
{
name = top;
position = "{284, 684}";
}
);
layerId = "49C16FD3-6177-408B-A733-AEB3898BB77C";
paths = (
{
closed = 1;
nodes = (
"149 1 LINE",
"149 335 LINE",
"444 335 LINE",
"444 374 LINE",
"149 374 LINE",
"149 644 LINE",
"536 644 LINE",
"536 685 LINE",
"104 685 LINE",
"104 1 LINE"
);
}
);
width = 573;
}
);
leftKerningGroup = L;
rightKerningGroup = F;
userData = {
position = 95;
width = 61;
};
},
{
glyphname = F.swsh;
lastChange = "2019-10-24 18:32:42 +0000";
layers = (
{
hints = (
{
origin = "{1, 3}";
type = Corner;
name = _corner.caps_swash;
}
);
layerId = "873CAA12-270D-4223-A88E-AE8E101FDBE8";
paths = (
{
closed = 1;
nodes = (
"217 -1 LINE",
"217 333 LINE",
"474 333 LINE",
"474 389 LINE",
"217 389 LINE",
"217 569 LINE",
"156 569 LINE",
"156 -1 LINE"
);
},
{
closed = 1;
nodes = (
"143 627 LINE",
"594 627 LINE",
"594 683 LINE",
"143 683 LINE"
);
}
);
width = 628;
},
{
hints = (
{
origin = "{1, 3}";
type = Corner;
name = _corner.caps_swash;
}
);
layerId = "0CAF3BED-C4AC-4024-B3E1-4C69D1EF7EC0";
paths = (
{
closed = 1;
nodes = (
"250 -1 LINE",
"250 324 LINE",
"499 324 LINE",
"499 400 LINE",
"250 400 LINE",
"250 569 LINE",
"167 569 LINE",
"167 -1 LINE"
);
},
{
closed = 1;
nodes = (
"147 608 LINE",
"615 608 LINE",
"615 684 LINE",
"147 684 LINE"
);
}
);
width = 649;
},
{
hints = (
{
origin = "{1, 3}";
type = Corner;
name = _corner.caps_swash;
}
);
layerId = "49C16FD3-6177-408B-A733-AEB3898BB77C";
paths = (
{
closed = 1;
nodes = (
"208 0 LINE",
"208 343 LINE",
"474 343 LINE",
"474 383 LINE",
"208 383 LINE",
"208 569 LINE",
"166 569 LINE",
"166 0 LINE"
);
},
{
closed = 1;
nodes = (
"144 644 LINE",
"597 644 LINE",
"597 684 LINE",
"144 684 LINE"
);
}
);
width = 634;
}
);
leftKerningGroup = E.swsh;
rightKerningGroup = F;
userData = {
position = 129;
width = 61;
};
},
{
glyphname = G;
lastChange = "2019-10-24 18:14:08 +0000";
layers = (
{
anchors = (
{
name = bottom;
position = "{387, -28}";
},
{
name = top;
position = "{391, 699}";
}
);
layerId = "873CAA12-270D-4223-A88E-AE8E101FDBE8";
paths = (
{
closed = 1;
nodes = (
"534 -21 OFFCURVE",
"675 91 OFFCURVE",
"675 261 CURVE",
"675 303 LINE",
"618 303 LINE",
"618 254 LINE",
"618 131 OFFCURVE",
"513 38 OFFCURVE",
"387 35 CURVE SMOOTH",
"236 32 OFFCURVE",
"116 172 OFFCURVE",
"116 328 CURVE SMOOTH",
"116 497 OFFCURVE",
"236 641 OFFCURVE",
"396 643 CURVE SMOOTH",
"458 644 OFFCURVE",
"572 622 OFFCURVE",
"572 555 CURVE SMOOTH",
"572 532 OFFCURVE",
"558 513 OFFCURVE",
"539 513 CURVE SMOOTH",
"533 513 OFFCURVE",
"521 516 OFFCURVE",
"516 521 CURVE",
"488 480 LINE",
"500 468 OFFCURVE",
"519 460 OFFCURVE",
"538 460 CURVE SMOOTH",
"588 460 OFFCURVE",
"626 499 OFFCURVE",
"626 555 CURVE SMOOTH",
"626 664 OFFCURVE",
"480 699 OFFCURVE",
"396 699 CURVE SMOOTH",
"199 699 OFFCURVE",
"56 529 OFFCURVE",
"56 329 CURVE SMOOTH",
"56 139 OFFCURVE",
"194 -21 OFFCURVE",
"387 -21 CURVE SMOOTH"
);
},
{
closed = 1;
nodes = (
"675 286 LINE",
"675 342 LINE",
"375 342 LINE",
"375 286 LINE"
);
}
);
width = 728;
},
{
anchors = (
{
name = bottom;
position = "{390, -16}";
},
{
name = top;
position = "{393, 684}";
}
);
layerId = "0CAF3BED-C4AC-4024-B3E1-4C69D1EF7EC0";
paths = (
{
closed = 1;
nodes = (
"541 -13 OFFCURVE",
"683 104 OFFCURVE",
"683 271 CURVE SMOOTH",
"683 319 LINE",
"600 319 LINE",
"601 269 LINE",
"599 150 OFFCURVE",
"504 63 OFFCURVE",
"390 63 CURVE SMOOTH",
"245 63 OFFCURVE",
"135 176 OFFCURVE",
"135 342 CURVE SMOOTH",
"135 497 OFFCURVE",
"245 620 OFFCURVE",
"399 620 CURVE SMOOTH",
"456 620 OFFCURVE",
"558 599 OFFCURVE",
"558 544 CURVE SMOOTH",
"558 530 OFFCURVE",
"551 518 OFFCURVE",
"537 517 CURVE SMOOTH",
"527 516 OFFCURVE",
"517 523 OFFCURVE",
"511 528 CURVE",
"465 471 LINE",
"483 452 OFFCURVE",
"511 442 OFFCURVE",
"536 442 CURVE SMOOTH",
"591 442 OFFCURVE",
"635 488 OFFCURVE",
"635 547 CURVE SMOOTH",
"635 656 OFFCURVE",
"481 696 OFFCURVE",
"398 696 CURVE SMOOTH",
"205 696 OFFCURVE",
"53 539 OFFCURVE",
"53 343 CURVE SMOOTH",
"53 141 OFFCURVE",
"196 -13 OFFCURVE",
"390 -13 CURVE SMOOTH"
);
},
{
closed = 1;
nodes = (
"683 280 LINE",
"683 356 LINE",
"364 356 LINE",
"364 280 LINE"
);
}
);
width = 734;
},
{
anchors = (
{
name = bottom;
position = "{392, -35}";
},
{
name = top;
position = "{402, 683}";
}
);
layerId = "49C16FD3-6177-408B-A733-AEB3898BB77C";
paths = (
{
closed = 1;
nodes = (
"537 -20 OFFCURVE",
"678 85 OFFCURVE",
"678 253 CURVE",
"678 296 LINE",
"636 296 LINE",
"636 251 LINE",
"636 124 OFFCURVE",
"523 20 OFFCURVE",
"392 20 CURVE SMOOTH",
"227 20 OFFCURVE",
"103 157 OFFCURVE",
"103 329 CURVE SMOOTH",
"103 504 OFFCURVE",
"232 658 OFFCURVE",
"402 658 CURVE SMOOTH",
"466 658 OFFCURVE",
"587 637 OFFCURVE",
"587 563 CURVE SMOOTH",
"587 537 OFFCURVE",
"570 514 OFFCURVE",
"547 514 CURVE SMOOTH",
"537 514 OFFCURVE",
"529 518 OFFCURVE",
"524 524 CURVE",
"498 491 LINE",
"506 482 OFFCURVE",
"524 473 OFFCURVE",
"546 473 CURVE SMOOTH",
"594 473 OFFCURVE",
"628 509 OFFCURVE",
"628 563 CURVE SMOOTH",
"628 669 OFFCURVE",
"486 698 OFFCURVE",
"401 698 CURVE SMOOTH",
"203 698 OFFCURVE",
"61 531 OFFCURVE",
"61 330 CURVE SMOOTH",
"61 138 OFFCURVE",
"198 -20 OFFCURVE",
"392 -20 CURVE SMOOTH"
);
},
{
closed = 1;
nodes = (
"678 293 LINE",
"678 335 LINE",
"387 335 LINE",
"387 293 LINE"
);
}
);
width = 735;
}
);
leftKerningGroup = O;
rightKerningGroup = O;
unicode = 0047;
userData = {
position = 593;
width = 57;
};
},
{
glyphname = G.ss01;
lastChange = "2019-10-24 18:16:34 +0000";
layers = (
{
anchors = (
{
name = bottom;
position = "{388, -28}";
},
{
name = top;
position = "{403, 684}";
}
);
layerId = "873CAA12-270D-4223-A88E-AE8E101FDBE8";
paths = (
{
closed = 1;
nodes = (
"542 -11 OFFCURVE",
"677 103 OFFCURVE",
"677 276 CURVE SMOOTH",
"677 352 LINE",
"620 352 LINE",
"620 264 LINE SMOOTH",
"620 139 OFFCURVE",
"507 45 OFFCURVE",
"391 45 CURVE SMOOTH",
"215 45 OFFCURVE",
"117 160 OFFCURVE",
"117 330 CURVE SMOOTH",
"117 501 OFFCURVE",
"238 641 OFFCURVE",
"401 641 CURVE SMOOTH",
"470 641 OFFCURVE",
"574 611 OFFCURVE",
"574 545 CURVE",
"628 546 LINE",
"628 642 OFFCURVE",
"509 697 OFFCURVE",
"403 697 CURVE SMOOTH",
"208 697 OFFCURVE",
"57 538 OFFCURVE",
"57 330 CURVE SMOOTH",
"57 127 OFFCURVE",
"180 -11 OFFCURVE",
"387 -11 CURVE SMOOTH"
);
},
{
closed = 1;
nodes = (
"677 296 LINE",
"677 352 LINE",
"377 352 LINE",
"377 296 LINE"
);
}
);
width = 728;
},
{
anchors = (
{
name = bottom;
position = "{387, 0}";
},
{
name = top;
position = "{401, 684}";
}
);
layerId = "0CAF3BED-C4AC-4024-B3E1-4C69D1EF7EC0";
paths = (
{
closed = 1;
nodes = (
"540 -11 OFFCURVE",
"679 106 OFFCURVE",
"679 279 CURVE SMOOTH",
"679 363 LINE",
"600 363 LINE",
"600 268 LINE SMOOTH",
"600 154 OFFCURVE",
"494 65 OFFCURVE",
"388 65 CURVE SMOOTH",
"213 65 OFFCURVE",
"136 193 OFFCURVE",
"136 331 CURVE SMOOTH",
"136 481 OFFCURVE",
"248 618 OFFCURVE",
"399 618 CURVE SMOOTH",
"468 618 OFFCURVE",
"561 587 OFFCURVE",
"561 522 CURVE",
"636 523 LINE",
"640 631 OFFCURVE",
"510 694 OFFCURVE",
"401 694 CURVE SMOOTH",
"195 694 OFFCURVE",
"54 533 OFFCURVE",
"54 332 CURVE SMOOTH",
"54 148 OFFCURVE",
"169 -11 OFFCURVE",
"386 -11 CURVE SMOOTH"
);
},
{
closed = 1;
nodes = (
"679 287 LINE",
"679 363 LINE",
"364 363 LINE",
"364 287 LINE"
);
}
);
width = 730;
},
{
anchors = (
{
name = bottom;
position = "{386, 0}";
},
{
name = top;
position = "{401, 684}";
}
);
layerId = "49C16FD3-6177-408B-A733-AEB3898BB77C";
paths = (
{
closed = 1;
nodes = (
"542 -15 OFFCURVE",
"675 97 OFFCURVE",
"675 285 CURVE SMOOTH",
"675 343 LINE",
"633 343 LINE",
"633 273 LINE SMOOTH",
"633 127 OFFCURVE",
"512 25 OFFCURVE",
"391 25 CURVE SMOOTH",
"209 25 OFFCURVE",
"104 154 OFFCURVE",
"104 331 CURVE SMOOTH",
"104 508 OFFCURVE",
"231 656 OFFCURVE",
"401 656 CURVE SMOOTH",
"470 656 OFFCURVE",
"577 625 OFFCURVE",
"584 557 CURVE",
"625 558 LINE",
"619 647 OFFCURVE",
"507 696 OFFCURVE",
"403 696 CURVE SMOOTH",
"207 696 OFFCURVE",
"62 537 OFFCURVE",
"62 332 CURVE SMOOTH",
"62 131 OFFCURVE",
"179 -15 OFFCURVE",
"387 -15 CURVE SMOOTH"
);
},
{
closed = 1;
nodes = (
"675 303 LINE",
"675 343 LINE",
"384 343 LINE",
"384 303 LINE"
);
}
);
width = 730;
}
);
leftKerningGroup = O;
rightKerningGroup = O;
userData = {
position = 593;
width = 57;
};
},
{
glyphname = G.swsh;
lastChange = "2019-10-24 18:16:34 +0000";
layers = (
{
anchors = (
{
name = bottom;
position = "{391, 0}";
},
{
name = top;
position = "{400, 696}";
}
);
layerId = "873CAA12-270D-4223-A88E-AE8E101FDBE8";
paths = (
{
closed = 1;
nodes = (
"629 -263 OFFCURVE",
"680 -231 OFFCURVE",
"680 -168 CURVE SMOOTH",
"680 315 LINE",
"620 315 LINE",
"620 234 LINE",
"604 127 OFFCURVE",
"516 40 OFFCURVE",
"391 40 CURVE SMOOTH",
"235 40 OFFCURVE",
"116 173 OFFCURVE",
"116 341 CURVE SMOOTH",
"116 506 OFFCURVE",
"231 645 OFFCURVE",
"398 645 CURVE SMOOTH",
"464 645 OFFCURVE",
"574 623 OFFCURVE",
"574 558 CURVE SMOOTH",
"574 536 OFFCURVE",
"561 519 OFFCURVE",
"543 519 CURVE SMOOTH",
"537 519 OFFCURVE",
"530 521 OFFCURVE",
"522 527 CURVE",
"485 481 LINE",
"502 468 OFFCURVE",
"522 461 OFFCURVE",
"542 461 CURVE SMOOTH",
"594 461 OFFCURVE",
"632 502 OFFCURVE",
"632 558 CURVE SMOOTH",
"632 669 OFFCURVE",
"484 701 OFFCURVE",
"397 701 CURVE SMOOTH",
"203 701 OFFCURVE",
"56 543 OFFCURVE",
"56 341 CURVE SMOOTH",
"56 143 OFFCURVE",
"198 -16 OFFCURVE",
"387 -16 CURVE SMOOTH",
"488 -16 OFFCURVE",
"574 29 OFFCURVE",
"620 106 CURVE",
"620 -168 LINE",
"620 -185 OFFCURVE",
"608 -201 OFFCURVE",
"586 -201 CURVE SMOOTH",
"573 -201 OFFCURVE",
"564 -195 OFFCURVE",
"559 -185 CURVE",
"507 -219 LINE",
"524 -246 OFFCURVE",
"553 -263 OFFCURVE",
"585 -263 CURVE SMOOTH"
);
}
);
width = 746;
},
{
anchors = (
{
name = bottom;
position = "{393, -16}";
},
{
name = top;
position = "{396, 689}";
}
);
layerId = "0CAF3BED-C4AC-4024-B3E1-4C69D1EF7EC0";
paths = (
{
closed = 1;
nodes = (
"626 -263 OFFCURVE",
"685 -228 OFFCURVE",
"685 -162 CURVE SMOOTH",
"685 317 LINE",
"605 317 LINE",
"605 229 LINE",
"590 126 OFFCURVE",
"508 45 OFFCURVE",
"392 45 CURVE SMOOTH",
"246 45 OFFCURVE",
"136 174 OFFCURVE",
"136 334 CURVE SMOOTH",
"136 486 OFFCURVE",
"234 627 OFFCURVE",
"397 627 CURVE SMOOTH",
"460 627 OFFCURVE",
"560 606 OFFCURVE",
"560 552 CURVE SMOOTH",
"560 536 OFFCURVE",
"551 524 OFFCURVE",
"540 524 CURVE SMOOTH",
"534 524 OFFCURVE",
"528 524 OFFCURVE",
"515 533 CURVE",
"471 478 LINE",
"488 460 OFFCURVE",
"515 449 OFFCURVE",
"539 449 CURVE SMOOTH",
"592 449 OFFCURVE",
"636 493 OFFCURVE",
"636 554 CURVE SMOOTH",
"636 666 OFFCURVE",
"491 703 OFFCURVE",
"397 703 CURVE SMOOTH",
"195 703 OFFCURVE",
"54 533 OFFCURVE",
"54 335 CURVE SMOOTH",
"54 134 OFFCURVE",
"201 -31 OFFCURVE",
"384 -31 CURVE SMOOTH",
"477 -31 OFFCURVE",
"561 11 OFFCURVE",
"605 81 CURVE",
"605 -161 LINE",
"605 -174 OFFCURVE",
"595 -183 OFFCURVE",
"582 -183 CURVE SMOOTH",
"569 -183 OFFCURVE",
"563 -178 OFFCURVE",
"556 -165 CURVE",
"493 -208 LINE",
"508 -240 OFFCURVE",
"544 -263 OFFCURVE",
"581 -263 CURVE SMOOTH"
);
}
);
width = 749;
},
{
anchors = (
{
name = bottom;
position = "{393, 0}";
},
{
name = top;
position = "{402, 684}";
}
);
layerId = "49C16FD3-6177-408B-A733-AEB3898BB77C";
paths = (
{
closed = 1;
nodes = (
"632 -275 OFFCURVE",
"677 -247 OFFCURVE",
"677 -188 CURVE SMOOTH",
"677 296 LINE",
"635 296 LINE",
"635 231 LINE",
"617 118 OFFCURVE",
"524 19 OFFCURVE",
"389 19 CURVE SMOOTH",
"229 19 OFFCURVE",
"103 157 OFFCURVE",
"103 331 CURVE SMOOTH",
"103 504 OFFCURVE",
"226 661 OFFCURVE",
"399 661 CURVE SMOOTH",
"467 661 OFFCURVE",
"588 637 OFFCURVE",
"588 563 CURVE SMOOTH",
"588 537 OFFCURVE",
"571 514 OFFCURVE",
"548 514 CURVE SMOOTH",
"542 514 OFFCURVE",
"535 516 OFFCURVE",
"528 519 CURVE",
"502 486 LINE",
"516 477 OFFCURVE",
"531 473 OFFCURVE",
"547 473 CURVE SMOOTH",
"595 473 OFFCURVE",
"629 509 OFFCURVE",
"629 562 CURVE SMOOTH",
"629 670 OFFCURVE",
"485 701 OFFCURVE",
"402 701 CURVE SMOOTH",
"204 701 OFFCURVE",
"61 530 OFFCURVE",
"61 333 CURVE SMOOTH",
"61 137 OFFCURVE",
"202 -21 OFFCURVE",
"385 -21 CURVE SMOOTH",
"490 -21 OFFCURVE",
"597 31 OFFCURVE",
"635 124 CURVE",
"635 -188 LINE",
"633 -207 OFFCURVE",
"619 -229 OFFCURVE",
"592 -229 CURVE SMOOTH",
"579 -229 OFFCURVE",
"569 -224 OFFCURVE",
"562 -217 CURVE",
"524 -242 LINE",
"540 -263 OFFCURVE",
"563 -275 OFFCURVE",
"591 -275 CURVE SMOOTH"
);
}
);
width = 745;
}
);
leftKerningGroup = O;
rightKerningGroup = j;
userData = {
position = 593;
width = 57;
};
},
{
glyphname = H;
lastChange = "2019-10-24 18:23:27 +0000";
layers = (
{
anchors = (
{
name = bottom;
position = "{360, 0}";
},
{
name = center;
position = "{399, 500}";
},
{
name = top;
position = "{389, 684}";
},
{
name = topleft;
position = "{27, 684}";
}
);
hints = (
{
origin = "{0, 9}";
type = Corner;
name = _corner.caps_vert;
}
);
layerId = "873CAA12-270D-4223-A88E-AE8E101FDBE8";
paths = (
{
closed = 1;
nodes = (
"196 0 LINE",
"196 328 LINE",
"565 328 LINE",
"565 0 LINE",
"625 0 LINE",
"625 684 LINE",
"565 684 LINE",
"565 384 LINE",
"196 384 LINE",
"196 569 LINE",
"136 569 LINE",
"136 0 LINE"
);
}
);
width = 724;
},
{
anchors = (
{
name = bottom;
position = "{359, 0}";
},
{
name = center;
position = "{382, 500}";
},
{
name = top;
position = "{389, 675}";
},
{
name = topleft;
position = "{22, 684}";
}
);
hints = (
{
origin = "{0, 9}";
type = Corner;
name = _corner.caps_vert;
}
);
layerId = "0CAF3BED-C4AC-4024-B3E1-4C69D1EF7EC0";
paths = (
{
closed = 1;
nodes = (
"213 -1 LINE",
"213 319 LINE",
"548 319 LINE",
"548 -1 LINE",
"630 -1 LINE",
"630 686 LINE",
"548 686 LINE",
"548 395 LINE",
"213 395 LINE",
"213 569 LINE",
"131 568 LINE",
"131 -1 LINE"
);
}
);
width = 727;
},
{
anchors = (
{
name = bottom;
position = "{376, 0}";
},
{
name = center;
position = "{379, 491}";
},
{
name = top;
position = "{376, 684}";
},
{
name = topleft;
position = "{46, 684}";
}
);
hints = (
{
origin = "{0, 9}";
type = Corner;
name = _corner.caps_vert;
}
);
layerId = "49C16FD3-6177-408B-A733-AEB3898BB77C";
paths = (
{
closed = 1;
nodes = (
"180 1 LINE",
"180 338 LINE",
"575 338 LINE",
"575 1 LINE",
"617 1 LINE",
"617 685 LINE",
"575 685 LINE",
"575 378 LINE",
"180 378 LINE",
"180 569 LINE",
"138 569 LINE",
"138 1 LINE"
);
}
);
width = 721;
}
);
leftKerningGroup = E;
unicode = 0048;
userData = {
position = 554;
width = 61;
};
},
{
glyphname = H.ss01;
lastChange = "2019-10-24 18:16:34 +0000";
layers = (
{
anchors = (
{
name = bottom;
position = "{344, 0}";
},
{
name = center;
position = "{359, 513}";
},
{
name = top;
position = "{349, 684}";
},
{
name = topleft;
position = "{32, 684}";
}
);
layerId = "873CAA12-270D-4223-A88E-AE8E101FDBE8";
paths = (
{
closed = 1;
nodes = (
"159 0 LINE",
"159 328 LINE",
"528 328 LINE",
"528 0 LINE",
"588 0 LINE",
"588 684 LINE",
"528 684 LINE",
"528 384 LINE",
"159 384 LINE",
"159 684 LINE",
"99 684 LINE",
"99 0 LINE"
);
}
);
width = 687;
},
{
anchors = (
{
name = bottom;
position = "{347, 0}";
},
{
name = center;
position = "{336, 512}";
},
{
name = top;
position = "{334, 684}";
},
{
name = topleft;
position = "{27, 684}";
}
);
layerId = "0CAF3BED-C4AC-4024-B3E1-4C69D1EF7EC0";
paths = (
{
closed = 1;
nodes = (
"179 -1 LINE",
"179 317 LINE",
"514 317 LINE",
"514 -1 LINE",
"596 -1 LINE",
"596 686 LINE",
"514 686 LINE",
"514 395 LINE",
"179 395 LINE",
"179 686 LINE",
"97 686 LINE",
"97 -1 LINE"
);
}
);
width = 693;
},
{
anchors = (
{
name = bottom;
position = "{342, 0}";
},
{
name = center;
position = "{345, 500}";
},
{
name = top;
position = "{343, 684}";
},
{
name = topleft;
position = "{32, 684}";
}
);
layerId = "49C16FD3-6177-408B-A733-AEB3898BB77C";
paths = (
{
closed = 1;
nodes = (
"146 1 LINE",
"146 338 LINE",
"542 338 LINE",
"542 1 LINE",
"584 1 LINE",
"584 685 LINE",
"542 685 LINE",
"542 378 LINE",
"146 378 LINE",
"146 685 LINE",
"104 685 LINE",
"104 1 LINE"
);
}
);
width = 688;
}
);
userData = {
position = 525;
width = 61;
};
},
{
glyphname = H.swsh;
lastChange = "2019-10-24 18:33:17 +0000";
layers = (
{
anchors = (
{
name = bottom;
position = "{381, 0}";
},
{
name = center;
position = "{412, 355}";
},
{
name = top;
position = "{410, 684}";
},
{
name = topleft;
position = "{48, 684}";
},
{
name = topswash;
position = "{218, 500}";
}
);
hints = (
{
origin = "{0, 9}";
type = Corner;
name = _corner.caps_swash_vert;
}
);
layerId = "873CAA12-270D-4223-A88E-AE8E101FDBE8";
paths = (
{
closed = 1;
nodes = (
"217 0 LINE",
"217 328 LINE",
"586 328 LINE",
"586 0 LINE",
"646 0 LINE",
"646 684 LINE",
"586 684 LINE",
"586 384 LINE",
"217 384 LINE",
"217 569 LINE",
"157 569 LINE",
"157 0 LINE"
);
}
);
width = 745;
},
{
anchors = (
{
name = bottom;
position = "{379, 0}";
},
{
name = center;
position = "{402, 355}";
},
{
name = top;
position = "{409, 675}";
},
{
name = topleft;
position = "{42, 684}";
},
{
name = topswash;
position = "{231, 500}";
}
);
hints = (
{
origin = "{0, 9}";
type = Corner;
name = _corner.caps_swash_vert;
}
);
layerId = "0CAF3BED-C4AC-4024-B3E1-4C69D1EF7EC0";
paths = (
{
closed = 1;
nodes = (
"233 -1 LINE",
"233 317 LINE",
"568 317 LINE",
"568 -1 LINE",
"650 -1 LINE",
"650 686 LINE",
"568 686 LINE",
"568 395 LINE",
"233 395 LINE",
"233 569 LINE",
"151 569 LINE",
"151 -1 LINE"
);
}
);
width = 747;
},
{
anchors = (
{
name = bottom;
position = "{385, 0}";
},
{
name = center;
position = "{408, 356}";
},
{
name = top;
position = "{405, 694}";
},
{
name = topleft;
position = "{65, 684}";
},
{
name = topswash;
position = "{199, 500}";
}
);
hints = (
{
origin = "{0, 9}";
type = Corner;
name = _corner.caps_swash_vert;
}
);
layerId = "49C16FD3-6177-408B-A733-AEB3898BB77C";
paths = (
{
closed = 1;
nodes = (
"199 1 LINE",
"199 338 LINE",
"594 338 LINE",
"594 1 LINE",
"636 1 LINE",
"636 685 LINE",
"594 685 LINE",
"594 378 LINE",
"199 378 LINE",
"199 569 LINE",
"157 569 LINE",
"157 1 LINE"
);
}
);
width = 740;
}
);
leftKerningGroup = Swash;
userData = {
position = 554;
width = 61;
};
},
{
glyphname = I;
lastChange = "2019-10-24 18:14:08 +0000";
layers = (
{
anchors = (
{
name = bottom;
position = "{131, -1}";
},
{
name = center;
position = "{133, 386}";
},
{
name = ogonek;
position = "{161, 0}";
},
{
name = top;
position = "{128, 674}";
},
{
name = topleft;
position = "{34, 684}";
}
);
layerId = "873CAA12-270D-4223-A88E-AE8E101FDBE8";
paths = (
{
closed = 1;
nodes = (
"161 0 LINE",
"161 684 LINE",
"100 684 LINE",
"100 0 LINE"
);
}
);
width = 261;
},
{
anchors = (
{
name = bottom;
position = "{138, 0}";
},
{
name = center;
position = "{137, 386}";
},
{
name = ogonek;
position = "{179, -1}";
},
{
name = top;
position = "{136, 675}";
},
{
name = topleft;
position = "{31, 684}";
}
);
layerId = "0CAF3BED-C4AC-4024-B3E1-4C69D1EF7EC0";
paths = (
{
closed = 1;
nodes = (
"179 -1 LINE",
"179 686 LINE",
"97 686 LINE",
"97 -1 LINE"
);
}
);
width = 276;
},
{
anchors = (
{
name = bottom;
position = "{128, 0}";
},
{
name = center;
position = "{127, 386}";
},
{
name = ogonek;
position = "{150, 1}";
},
{
name = top;
position = "{125, 686}";
},
{
name = topleft;
position = "{39, 684}";
}
);
layerId = "49C16FD3-6177-408B-A733-AEB3898BB77C";
paths = (
{
closed = 1;
nodes = (
"150 1 LINE",
"150 685 LINE",
"105 685 LINE",
"105 1 LINE"
);
}
);
width = 255;
}
);
unicode = 0049;
userData = {
position = 54;
width = 61;
};
},
{
glyphname = I.swsh;
lastChange = "2019-10-24 18:34:28 +0000";
layers = (
{
anchors = (
{
name = bottom;
position = "{188, -1}";
},
{
name = center;
position = "{190, 386}";
},
{
name = ogonek;
position = "{218, 0}";
},
{
name = top;
position = "{185, 684}";
},
{
name = topleft;
position = "{91, 684}";
}
);
hints = (
{
origin = "{0, 1}";
type = Corner;
name = _corner.caps_swash_vert;
options = 1;
}
);
layerId = "873CAA12-270D-4223-A88E-AE8E101FDBE8";
paths = (
{
closed = 1;
nodes = (
"217 0 LINE",
"217 569 LINE",
"157 569 LINE",
"157 0 LINE"
);
}
);
width = 314;
},
{
anchors = (
{
name = bottom;
position = "{193, 0}";
},
{
name = center;
position = "{192, 386}";
},
{
name = ogonek;
position = "{234, -1}";
},
{
name = top;
position = "{194, 684}";
},
{
name = topleft;
position = "{86, 684}";
}
);
hints = (
{
origin = "{0, 1}";
type = Corner;
name = _corner.caps_swash_vert;
options = 1;
}
);
layerId = "0CAF3BED-C4AC-4024-B3E1-4C69D1EF7EC0";
paths = (
{
closed = 1;
nodes = (
"234 -1 LINE",
"234 569 LINE",
"152 569 LINE",
"152 -1 LINE"
);
}
);
width = 328;
},
{
anchors = (
{
name = bottom;
position = "{179, 0}";
},
{
name = center;
position = "{178, 386}";
},
{
name = ogonek;
position = "{202, 1}";
},
{
name = top;
position = "{176, 684}";
},
{
name = topleft;
position = "{88, 684}";
}
);
hints = (
{
origin = "{0, 1}";
type = Corner;
name = _corner.caps_swash_vert;
options = 1;
}
);
layerId = "49C16FD3-6177-408B-A733-AEB3898BB77C";
paths = (
{
closed = 1;
nodes = (
"198 1 LINE",
"198 576 LINE",
"156 576 LINE",
"156 1 LINE"
);
}
);
width = 301;
}
);
leftKerningGroup = Swash;
userData = {
position = 54;
width = 61;
};
},
{
glyphname = J;
lastChange = "2019-10-24 18:14:08 +0000";
layers = (
{
anchors = (
{
name = bottom;
position = "{239, 0}";
},
{
name = top;
position = "{259, 682}";
}
);
layerId = "873CAA12-270D-4223-A88E-AE8E101FDBE8";
paths = (
{
closed = 1;
nodes = (
"372 -7 OFFCURVE",
"425 89 OFFCURVE",
"425 188 CURVE SMOOTH",
"425 687 LINE",
"366 687 LINE",
"366 680 OFFCURVE",
"330 660 OFFCURVE",
"312 660 CURVE SMOOTH",
"298 660 OFFCURVE",
"282 662 OFFCURVE",
"259 672 CURVE SMOOTH",
"223 688 OFFCURVE",
"185 696 OFFCURVE",
"169 696 CURVE SMOOTH",
"143 696 OFFCURVE",
"124 691 OFFCURVE",
"65 667 CURVE",
"90 617 LINE",
"115 628 OFFCURVE",
"143 641 OFFCURVE",
"169 641 CURVE SMOOTH",
"189 641 OFFCURVE",
"207 633 OFFCURVE",
"226 625 CURVE SMOOTH",
"256 612 OFFCURVE",
"276 605 OFFCURVE",
"310 605 CURVE SMOOTH",
"329 605 OFFCURVE",
"349 608 OFFCURVE",
"365 618 CURVE",
"365 191 LINE SMOOTH",
"365 127 OFFCURVE",
"339 49 OFFCURVE",
"232 49 CURVE SMOOTH",
"145 49 OFFCURVE",
"100 99 OFFCURVE",
"100 171 CURVE",
"43 176 LINE",
"45 87 OFFCURVE",
"91 -7 OFFCURVE",
"229 -7 CURVE SMOOTH"
);
}
);
width = 516;
},
{
anchors = (
{
name = bottom;
position = "{249, 0}";
},
{
name = top;
position = "{249, 684}";
}
);
layerId = "0CAF3BED-C4AC-4024-B3E1-4C69D1EF7EC0";
paths = (
{
closed = 1;
nodes = (
"382 -7 OFFCURVE",
"438 94 OFFCURVE",
"438 193 CURVE SMOOTH",
"438 689 LINE",
"369 689 LINE",
"361 676 OFFCURVE",
"331 663 OFFCURVE",
"317 663 CURVE SMOOTH",
"305 663 OFFCURVE",
"291 664 OFFCURVE",
"269 673 CURVE SMOOTH",
"231 688 OFFCURVE",
"204 698 OFFCURVE",
"178 698 CURVE SMOOTH",
"150 698 OFFCURVE",
"128 692 OFFCURVE",
"61 664 CURVE",
"95 597 LINE",
"124 609 OFFCURVE",
"153 620 OFFCURVE",
"178 620 CURVE SMOOTH",
"193 620 OFFCURVE",
"207 615 OFFCURVE",
"223 609 CURVE SMOOTH",
"253 597 OFFCURVE",
"285 587 OFFCURVE",
"315 587 CURVE SMOOTH",
"328 587 OFFCURVE",
"343 589 OFFCURVE",
"356 594 CURVE",
"356 196 LINE SMOOTH",
"356 138 OFFCURVE",
"333 69 OFFCURVE",
"239 69 CURVE SMOOTH",
"157 69 OFFCURVE",
"118 118 OFFCURVE",
"122 188 CURVE",
"44 194 LINE",
"41 103 OFFCURVE",
"88 -7 OFFCURVE",
"236 -7 CURVE SMOOTH"
);
}
);
width = 526;
},
{
anchors = (
{
name = bottom;
position = "{241, 0}";
},
{
name = top;
position = "{242, 684}";
}
);
layerId = "49C16FD3-6177-408B-A733-AEB3898BB77C";
paths = (
{
closed = 1;
nodes = (
"364 -6 OFFCURVE",
"418 86 OFFCURVE",
"418 185 CURVE SMOOTH",
"418 688 LINE",
"371 688 LINE",
"362 672 OFFCURVE",
"334 660 OFFCURVE",
"312 660 CURVE SMOOTH",
"294 660 OFFCURVE",
"274 666 OFFCURVE",
"254 674 CURVE SMOOTH",
"211 691 OFFCURVE",
"181 697 OFFCURVE",
"166 697 CURVE SMOOTH",
"140 697 OFFCURVE",
"122 691 OFFCURVE",
"71 672 CURVE",
"89 636 LINE",
"112 644 OFFCURVE",
"137 658 OFFCURVE",
"166 658 CURVE SMOOTH",
"187 658 OFFCURVE",
"205 651 OFFCURVE",
"223 643 CURVE SMOOTH",
"253 630 OFFCURVE",
"277 621 OFFCURVE",
"310 621 CURVE SMOOTH",
"331 621 OFFCURVE",
"357 625 OFFCURVE",
"376 644 CURVE",
"376 188 LINE SMOOTH",
"376 121 OFFCURVE",
"346 34 OFFCURVE",
"230 34 CURVE SMOOTH",
"141 34 OFFCURVE",
"89 86 OFFCURVE",
"87 159 CURVE",
"46 163 LINE",
"51 76 OFFCURVE",
"97 -6 OFFCURVE",
"227 -6 CURVE SMOOTH"
);
}
);
width = 514;
}
);
leftKerningGroup = J;
rightKerningGroup = J;
unicode = 004A;
userData = {
position = 333;
width = 53;
};
},
{
glyphname = J.ss01;
lastChange = "2019-10-24 18:16:34 +0000";
layers = (
{
anchors = (
{
name = bottom;
position = "{238, 0}";
},
{
name = top;
position = "{384, 684}";
}
);
layerId = "873CAA12-270D-4223-A88E-AE8E101FDBE8";
paths = (
{
closed = 1;
nodes = (
"366 -7 OFFCURVE",
"419 94 OFFCURVE",
"419 193 CURVE SMOOTH",
"419 684 LINE",
"357 684 LINE",
"359 629 LINE",
"359 196 LINE SMOOTH",
"359 132 OFFCURVE",
"333 49 OFFCURVE",
"226 49 CURVE SMOOTH",
"139 49 OFFCURVE",
"94 99 OFFCURVE",
"94 171 CURVE",
"37 176 LINE",
"39 87 OFFCURVE",
"85 -7 OFFCURVE",
"223 -7 CURVE SMOOTH"
);
}
);
width = 509;
},
{
anchors = (
{
name = bottom;
position = "{241, 0}";
},
{
name = top;
position = "{387, 684}";
}
);
layerId = "0CAF3BED-C4AC-4024-B3E1-4C69D1EF7EC0";
paths = (
{
closed = 1;
nodes = (
"374 -9 OFFCURVE",
"430 97 OFFCURVE",
"430 196 CURVE SMOOTH",
"430 684 LINE",
"348 684 LINE",
"348 606 LINE",
"348 199 LINE SMOOTH",
"348 141 OFFCURVE",
"325 67 OFFCURVE",
"231 67 CURVE SMOOTH",
"149 67 OFFCURVE",
"110 116 OFFCURVE",
"114 186 CURVE",
"36 192 LINE",
"33 101 OFFCURVE",
"80 -9 OFFCURVE",
"228 -9 CURVE SMOOTH"
);
}
);
width = 517;
},
{
anchors = (
{
name = bottom;
position = "{238, 0}";
},
{
name = top;
position = "{393, 684}";
}
);
layerId = "49C16FD3-6177-408B-A733-AEB3898BB77C";
paths = (
{
closed = 1;
nodes = (
"362 -6 OFFCURVE",
"414 92 OFFCURVE",
"414 191 CURVE SMOOTH",
"414 685 LINE",
"374 684 LINE",
"370 635 LINE",
"373 194 LINE SMOOTH",
"373 127 OFFCURVE",
"338 34 OFFCURVE",
"224 34 CURVE SMOOTH",
"135 34 OFFCURVE",
"88 89 OFFCURVE",
"86 162 CURVE",
"42 166 LINE",
"44 79 OFFCURVE",
"92 -6 OFFCURVE",
"224 -6 CURVE SMOOTH"
);
}
);
width = 510;
}
);
leftKerningGroup = Jtext;
rightKerningGroup = J;
userData = {
position = 333;
width = 53;
};
},
{
glyphname = K;
lastChange = "2019-10-24 18:35:09 +0000";
layers = (
{
anchors = (
{
name = bottom;
position = "{331, 0}";
},
{
name = top;
position = "{331, 684}";
}
);
hints = (
{
origin = "{0, 43}";
type = Corner;
name = _corner.caps_vert;
}
);
layerId = "873CAA12-270D-4223-A88E-AE8E101FDBE8";
paths = (
{
closed = 1;
nodes = (
"198 1 LINE",
"198 314 LINE",
"252 313 OFFCURVE",
"269 313 OFFCURVE",
"308 325 CURVE",
"516 31 LINE SMOOTH",
"533 7 OFFCURVE",
"560 -8 OFFCURVE",
"588 -8 CURVE SMOOTH",
"616 -8 OFFCURVE",
"646 5 OFFCURVE",
"665 30 CURVE",
"619 62 LINE",
"613 54 OFFCURVE",
"602 48 OFFCURVE",
"590 48 CURVE SMOOTH",
"579 48 OFFCURVE",
"569 53 OFFCURVE",
"562 63 CURVE SMOOTH",
"361 347 LINE",
"379 362 OFFCURVE",
"391 374 OFFCURVE",
"416 409 CURVE SMOOTH",
"432 431 OFFCURVE",
"452 466 OFFCURVE",
"468 494 CURVE SMOOTH",
"489 531 OFFCURVE",
"513 576 OFFCURVE",
"570 684 CURVE",
"501 684 LINE",
"468 614 OFFCURVE",
"446 568 OFFCURVE",
"425 530 CURVE SMOOTH",
"405 495 OFFCURVE",
"377 450 OFFCURVE",
"356 423 CURVE SMOOTH",
"345 409 OFFCURVE",
"326 395 OFFCURVE",
"306 386 CURVE SMOOTH",
"290 379 OFFCURVE",
"271 372 OFFCURVE",
"240 372 CURVE SMOOTH",
"196 372 LINE",
"196 568 LINE",
"136 568 LINE",
"136 1 LINE"
);
}
);
width = 694;
},
{
anchors = (
{
name = bottom;
position = "{335, 2}";
},
{
name = top;
position = "{335, 684}";
}
);
hints = (
{
origin = "{0, 43}";
type = Corner;
name = _corner.caps_vert;
}
);
layerId = "0CAF3BED-C4AC-4024-B3E1-4C69D1EF7EC0";
paths = (
{
closed = 1;
nodes = (
"214 0 LINE",
"214 303 LINE",
"259 302 OFFCURVE",
"277 305 OFFCURVE",
"304 312 CURVE",
"500 34 LINE SMOOTH",
"518 8 OFFCURVE",
"551 -8 OFFCURVE",
"586 -8 CURVE SMOOTH",
"611 -8 OFFCURVE",
"646 7 OFFCURVE",
"666 38 CURVE",
"604 82 LINE",
"600 75 OFFCURVE",
"594 70 OFFCURVE",
"586 70 CURVE SMOOTH",
"573 70 OFFCURVE",
"567 73 OFFCURVE",
"556 88 CURVE SMOOTH",
"374 346 LINE",
"375 347 OFFCURVE",
"398 364 OFFCURVE",
"422 400 CURVE SMOOTH",
"439 423 OFFCURVE",
"460 459 OFFCURVE",
"474 484 CURVE SMOOTH",
"496 523 OFFCURVE",
"504 538 OFFCURVE",
"583 686 CURVE",
"493 686 LINE",
"455 606 OFFCURVE",
"434 566 OFFCURVE",
"413 530 CURVE SMOOTH",
"394 497 OFFCURVE",
"370 457 OFFCURVE",
"348 430 CURVE SMOOTH",
"335 414 OFFCURVE",
"321 406 OFFCURVE",
"300 396 CURVE SMOOTH",
"287 390 OFFCURVE",
"270 385 OFFCURVE",
"242 384 CURVE SMOOTH",
"212 383 LINE",
"212 568 LINE",
"130 568 LINE",
"130 0 LINE"
);
}
);
width = 693;
},
{
anchors = (
{
name = bottom;
position = "{317, 1}";
},
{
name = top;
position = "{317, 684}";
}
);
hints = (
{
origin = "{0, 43}";
type = Corner;
name = _corner.caps_vert;
}
);
layerId = "49C16FD3-6177-408B-A733-AEB3898BB77C";
paths = (
{
closed = 1;
nodes = (
"178 2 LINE",
"178 325 LINE",
"206 325 OFFCURVE",
"234 316 OFFCURVE",
"306 338 CURVE",
"524 30 LINE SMOOTH",
"541 6 OFFCURVE",
"564 -7 OFFCURVE",
"590 -7 CURVE SMOOTH",
"613 -7 OFFCURVE",
"639 2 OFFCURVE",
"656 22 CURVE",
"623 45 LINE",
"615 38 OFFCURVE",
"605 33 OFFCURVE",
"593 33 CURVE SMOOTH",
"577 33 OFFCURVE",
"563 44 OFFCURVE",
"557 53 CURVE SMOOTH",
"346 351 LINE",
"371 370 OFFCURVE",
"377 380 OFFCURVE",
"404 417 CURVE SMOOTH",
"420 440 OFFCURVE",
"442 478 OFFCURVE",
"457 505 CURVE SMOOTH",
"461 512 OFFCURVE",
"500 581 OFFCURVE",
"555 685 CURVE",
"504 685 LINE",
"460 592 OFFCURVE",
"445 566 OFFCURVE",
"426 531 CURVE SMOOTH",
"404 490 OFFCURVE",
"378 451 OFFCURVE",
"354 420 CURVE SMOOTH",
"340 402 OFFCURVE",
"327 389 OFFCURVE",
"302 378 CURVE SMOOTH",
"284 370 OFFCURVE",
"263 363 OFFCURVE",
"232 363 CURVE SMOOTH",
"176 363 LINE",
"176 569 LINE",
"134 569 LINE",
"134 2 LINE"
);
}
);
width = 690;
}
);
leftKerningGroup = E;
rightKerningGroup = K;
unicode = 004B;
userData = {
position = 542;
width = 57;
};
},
{
glyphname = K.ss01;
lastChange = "2019-10-24 18:16:34 +0000";
layers = (
{
anchors = (
{
name = bottom;
position = "{368, 0}";
},
{
name = top;
position = "{368, 684}";
}
);
layerId = "873CAA12-270D-4223-A88E-AE8E101FDBE8";
paths = (
{
closed = 1;
nodes = (
"163 1 LINE",
"163 313 LINE",
"192 313 OFFCURVE",
"228 311 OFFCURVE",
"272 324 CURVE",
"478 32 LINE SMOOTH",
"498 6 OFFCURVE",
"522 -8 OFFCURVE",
"554 -8 CURVE SMOOTH",
"571 -8 OFFCURVE",
"584 -4 OFFCURVE",
"600 8 CURVE",
"573 55 LINE",
"568 51 OFFCURVE",
"560 49 OFFCURVE",
"553 49 CURVE SMOOTH",
"542 49 OFFCURVE",
"533 53 OFFCURVE",
"525 64 CURVE SMOOTH",
"326 347 LINE",
"346 363 OFFCURVE",
"367 389 OFFCURVE",
"380 408 CURVE SMOOTH",
"394 428 OFFCURVE",
"416 464 OFFCURVE",
"432 492 CURVE SMOOTH",
"460 541 OFFCURVE",
"497 618 OFFCURVE",
"533 684 CURVE",
"460 684 LINE",
"422 604 OFFCURVE",
"403 565 OFFCURVE",
"383 529 CURVE SMOOTH",
"365 497 OFFCURVE",
"338 452 OFFCURVE",
"314 423 CURVE SMOOTH",
"283 385 OFFCURVE",
"255 375 OFFCURVE",
"204 373 CURVE SMOOTH",
"161 371 LINE",
"161 684 LINE",
"100 684 LINE",
"100 1 LINE"
);
}
);
width = 628;
},
{
anchors = (
{
name = bottom;
position = "{362, 0}";
},
{
name = top;
position = "{361, 684}";
}
);
layerId = "0CAF3BED-C4AC-4024-B3E1-4C69D1EF7EC0";
paths = (
{
closed = 1;
nodes = (
"181 0 LINE",
"181 302 LINE",
"212 302 OFFCURVE",
"241 304 OFFCURVE",
"270 312 CURVE",
"465 37 LINE SMOOTH",
"486 10 OFFCURVE",
"515 -4 OFFCURVE",
"548 -4 CURVE SMOOTH",
"569 -4 OFFCURVE",
"589 1 OFFCURVE",
"608 20 CURVE",
"571 79 LINE",
"563 73 OFFCURVE",
"559 70 OFFCURVE",
"549 70 CURVE SMOOTH",
"540 70 OFFCURVE",
"533 74 OFFCURVE",
"521 91 CURVE SMOOTH",
"343 346 LINE",
"361 361 OFFCURVE",
"382 390 OFFCURVE",
"390 400 CURVE SMOOTH",
"405 422 OFFCURVE",
"427 460 OFFCURVE",
"441 483 CURVE SMOOTH",
"473 540 OFFCURVE",
"510 619 OFFCURVE",
"548 686 CURVE",
"450 686 LINE",
"411 604 OFFCURVE",
"393 566 OFFCURVE",
"373 530 CURVE SMOOTH",
"354 496 OFFCURVE",
"330 456 OFFCURVE",
"307 429 CURVE SMOOTH",
"281 397 OFFCURVE",
"259 385 OFFCURVE",
"209 384 CURVE SMOOTH",
"179 383 LINE",
"179 686 LINE",
"97 686 LINE",
"97 0 LINE"
);
}
);
width = 634;
},
{
anchors = (
{
name = bottom;
position = "{371, -7}";
},
{
name = top;
position = "{371, 693}";
}
);
layerId = "49C16FD3-6177-408B-A733-AEB3898BB77C";
paths = (
{
closed = 1;
nodes = (
"152 2 LINE",
"152 322 LINE",
"177 322 OFFCURVE",
"221 319 OFFCURVE",
"273 335 CURVE",
"489 30 LINE SMOOTH",
"508 5 OFFCURVE",
"529 -6 OFFCURVE",
"555 -6 CURVE SMOOTH",
"574 -6 OFFCURVE",
"582 -3 OFFCURVE",
"594 3 CURVE",
"572 38 LINE",
"566 35 OFFCURVE",
"560 35 OFFCURVE",
"554 35 CURVE SMOOTH",
"540 35 OFFCURVE",
"530 42 OFFCURVE",
"522 53 CURVE SMOOTH",
"314 351 LINE",
"336 367 OFFCURVE",
"365 399 OFFCURVE",
"376 415 CURVE SMOOTH",
"387 431 OFFCURVE",
"414 474 OFFCURVE",
"429 501 CURVE SMOOTH",
"454 545 OFFCURVE",
"491 620 OFFCURVE",
"525 685 CURVE",
"471 685 LINE",
"428 595 OFFCURVE",
"416 571 OFFCURVE",
"394 530 CURVE SMOOTH",
"372 489 OFFCURVE",
"348 452 OFFCURVE",
"323 421 CURVE SMOOTH",
"288 379 OFFCURVE",
"258 367 OFFCURVE",
"204 365 CURVE SMOOTH",
"150 363 LINE",
"150 685 LINE",
"105 685 LINE",
"105 2 LINE"
);
}
);
width = 622;
}
);
rightKerningGroup = K;
userData = {
position = 542;
width = 57;
};
},
{
glyphname = K.swsh;
lastChange = "2019-10-24 18:35:42 +0000";
layers = (
{
anchors = (
{
name = bottom;
position = "{328, 0}";
},
{
name = top;
position = "{327, 684}";
}
);
hints = (
{
origin = "{0, 34}";
type = Corner;
name = _corner.caps_swash_vert;
options = 1;
}
);
layerId = "873CAA12-270D-4223-A88E-AE8E101FDBE8";
paths = (
{
closed = 1;
nodes = (
"651 -8 OFFCURVE",
"700 24 OFFCURVE",
"700 83 CURVE",
"644 82 LINE",
"644 63 OFFCURVE",
"629 48 OFFCURVE",
"609 48 CURVE SMOOTH",
"598 48 OFFCURVE",
"588 53 OFFCURVE",
"581 63 CURVE SMOOTH",
"380 347 LINE",
"398 362 OFFCURVE",
"410 374 OFFCURVE",
"435 409 CURVE SMOOTH",
"451 431 OFFCURVE",
"471 466 OFFCURVE",
"487 494 CURVE SMOOTH",
"508 531 OFFCURVE",
"532 576 OFFCURVE",
"589 684 CURVE",
"520 684 LINE",
"487 614 OFFCURVE",
"465 568 OFFCURVE",
"444 530 CURVE SMOOTH",
"425 495 OFFCURVE",
"396 450 OFFCURVE",
"375 423 CURVE SMOOTH",
"364 409 OFFCURVE",
"345 395 OFFCURVE",
"325 386 CURVE SMOOTH",
"309 379 OFFCURVE",
"290 372 OFFCURVE",
"259 372 CURVE SMOOTH",
"217 372 LINE",
"217 569 LINE",
"157 569 LINE",
"157 0 LINE",
"217 0 LINE",
"217 314 LINE",
"271 313 OFFCURVE",
"288 313 OFFCURVE",
"327 325 CURVE",
"535 31 LINE SMOOTH",
"552 7 OFFCURVE",
"579 -8 OFFCURVE",
"607 -8 CURVE SMOOTH"
);
}
);
width = 722;
},
{
anchors = (
{
name = bottom;
position = "{344, 0}";
},
{
name = top;
position = "{342, 684}";
}
);
hints = (
{
origin = "{0, 34}";
type = Corner;
name = _corner.caps_swash_vert;
options = 1;
}
);
layerId = "0CAF3BED-C4AC-4024-B3E1-4C69D1EF7EC0";
paths = (
{
closed = 1;
nodes = (
"646 -8 OFFCURVE",
"709 28 OFFCURVE",
"702 104 CURVE",
"628 102 LINE",
"630 88 OFFCURVE",
"623 70 OFFCURVE",
"607 70 CURVE SMOOTH",
"594 70 OFFCURVE",
"588 73 OFFCURVE",
"577 88 CURVE SMOOTH",
"395 346 LINE",
"396 347 OFFCURVE",
"419 364 OFFCURVE",
"443 400 CURVE SMOOTH",
"459 424 OFFCURVE",
"481 459 OFFCURVE",
"495 484 CURVE SMOOTH",
"517 523 OFFCURVE",
"525 538 OFFCURVE",
"604 686 CURVE",
"514 686 LINE",
"476 606 OFFCURVE",
"455 566 OFFCURVE",
"434 530 CURVE SMOOTH",
"415 497 OFFCURVE",
"391 457 OFFCURVE",
"369 430 CURVE SMOOTH",
"356 414 OFFCURVE",
"342 406 OFFCURVE",
"321 396 CURVE SMOOTH",
"308 390 OFFCURVE",
"291 385 OFFCURVE",
"263 384 CURVE SMOOTH",
"233 383 LINE",
"233 569 LINE",
"151 569 LINE",
"151 0 LINE",
"235 0 LINE",
"235 303 LINE",
"280 302 OFFCURVE",
"298 305 OFFCURVE",
"325 312 CURVE",
"521 34 LINE SMOOTH",
"539 8 OFFCURVE",
"572 -8 OFFCURVE",
"607 -8 CURVE SMOOTH"
);
}
);
width = 725;
},
{
anchors = (
{
name = bottom;
position = "{330, 0}";
},
{
name = top;
position = "{331, 684}";
}
);
hints = (
{
origin = "{0, 34}";
type = Corner;
name = _corner.caps_swash_vert;
options = 1;
}
);
layerId = "49C16FD3-6177-408B-A733-AEB3898BB77C";
paths = (
{
closed = 1;
nodes = (
"648 -7 OFFCURVE",
"691 15 OFFCURVE",
"697 65 CURVE",
"658 69 LINE",
"655 51 OFFCURVE",
"637 33 OFFCURVE",
"615 33 CURVE SMOOTH",
"599 33 OFFCURVE",
"585 44 OFFCURVE",
"579 53 CURVE SMOOTH",
"368 351 LINE",
"393 370 OFFCURVE",
"399 380 OFFCURVE",
"426 417 CURVE SMOOTH",
"443 440 OFFCURVE",
"464 478 OFFCURVE",
"479 505 CURVE SMOOTH",
"483 512 OFFCURVE",
"522 581 OFFCURVE",
"577 685 CURVE",
"526 685 LINE",
"482 592 OFFCURVE",
"467 566 OFFCURVE",
"448 531 CURVE SMOOTH",
"426 490 OFFCURVE",
"400 451 OFFCURVE",
"376 420 CURVE SMOOTH",
"362 402 OFFCURVE",
"349 389 OFFCURVE",
"324 378 CURVE SMOOTH",
"306 370 OFFCURVE",
"285 363 OFFCURVE",
"254 363 CURVE SMOOTH",
"198 363 LINE",
"198 569 LINE",
"156 569 LINE",
"156 2 LINE",
"200 2 LINE",
"200 325 LINE",
"228 325 OFFCURVE",
"256 316 OFFCURVE",
"328 338 CURVE",
"546 30 LINE SMOOTH",
"563 6 OFFCURVE",
"586 -7 OFFCURVE",
"612 -7 CURVE SMOOTH"
);
}
);
width = 725;
}
);
leftKerningGroup = Swash;
rightKerningGroup = K;
userData = {
position = 542;
width = 57;
};
},
{
glyphname = L;
lastChange = "2019-10-24 18:14:08 +0000";
layers = (
{
anchors = (
{
name = bottom;
position = "{301, 0}";
},
{
name = center;
position = "{301, 342}";
},
{
name = top;
position = "{301, 684}";
},
{
name = topright;
position = "{361, 500}";
}
);
layerId = "873CAA12-270D-4223-A88E-AE8E101FDBE8";
paths = (
{
closed = 1;
nodes = (
"507 0 LINE",
"507 56 LINE",
"160 56 LINE",
"160 684 LINE",
"100 684 LINE",
"100 0 LINE"
);
}
);
width = 540;
},
{
anchors = (
{
name = bottom;
position = "{304, 0}";
},
{
name = center;
position = "{295, 342}";
},
{
name = top;
position = "{304, 684}";
},
{
name = topright;
position = "{369, 500}";
}
);
layerId = "0CAF3BED-C4AC-4024-B3E1-4C69D1EF7EC0";
paths = (
{
closed = 1;
nodes = (
"516 -1 LINE",
"516 75 LINE",
"179 75 LINE",
"179 686 LINE",
"97 686 LINE",
"97 -1 LINE"
);
}
);
width = 549;
},
{
anchors = (
{
name = bottom;
position = "{301, -7}";
},
{
name = center;
position = "{299, 342}";
},
{
name = top;
position = "{301, 693}";
},
{
name = topright;
position = "{329, 500}";
}
);
layerId = "49C16FD3-6177-408B-A733-AEB3898BB77C";
paths = (
{
closed = 1;
nodes = (
"503 1 LINE",
"503 41 LINE",
"147 41 LINE",
"147 685 LINE",
"105 685 LINE",
"105 1 LINE"
);
}
);
width = 539;
}
);
rightKerningGroup = L;
unicode = 004C;
userData = {
position = 54;
width = 61;
};
},
{
glyphname = L.swsh;
lastChange = "2019-10-24 18:36:10 +0000";
layers = (
{
anchors = (
{
name = bottom;
position = "{357, 0}";
},
{
name = center;
position = "{318, 342}";
},
{
name = top;
position = "{357, 684}";
},
{
name = topright;
position = "{547, 684}";
}
);
hints = (
{
origin = "{0, 3}";
type = Corner;
name = _corner.caps_swash_vert;
}
);
layerId = "873CAA12-270D-4223-A88E-AE8E101FDBE8";
paths = (
{
closed = 1;
nodes = (
"553 0 LINE",
"553 56 LINE",
"216 56 LINE",
"216 569 LINE",
"156 569 LINE",
"156 0 LINE"
);
}
);
width = 586;
},
{
anchors = (
{
name = bottom;
position = "{358, 11}";
},
{
name = center;
position = "{321, 342}";
},
{
name = top;
position = "{358, 675}";
},
{
name = topright;
position = "{556, 684}";
}
);
hints = (
{
origin = "{0, 3}";
type = Corner;
name = _corner.caps_swash_vert;
}
);
layerId = "0CAF3BED-C4AC-4024-B3E1-4C69D1EF7EC0";
paths = (
{
closed = 1;
nodes = (
"560 -1 LINE",
"560 75 LINE",
"233 75 LINE",
"233 569 LINE",
"151 569 LINE",
"151 -1 LINE"
);
}
);
width = 593;
},
{
anchors = (
{
name = bottom;
position = "{353, -8}";
},
{
name = center;
position = "{305, 342}";
},
{
name = top;
position = "{353, 694}";
},
{
name = topright;
position = "{519, 684}";
}
);
hints = (
{
origin = "{0, 3}";
type = Corner;
name = _corner.caps_swash_vert;
options = 2;
}
);
layerId = "49C16FD3-6177-408B-A733-AEB3898BB77C";
paths = (
{
closed = 1;
nodes = (
"545 1 LINE",
"545 41 LINE",
"200 41 LINE",
"200 569 LINE",
"158 569 LINE",
"158 1 LINE"
);
}
);
width = 581;
}
);
leftKerningGroup = Swash;
rightKerningGroup = L;
userData = {
position = 54;
width = 61;
};
},
{
glyphname = M;
lastChange = "2019-10-24 18:14:08 +0000";
layers = (
{
anchors = (
{
name = bottom;
position = "{552, 0}";
},
{
name = top;
position = "{551, 690}";
}
);
layerId = "873CAA12-270D-4223-A88E-AE8E101FDBE8";
paths = (
{
closed = 1;
nodes = (
"156 -17 OFFCURVE",
"190 15 OFFCURVE",
"198 54 CURVE SMOOTH",
"303 561 LINE",
"309 601 LINE",
"320 561 LINE",
"522 0 LINE",
"581 0 LINE",
"784 562 LINE",
"795 601 LINE",
"801 563 LINE",
"914 0 LINE",
"974 0 LINE",
"834 684 LINE",
"774 684 LINE",
"563 113 LINE",
"552 74 LINE",
"541 113 LINE",
"332 684 LINE",
"273 684 LINE",
"142 61 LINE",
"137 46 OFFCURVE",
"127 39 OFFCURVE",
"113 39 CURVE SMOOTH",
"97 39 OFFCURVE",
"89 47 OFFCURVE",
"82 59 CURVE",
"30 38 LINE",
"43 7 OFFCURVE",
"75 -17 OFFCURVE",
"113 -17 CURVE SMOOTH"
);
}
);
width = 1018;
},
{
anchors = (
{
name = bottom;
position = "{554, -2}";
},
{
name = top;
position = "{547, 684}";
}
);
layerId = "0CAF3BED-C4AC-4024-B3E1-4C69D1EF7EC0";
paths = (
{
closed = 1;
nodes = (
"169 -12 OFFCURVE",
"209 24 OFFCURVE",
"218 66 CURVE SMOOTH",
"316 531 LINE",
"319 553 LINE",
"322 531 LINE",
"513 -1 LINE",
"585 -1 LINE",
"779 537 LINE",
"782 553 LINE",
"783 537 LINE",
"891 -1 LINE",
"973 -1 LINE",
"832 686 LINE",
"756 686 LINE",
"562 160 LINE",
"549 114 LINE",
"536 160 LINE",
"344 686 LINE",
"269 686 LINE",
"140 78 LINE",
"136 68 OFFCURVE",
"132 65 OFFCURVE",
"123 65 CURVE SMOOTH",
"110 65 OFFCURVE",
"108 70 OFFCURVE",
"98 88 CURVE",
"28 59 LINE",
"38 22 OFFCURVE",
"78 -12 OFFCURVE",
"123 -12 CURVE SMOOTH"
);
}
);
width = 1015;
},
{
anchors = (
{
name = bottom;
position = "{558, 1}";
},
{
name = top;
position = "{557, 684}";
}
);
layerId = "49C16FD3-6177-408B-A733-AEB3898BB77C";
paths = (
{
closed = 1;
nodes = (
"150 -11 OFFCURVE",
"181 18 OFFCURVE",
"189 56 CURVE SMOOTH",
"296 568 LINE",
"307 641 LINE",
"327 568 LINE",
"531 1 LINE",
"583 1 LINE",
"788 569 LINE",
"808 640 LINE",
"820 569 LINE",
"934 1 LINE",
"979 1 LINE",
"839 685 LINE",
"788 685 LINE",
"575 107 LINE",
"557 43 LINE",
"539 107 LINE",
"327 685 LINE",
"278 685 LINE",
"145 59 LINE",
"139 42 OFFCURVE",
"125 32 OFFCURVE",
"109 32 CURVE SMOOTH",
"92 32 OFFCURVE",
"82 40 OFFCURVE",
"75 51 CURVE",
"34 34 LINE",
"48 8 OFFCURVE",
"75 -11 OFFCURVE",
"109 -11 CURVE SMOOTH"
);
}
);
width = 1028;
}
);
leftKerningGroup = A;
rightKerningGroup = A;
unicode = 004D;
userData = {
position = 664;
width = 20;
};
},
{
glyphname = M.ss01;
lastChange = "2019-10-24 18:16:34 +0000";
layers = (
{
anchors = (
{
name = bottom;
position = "{401, 0}";
},
{
name = top;
position = "{401, 684}";
}
);
layerId = "873CAA12-270D-4223-A88E-AE8E101FDBE8";
paths = (
{
closed = 1;
nodes = (
"160 0 LINE",
"160 484 LINE SMOOTH",
"160 514 OFFCURVE",
"156 524 OFFCURVE",
"152 557 CURVE",
"169 528 OFFCURVE",
"178 513 OFFCURVE",
"200 486 CURVE SMOOTH",
"297 367 OFFCURVE",
"384 271 OFFCURVE",
"409 243 CURVE",
"484 323 OFFCURVE",
"609 484 OFFCURVE",
"670 568 CURVE",
"666 534 OFFCURVE",
"662 503 OFFCURVE",
"662 470 CURVE SMOOTH",
"662 0 LINE",
"722 0 LINE",
"722 693 LINE",
"704 693 LINE",
"408 323 LINE",
"118 693 LINE",
"100 693 LINE",
"100 0 LINE"
);
}
);
width = 822;
},
{
anchors = (
{
name = bottom;
position = "{412, 0}";
},
{
name = top;
position = "{412, 684}";
}
);
layerId = "0CAF3BED-C4AC-4024-B3E1-4C69D1EF7EC0";
paths = (
{
closed = 1;
nodes = (
"180 -1 LINE",
"180 452 LINE SMOOTH",
"180 467 OFFCURVE",
"179 486 OFFCURVE",
"177 505 CURVE",
"193 483 OFFCURVE",
"211 457 OFFCURVE",
"223 443 CURVE SMOOTH",
"343 304 OFFCURVE",
"383 262 OFFCURVE",
"411 229 CURVE",
"473 295 OFFCURVE",
"578 414 OFFCURVE",
"647 504 CURVE",
"645 479 OFFCURVE",
"644 472 OFFCURVE",
"644 452 CURVE SMOOTH",
"644 -1 LINE",
"726 -1 LINE",
"726 695 LINE",
"691 695 LINE",
"412 345 LINE",
"133 695 LINE",
"98 695 LINE",
"98 -1 LINE"
);
}
);
width = 824;
},
{
anchors = (
{
name = bottom;
position = "{416, 0}";
},
{
name = top;
position = "{416, 684}";
}
);
layerId = "49C16FD3-6177-408B-A733-AEB3898BB77C";
paths = (
{
closed = 1;
nodes = (
"147 1 LINE",
"147 459 LINE SMOOTH",
"147 505 OFFCURVE",
"138 573 OFFCURVE",
"133 612 CURVE",
"160 564 OFFCURVE",
"202 504 OFFCURVE",
"232 466 CURVE SMOOTH",
"349 321 OFFCURVE",
"396 279 OFFCURVE",
"415 258 CURVE",
"504 354 OFFCURVE",
"651 546 OFFCURVE",
"699 615 CURVE",
"693 587 OFFCURVE",
"685 506 OFFCURVE",
"685 459 CURVE SMOOTH",
"685 1 LINE",
"727 1 LINE",
"727 694 LINE",
"722 694 LINE",
"412 312 LINE",
"110 694 LINE",
"105 694 LINE",
"105 1 LINE"
);
}
);
width = 832;
}
);
userData = {
position = 658;
width = 61;
};
},
{
glyphname = M.swsh;
lastChange = "2019-10-24 18:16:34 +0000";
layers = (
{
anchors = (
{
name = bottom;
position = "{570, 0}";
},
{
name = top;
position = "{569, 690}";
}
);
layerId = "873CAA12-270D-4223-A88E-AE8E101FDBE8";
paths = (
{
closed = 1;
nodes = (
"184 -18 OFFCURVE",
"208 20 OFFCURVE",
"221 82 CURVE SMOOTH",
"319 561 LINE",
"325 601 LINE",
"336 561 LINE",
"538 0 LINE",
"602 0 LINE",
"805 562 LINE",
"816 601 LINE",
"822 563 LINE",
"935 0 LINE",
"996 0 LINE",
"859 684 LINE",
"792 684 LINE",
"581 113 LINE",
"570 74 LINE",
"559 113 LINE",
"350 684 LINE",
"283 684 LINE",
"162 95 LINE",
"155 62 OFFCURVE",
"148 37 OFFCURVE",
"121 37 CURVE SMOOTH",
"101 37 OFFCURVE",
"85 55 OFFCURVE",
"91 73 CURVE",
"36 86 LINE",
"34 79 OFFCURVE",
"34 72 OFFCURVE",
"34 65 CURVE SMOOTH",
"34 17 OFFCURVE",
"75 -18 OFFCURVE",
"124 -18 CURVE SMOOTH"
);
}
);
width = 1041;
},
{
anchors = (
{
name = bottom;
position = "{573, -2}";
},
{
name = top;
position = "{566, 684}";
}
);
layerId = "0CAF3BED-C4AC-4024-B3E1-4C69D1EF7EC0";
paths = (
{
closed = 1;
nodes = (
"192 -18 OFFCURVE",
"223 21 OFFCURVE",
"238 79 CURVE SMOOTH",
"332 528 LINE",
"336 549 LINE",
"340 528 LINE",
"531 -1 LINE",
"604 -1 LINE",
"798 534 LINE",
"800 549 LINE",
"802 534 LINE",
"910 -1 LINE",
"989 -1 LINE",
"848 686 LINE",
"775 686 LINE",
"569 121 LINE",
"568 107 LINE",
"566 121 LINE",
"363 686 LINE",
"288 686 LINE",
"165 109 LINE",
"159 83 OFFCURVE",
"151 61 OFFCURVE",
"134 61 CURVE SMOOTH",
"120 61 OFFCURVE",
"107 69 OFFCURVE",
"110 86 CURVE",
"41 114 LINE",
"36 100 OFFCURVE",
"34 87 OFFCURVE",
"34 75 CURVE SMOOTH",
"34 19 OFFCURVE",
"83 -18 OFFCURVE",
"135 -18 CURVE SMOOTH"
);
}
);
width = 1031;
},
{
anchors = (
{
name = bottom;
position = "{571, 1}";
},
{
name = top;
position = "{570, 684}";
}
);
layerId = "49C16FD3-6177-408B-A733-AEB3898BB77C";
paths = (
{
closed = 1;
nodes = (
"150 -16 OFFCURVE",
"181 -2 OFFCURVE",
"196 37 CURVE",
"309 568 LINE",
"320 641 LINE",
"339 568 LINE",
"543 1 LINE",
"593 1 LINE",
"799 570 LINE",
"818 640 LINE",
"830 569 LINE",
"944 1 LINE",
"988 1 LINE",
"848 685 LINE",
"800 685 LINE",
"587 107 LINE",
"569 43 LINE",
"551 107 LINE",
"339 685 LINE",
"291 685 LINE",
"161 72 LINE",
"152 41 OFFCURVE",
"142 26 OFFCURVE",
"119 26 CURVE SMOOTH",
"97 26 OFFCURVE",
"78 45 OFFCURVE",
"83 69 CURVE",
"42 80 LINE",
"40 72 OFFCURVE",
"39 65 OFFCURVE",
"39 58 CURVE SMOOTH",
"39 11 OFFCURVE",
"79 -16 OFFCURVE",
"120 -16 CURVE SMOOTH"
);
}
);
width = 1037;
}
);
leftKerningGroup = Aswash;
rightKerningGroup = A;
userData = {
position = 664;
width = 20;
};
},
{
glyphname = N;
lastChange = "2019-10-25 06:07:36 +0000";
layers = (
{
anchors = (
{
name = bottom;
position = "{422, 0}";
},
{
name = eng;
position = "{682, 177}";
},
{
name = top;
position = "{421, 684}";
}
);
layerId = "873CAA12-270D-4223-A88E-AE8E101FDBE8";
paths = (
{
closed = 1;
nodes = (
"156 -13 OFFCURVE",
"202 23 OFFCURVE",
"202 79 CURVE SMOOTH",
"198 584 LINE",
"210 563 LINE",
"661 0 LINE",
"682 0 LINE",
"682 683 LINE",
"620 683 LINE",
"623 129 LINE",
"609 151 LINE",
"289 559 LINE",
"178 684 LINE",
"140 684 LINE",
"140 80 LINE SMOOTH",
"140 62 OFFCURVE",
"125 44 OFFCURVE",
"107 44 CURVE SMOOTH",
"98 44 OFFCURVE",
"83 49 OFFCURVE",
"76 60 CURVE",
"29 28 LINE",
"47 2 OFFCURVE",
"76 -13 OFFCURVE",
"108 -13 CURVE SMOOTH"
);
}
);
width = 781;
},
{
anchors = (
{
name = bottom;
position = "{407, 0}";
},
{
name = eng;
position = "{687, 177}";
},
{
name = top;
position = "{421, 684}";
}
);
layerId = "0CAF3BED-C4AC-4024-B3E1-4C69D1EF7EC0";
paths = (
{
closed = 1;
nodes = (
"170 -12 OFFCURVE",
"220 31 OFFCURVE",
"220 90 CURVE SMOOTH",
"218 524 LINE",
"207 550 LINE",
"648 -1 LINE",
"686 -1 LINE",
"686 685 LINE",
"602 685 LINE",
"605 177 LINE",
"609 162 LINE",
"302 561 LINE",
"191 686 LINE",
"137 686 LINE",
"137 90 LINE SMOOTH",
"137 79 OFFCURVE",
"130 68 OFFCURVE",
"118 66 CURVE SMOOTH",
"107 64 OFFCURVE",
"94 67 OFFCURVE",
"86 83 CURVE",
"27 43 LINE",
"45 10 OFFCURVE",
"80 -12 OFFCURVE",
"118 -12 CURVE SMOOTH"
);
}
);
width = 783;
},
{
anchors = (
{
name = bottom;
position = "{424, -7}";
},
{
name = eng;
position = "{680, 177}";
},
{
name = top;
position = "{423, 693}";
}
);
layerId = "49C16FD3-6177-408B-A733-AEB3898BB77C";
paths = (
{
closed = 1;
nodes = (
"147 -17 OFFCURVE",
"187 12 OFFCURVE",
"187 70 CURVE SMOOTH",
"183 618 LINE",
"214 573 LINE",
"673 1 LINE",
"680 1 LINE",
"680 684 LINE",
"635 684 LINE",
"638 97 LINE",
"610 142 LINE",
"282 560 LINE",
"171 685 LINE",
"143 685 LINE",
"143 70 LINE SMOOTH",
"143 42 OFFCURVE",
"123 26 OFFCURVE",
"102 26 CURVE SMOOTH",
"94 26 OFFCURVE",
"79 33 OFFCURVE",
"71 42 CURVE",
"33 15 LINE",
"51 -6 OFFCURVE",
"73 -17 OFFCURVE",
"101 -17 CURVE SMOOTH"
);
}
);
width = 784;
}
);
leftKerningGroup = N;
unicode = 004E;
userData = {
position = 642;
width = 56;
};
},
{
glyphname = N.ss01;
lastChange = "2019-10-25 06:06:41 +0000";
layers = (
{
anchors = (
{
name = bottom;
position = "{392, 0}";
},
{
name = eng;
position = "{653, 144}";
},
{
name = top;
position = "{392, 684}";
}
);
layerId = "873CAA12-270D-4223-A88E-AE8E101FDBE8";
paths = (
{
closed = 1;
nodes = (
"160 0 LINE",
"160 482 LINE",
"154 561 LINE",
"206 493 LINE",
"558 57 LINE",
"614 -1 LINE",
"653 -1 LINE",
"653 685 LINE",
"593 685 LINE",
"593 149 LINE",
"594 99 LINE",
"560 144 LINE",
"119 694 LINE",
"100 694 LINE",
"100 0 LINE"
);
}
);
width = 753;
},
{
anchors = (
{
name = bottom;
position = "{392, 0}";
},
{
name = eng;
position = "{654, 144}";
},
{
name = top;
position = "{392, 684}";
}
);
layerId = "0CAF3BED-C4AC-4024-B3E1-4C69D1EF7EC0";
paths = (
{
closed = 1;
nodes = (
"179 -1 LINE",
"179 452 LINE",
"174 518 LINE",
"213 466 LINE",
"554 56 LINE",
"612 -1 LINE",
"654 -1 LINE",
"654 687 LINE",
"573 687 LINE",
"574 163 LINE",
"575 135 LINE",
"561 160 LINE",
"132 696 LINE",
"97 696 LINE",
"97 -1 LINE"
);
}
);
width = 751;
},
{
anchors = (
{
name = bottom;
position = "{397, 0}";
},
{
name = eng;
position = "{652, 144}";
},
{
name = top;
position = "{392, 684}";
}
);
layerId = "49C16FD3-6177-408B-A733-AEB3898BB77C";
paths = (
{
closed = 1;
nodes = (
"147 1 LINE",
"147 554 LINE",
"143 602 LINE",
"170 553 LINE",
"575 52 LINE",
"626 0 LINE",
"652 0 LINE",
"652 686 LINE",
"608 686 LINE",
"610 118 LINE",
"617 63 LINE",
"589 101 LINE",
"111 695 LINE",
"105 695 LINE",
"105 1 LINE"
);
}
);
width = 756;
}
);
userData = {
position = 605;
width = 61;
};
},
{
glyphname = N.swsh;
lastChange = "2019-10-24 18:16:34 +0000";
layers = (
{
anchors = (
{
name = bottom;
position = "{438, 0}";
},
{
name = top;
position = "{437, 684}";
}
);
components = (
{
name = _top_swash.part;
transform = "{1, 0, 0, -1, 4, 680}";
}
);
layerId = "873CAA12-270D-4223-A88E-AE8E101FDBE8";
paths = (
{
closed = 1;
nodes = (
"213 584 LINE",
"226 563 LINE",
"677 0 LINE",
"698 0 LINE",
"698 683 LINE",
"636 683 LINE",
"639 129 LINE",
"625 151 LINE",
"305 559 LINE",
"194 684 LINE",
"155 684 LINE",
"155 125 LINE",
"217 125 LINE"
);
}
);
width = 797;
},
{
anchors = (
{
name = bottom;
position = "{422, 0}";
},
{
name = top;
position = "{436, 684}";
}
);
components = (
{
name = _top_swash.part;
transform = "{1, 0, 0, -1, -16, 686}";
}
);
layerId = "0CAF3BED-C4AC-4024-B3E1-4C69D1EF7EC0";
paths = (
{
closed = 1;
nodes = (
"230 539 LINE",
"222 550 LINE",
"663 -1 LINE",
"701 -1 LINE",
"701 685 LINE",
"617 685 LINE",
"620 177 LINE",
"624 162 LINE",
"317 561 LINE",
"204 686 LINE",
"150 686 LINE",
"151 119 LINE",
"233 119 LINE"
);
}
);
width = 798;
},
{
anchors = (
{
name = bottom;
position = "{435, -7}";
},
{
name = top;
position = "{434, 693}";
}
);
components = (
{
name = _top_swash.part;
transform = "{1, 0, 0, -1, -38, 680}";
}
);
layerId = "49C16FD3-6177-408B-A733-AEB3898BB77C";
paths = (
{
closed = 1;
nodes = (
"198 618 LINE",
"225 574 LINE",
"684 1 LINE",
"690 1 LINE",
"690 684 LINE",
"646 684 LINE",
"649 97 LINE",
"620 143 LINE",
"292 560 LINE",
"181 685 LINE",
"157 685 LINE",
"157 121 LINE",
"200 121 LINE"
);
}
);
width = 794;
}
);
leftKerningGroup = N;
userData = {
position = 642;
width = 56;
};
},
{
glyphname = Nhookleft;
lastChange = "2019-10-24 18:14:08 +0000";
layers = (
{
anchors = (
{
name = bottom;
position = "{395, 0}";
},
{
name = top;
position = "{394, 684}";
}
);
layerId = "49C16FD3-6177-408B-A733-AEB3898BB77C";
paths = (
{
closed = 1;
nodes = (
"89 -201 OFFCURVE",
"149 -170 OFFCURVE",
"149 -97 CURVE SMOOTH",
"145 614 LINE",
"172 573 LINE",
"642 1 LINE",
"656 1 LINE",
"656 684 LINE",
"612 684 LINE",
"615 94 LINE",
"588 133 LINE",
"241 558 LINE",
"130 685 LINE",
"105 685 LINE",
"105 -97 LINE SMOOTH",
"105 -126 OFFCURVE",
"78 -158 OFFCURVE",
"43 -158 CURVE SMOOTH",
"15 -158 OFFCURVE",
"-15 -135 OFFCURVE",
"-19 -103 CURVE",
"-62 -103 LINE",
"-59 -158 OFFCURVE",
"-12 -201 OFFCURVE",
"40 -201 CURVE SMOOTH"
);
}
);
width = 761;
},
{
anchors = (
{
name = bottom;
position = "{390, 0}";
},
{
name = top;
position = "{383, 684}";
}
);
layerId = "873CAA12-270D-4223-A88E-AE8E101FDBE8";
paths = (
{
closed = 1;
nodes = (
"93 -204 OFFCURVE",
"163 -174 OFFCURVE",
"163 -95 CURVE SMOOTH",
"159 584 LINE",
"173 563 LINE",
"640 0 LINE",
"665 0 LINE",
"665 683 LINE",
"603 683 LINE",
"606 121 LINE",
"592 143 LINE",
"252 559 LINE",
"141 684 LINE",
"100 684 LINE",
"100 -95 LINE SMOOTH",
"100 -125 OFFCURVE",
"77 -148 OFFCURVE",
"46 -148 CURVE SMOOTH",
"19 -148 OFFCURVE",
"-9 -136 OFFCURVE",
"-9 -94 CURVE",
"-65 -94 LINE",
"-65 -164 OFFCURVE",
"-13 -204 OFFCURVE",
"43 -204 CURVE SMOOTH"
);
}
);
width = 765;
},
{
anchors = (
{
name = bottom;
position = "{257, 0}";
},
{
name = top;
position = "{891, 496}";
}
);
layerId = "0CAF3BED-C4AC-4024-B3E1-4C69D1EF7EC0";
paths = (
{
closed = 1;
nodes = (
"106 -204 OFFCURVE",
"184 -172 OFFCURVE",
"183 -86 CURVE SMOOTH",
"179 539 LINE",
"171 550 LINE",
"627 -1 LINE",
"670 -1 LINE",
"670 685 LINE",
"586 685 LINE",
"589 173 LINE",
"593 158 LINE",
"221 610 LINE",
"151 686 LINE",
"98 686 LINE",
"98 -86 LINE SMOOTH",
"98 -106 OFFCURVE",
"79 -127 OFFCURVE",
"57 -127 CURVE SMOOTH",
"23 -127 OFFCURVE",
"13 -99 OFFCURVE",
"11 -85 CURVE",
"-63 -86 LINE",
"-63 -150 OFFCURVE",
"-15 -204 OFFCURVE",
"54 -204 CURVE SMOOTH"
);
}
);
width = 767;
}
);
leftKerningGroup = N;
unicode = 019D;
},
{
glyphname = O;
lastChange = "2019-11-08 13:48:50 +0000";
layers = (
{
anchors = (
{
name = bottom;
position = "{401, 0}";
},
{
name = center;
position = "{402, 342}";
},
{
name = horn;
position = "{514, 677}";
},
{
name = ogonek;
position = "{612, 55}";
},
{
name = top;
position = "{397, 684}";
},
{
name = topleft;
position = "{29, 684}";
},
{
name = topright;
position = "{798, 684}";
}
);
layerId = "873CAA12-270D-4223-A88E-AE8E101FDBE8";
paths = (
{
closed = 1;
nodes = (
"596 -17 OFFCURVE",
"740 130 OFFCURVE",
"740 330 CURVE SMOOTH",
"740 349 LINE SMOOTH",
"740 548 OFFCURVE",
"592 700 OFFCURVE",
"398 700 CURVE SMOOTH",
"205 700 OFFCURVE",
"57 548 OFFCURVE",
"57 349 CURVE SMOOTH",
"57 330 LINE SMOOTH",
"57 133 OFFCURVE",
"206 -17 OFFCURVE",
"402 -17 CURVE SMOOTH"
);
},
{
closed = 1;
nodes = (
"238 39 OFFCURVE",
"117 163 OFFCURVE",
"117 330 CURVE SMOOTH",
"117 349 LINE SMOOTH",
"117 516 OFFCURVE",
"239 644 OFFCURVE",
"397 644 CURVE SMOOTH",
"557 644 OFFCURVE",
"680 517 OFFCURVE",
"680 349 CURVE SMOOTH",
"680 330 LINE SMOOTH",
"680 163 OFFCURVE",
"559 39 OFFCURVE",
"399 39 CURVE SMOOTH"
);
}
);
width = 798;
},
{
anchors = (
{
name = bottom;
position = "{401, -27}";
},
{
name = center;
position = "{396, 339}";
},
{
name = horn;
position = "{500, 689}";
},
{
name = ogonek;
position = "{615, 54}";
},
{
name = top;
position = "{397, 684}";
},
{
name = topleft;
position = "{25, 684}";
},
{
name = topright;
position = "{800, 684}";
}
);
layerId = "0CAF3BED-C4AC-4024-B3E1-4C69D1EF7EC0";
paths = (
{
closed = 1;
nodes = (
"593 -25 OFFCURVE",
"739 126 OFFCURVE",
"739 326 CURVE SMOOTH",
"739 355 LINE SMOOTH",
"739 548 OFFCURVE",
"587 702 OFFCURVE",
"397 702 CURVE SMOOTH",
"207 702 OFFCURVE",
"56 548 OFFCURVE",
"56 355 CURVE SMOOTH",
"56 326 LINE SMOOTH",
"56 126 OFFCURVE",
"200 -19 OFFCURVE",
"401 -22 CURVE SMOOTH"
);
},
{
closed = 1;
nodes = (
"250 54 OFFCURVE",
"138 170 OFFCURVE",
"138 326 CURVE SMOOTH",
"138 355 LINE SMOOTH",
"138 504 OFFCURVE",
"252 626 OFFCURVE",
"396 626 CURVE SMOOTH",
"542 626 OFFCURVE",
"657 504 OFFCURVE",
"657 355 CURVE SMOOTH",
"657 326 LINE SMOOTH",
"657 170 OFFCURVE",
"545 54 OFFCURVE",
"398 54 CURVE SMOOTH"
);
}
);
width = 795;
},
{
anchors = (
{
name = bottom;
position = "{406, 1}";
},
{
name = center;
position = "{407, 342}";
},
{
name = horn;
position = "{515, 691}";
},
{
name = ogonek;
position = "{605, 46}";
},
{
name = top;
position = "{402, 693}";
},
{
name = topleft;
position = "{32, 684}";
},
{
name = topright;
position = "{805, 684}";
}
);
layerId = "49C16FD3-6177-408B-A733-AEB3898BB77C";
paths = (
{
closed = 1;
nodes = (
"603 -14 OFFCURVE",
"745 131 OFFCURVE",
"745 331 CURVE SMOOTH",
"745 350 LINE SMOOTH",
"745 550 OFFCURVE",
"597 702 OFFCURVE",
"403 702 CURVE SMOOTH",
"209 702 OFFCURVE",
"63 551 OFFCURVE",
"63 350 CURVE SMOOTH",
"63 331 LINE SMOOTH",
"63 133 OFFCURVE",
"210 -14 OFFCURVE",
"407 -14 CURVE SMOOTH"
);
},
{
closed = 1;
nodes = (
"233 24 OFFCURVE",
"105 156 OFFCURVE",
"105 331 CURVE SMOOTH",
"105 350 LINE SMOOTH",
"105 526 OFFCURVE",
"234 662 OFFCURVE",
"402 662 CURVE SMOOTH",
"571 662 OFFCURVE",
"703 526 OFFCURVE",
"703 350 CURVE SMOOTH",
"703 331 LINE SMOOTH",
"703 156 OFFCURVE",
"574 24 OFFCURVE",
"404 24 CURVE SMOOTH"
);
}
);
width = 808;
}
);
leftKerningGroup = O;
rightKerningGroup = O;
unicode = 004F;
userData = {
position = 683;
width = 56;
};
},
{
glyphname = P;
lastChange = "2019-10-24 18:23:34 +0000";
layers = (
{
anchors = (
{
name = bottom;
position = "{293, 0}";
},
{
name = top;
position = "{293, 684}";
}
);
hints = (
{
origin = "{0, 22}";
type = Corner;
name = _corner.caps_left;
}
);
layerId = "873CAA12-270D-4223-A88E-AE8E101FDBE8";
paths = (
{
closed = 1;
nodes = (
"210 -1 LINE",
"210 628 LINE",
"352 628 LINE SMOOTH",
"439 628 OFFCURVE",
"498 579 OFFCURVE",
"498 471 CURVE SMOOTH",
"498 355 OFFCURVE",
"431 313 OFFCURVE",
"332 313 CURVE SMOOTH",
"317 313 OFFCURVE",
"294 314 OFFCURVE",
"263 316 CURVE",
"263 262 LINE",
"292 259 OFFCURVE",
"317 257 OFFCURVE",
"337 257 CURVE SMOOTH",
"454 257 OFFCURVE",
"558 323 OFFCURVE",
"558 472 CURVE SMOOTH",
"558 593 OFFCURVE",
"490 684 OFFCURVE",
"366 684 CURVE SMOOTH",
"150 684 LINE",
"150 -1 LINE"
);
}
);
width = 607;
},
{
anchors = (
{
name = bottom;
position = "{305, 0}";
},
{
name = top;
position = "{305, 684}";
}
);
hints = (
{
origin = "{0, 22}";
type = Corner;
name = _corner.caps_left;
}
);
layerId = "0CAF3BED-C4AC-4024-B3E1-4C69D1EF7EC0";
paths = (
{
closed = 1;
nodes = (
"238 -1 LINE",
"238 610 LINE",
"364 610 LINE SMOOTH",
"442 610 OFFCURVE",
"495 565 OFFCURVE",
"495 468 CURVE SMOOTH",
"495 364 OFFCURVE",
"435 325 OFFCURVE",
"345 325 CURVE SMOOTH",
"328 325 OFFCURVE",
"310 326 OFFCURVE",
"274 332 CURVE",
"274 259 LINE",
"306 251 OFFCURVE",
"327 249 OFFCURVE",
"349 249 CURVE SMOOTH",
"478 249 OFFCURVE",
"577 318 OFFCURVE",
"577 469 CURVE SMOOTH",
"577 590 OFFCURVE",
"504 686 OFFCURVE",
"378 686 CURVE SMOOTH",
"156 686 LINE",
"156 -1 LINE"
);
}
);
width = 623;
},
{
anchors = (
{
name = bottom;
position = "{281, 0}";
},
{
name = top;
position = "{281, 684}";
}
);
hints = (
{
origin = "{0, 22}";
type = Corner;
name = _corner.caps_left;
}
);
layerId = "49C16FD3-6177-408B-A733-AEB3898BB77C";
paths = (
{
closed = 1;
nodes = (
"184 0 LINE",
"184 645 LINE",
"339 645 LINE SMOOTH",
"431 645 OFFCURVE",
"499 590 OFFCURVE",
"499 475 CURVE SMOOTH",
"499 351 OFFCURVE",
"421 305 OFFCURVE",
"318 305 CURVE SMOOTH",
"306 305 OFFCURVE",
"288 306 OFFCURVE",
"254 308 CURVE",
"254 270 LINE",
"284 266 OFFCURVE",
"308 265 OFFCURVE",
"323 265 CURVE SMOOTH",
"440 265 OFFCURVE",
"541 328 OFFCURVE",
"541 476 CURVE SMOOTH",
"541 597 OFFCURVE",
"475 686 OFFCURVE",
"353 685 CURVE SMOOTH",
"142 684 LINE",
"142 0 LINE"
);
}
);
width = 594;
}
);
leftKerningGroup = E;
rightKerningGroup = P;
unicode = 0050;
userData = {
position = 480;
width = 59;
};
},
{
glyphname = P.ss01;
lastChange = "2019-10-24 18:16:34 +0000";
layers = (
{
anchors = (
{
name = bottom;
position = "{275, 0}";
},
{
name = top;
position = "{275, 684}";
}
);
layerId = "873CAA12-270D-4223-A88E-AE8E101FDBE8";
paths = (
{
closed = 1;
nodes = (
"428 254 OFFCURVE",
"511 337 OFFCURVE",
"511 470 CURVE SMOOTH",
"511 597 OFFCURVE",
"436 684 OFFCURVE",
"318 684 CURVE SMOOTH",
"100 684 LINE",
"100 628 LINE",
"304 628 LINE SMOOTH",
"392 628 OFFCURVE",
"451 572 OFFCURVE",
"451 473 CURVE SMOOTH",
"451 369 OFFCURVE",
"385 310 OFFCURVE",
"261 310 CURVE SMOOTH",
"232 310 OFFCURVE",
"188 312 OFFCURVE",
"152 313 CURVE",
"152 256 LINE",
"157 256 OFFCURVE",
"221 254 OFFCURVE",
"249 254 CURVE SMOOTH"
);
},
{
closed = 1;
nodes = (
"160 -1 LINE",
"160 681 LINE",
"100 681 LINE",
"100 -1 LINE"
);
}
);
width = 559;
},
{
anchors = (
{
name = bottom;
position = "{278, 0}";
},
{
name = top;
position = "{278, 684}";
}
);
layerId = "0CAF3BED-C4AC-4024-B3E1-4C69D1EF7EC0";
paths = (
{
closed = 1;
nodes = (
"432 246 OFFCURVE",
"520 333 OFFCURVE",
"520 467 CURVE SMOOTH",
"520 594 OFFCURVE",
"440 686 OFFCURVE",
"320 686 CURVE SMOOTH",
"97 686 LINE",
"97 610 LINE",
"307 610 LINE SMOOTH",
"385 610 OFFCURVE",
"438 559 OFFCURVE",
"438 470 CURVE SMOOTH",
"438 376 OFFCURVE",
"379 322 OFFCURVE",
"265 322 CURVE SMOOTH",
"234 322 OFFCURVE",
"188 325 OFFCURVE",
"148 326 CURVE",
"148 249 LINE",
"164 249 OFFCURVE",
"230 246 OFFCURVE",
"253 246 CURVE SMOOTH"
);
},
{
closed = 1;
nodes = (
"179 -1 LINE",
"179 683 LINE",
"97 683 LINE",
"97 -1 LINE"
);
}
);
width = 566;
},
{
anchors = (
{
name = bottom;
position = "{267, 0}";
},
{
name = top;
position = "{267, 684}";
}
);
layerId = "49C16FD3-6177-408B-A733-AEB3898BB77C";
paths = (
{
closed = 1;
nodes = (
"423 262 OFFCURVE",
"508 343 OFFCURVE",
"508 475 CURVE SMOOTH",
"508 600 OFFCURVE",
"431 685 OFFCURVE",
"317 685 CURVE SMOOTH",
"104 685 LINE",
"104 645 LINE",
"303 645 LINE SMOOTH",
"398 645 OFFCURVE",
"466 584 OFFCURVE",
"466 478 CURVE SMOOTH",
"466 366 OFFCURVE",
"389 302 OFFCURVE",
"259 302 CURVE SMOOTH",
"235 302 OFFCURVE",
"165 300 OFFCURVE",
"132 301 CURVE",
"132 264 LINE",
"151 264 OFFCURVE",
"226 262 OFFCURVE",
"247 262 CURVE SMOOTH"
);
},
{
closed = 1;
nodes = (
"146 0 LINE",
"146 681 LINE",
"104 681 LINE",
"104 0 LINE"
);
}
);
width = 561;
}
);
leftKerningGroup = E;
rightKerningGroup = P;
userData = {
position = 480;
width = 59;
};
},
{
glyphname = P.swsh;
lastChange = "2019-10-24 18:36:32 +0000";
layers = (
{
anchors = (
{
name = bottom;
position = "{307, 0}";
},
{
name = top;
position = "{307, 684}";
}
);
hints = (
{
origin = "{0, 6}";
type = Corner;
name = _corner.caps_swash;
}
);
layerId = "873CAA12-270D-4223-A88E-AE8E101FDBE8";
paths = (
{
closed = 1;
nodes = (
"477 255 OFFCURVE",
"575 332 OFFCURVE",
"575 474 CURVE SMOOTH",
"575 592 OFFCURVE",
"507 684 OFFCURVE",
"383 684 CURVE SMOOTH",
"143 684 LINE",
"143 627 LINE",
"369 627 LINE SMOOTH",
"460 627 OFFCURVE",
"516 570 OFFCURVE",
"516 474 CURVE SMOOTH",
"516 373 OFFCURVE",
"454 310 OFFCURVE",
"337 310 CURVE SMOOTH",
"316 310 OFFCURVE",
"298 312 OFFCURVE",
"278 315 CURVE",
"278 260 LINE",
"293 257 OFFCURVE",
"310 255 OFFCURVE",
"333 255 CURVE SMOOTH"
);
},
{
closed = 1;
nodes = (
"227 -1 LINE",
"227 569 LINE",
"166 569 LINE",
"166 -1 LINE"
);
}
);
width = 623;
},
{
anchors = (
{
name = bottom;
position = "{312, 0}";
},
{
name = top;
position = "{312, 684}";
}
);
hints = (
{
origin = "{0, 6}";
type = Corner;
name = _corner.caps_swash;
}
);
layerId = "0CAF3BED-C4AC-4024-B3E1-4C69D1EF7EC0";
paths = (
{
closed = 1;
nodes = (
"486 247 OFFCURVE",
"588 328 OFFCURVE",
"588 471 CURVE SMOOTH",
"588 589 OFFCURVE",
"517 686 OFFCURVE",
"391 686 CURVE SMOOTH",
"147 686 LINE",
"147 609 LINE",
"377 609 LINE SMOOTH",
"458 609 OFFCURVE",
"508 557 OFFCURVE",
"508 471 CURVE SMOOTH",
"508 380 OFFCURVE",
"453 323 OFFCURVE",
"356 323 CURVE SMOOTH",
"332 323 OFFCURVE",
"312 324 OFFCURVE",
"287 330 CURVE",
"287 254 LINE",
"304 250 OFFCURVE",
"326 247 OFFCURVE",
"352 247 CURVE SMOOTH"
);
},
{
closed = 1;
nodes = (
"251 -1 LINE",
"251 569 LINE",
"168 569 LINE",
"168 -1 LINE"
);
}
);
width = 634;
},
{
anchors = (
{
name = bottom;
position = "{314, 0}";
},
{
name = top;
position = "{314, 684}";
}
);
hints = (
{
origin = "{0, 6}";
type = Corner;
name = _corner.caps_swash;
}
);
layerId = "49C16FD3-6177-408B-A733-AEB3898BB77C";
paths = (
{
closed = 1;
nodes = (
"482 262 OFFCURVE",
"578 337 OFFCURVE",
"578 478 CURVE SMOOTH",
"578 595 OFFCURVE",
"512 685 OFFCURVE",
"389 685 CURVE SMOOTH",
"144 685 LINE",
"144 644 LINE",
"375 644 LINE SMOOTH",
"472 644 OFFCURVE",
"535 580 OFFCURVE",
"535 478 CURVE SMOOTH",
"535 372 OFFCURVE",
"466 301 OFFCURVE",
"342 301 CURVE SMOOTH",
"325 301 OFFCURVE",
"307 303 OFFCURVE",
"291 305 CURVE",
"291 266 LINE",
"316 263 OFFCURVE",
"321 262 OFFCURVE",
"338 262 CURVE SMOOTH"
);
},
{
closed = 1;
nodes = (
"221 0 LINE",
"221 569 LINE",
"176 569 LINE",
"176 0 LINE"
);
}
);
width = 631;
}
);
leftKerningGroup = Swash;
rightKerningGroup = P;
userData = {
position = 480;
width = 59;
};
},
{
glyphname = Thorn;
lastChange = "2019-10-24 18:14:08 +0000";
layers = (
{
anchors = (
{
name = bottom;
position = "{280, 0}";
},
{
name = top;
position = "{280, 684}";
}
);
layerId = "873CAA12-270D-4223-A88E-AE8E101FDBE8";
paths = (
{
closed = 1;
nodes = (
"160 0 LINE",
"160 507 LINE",
"298 507 LINE SMOOTH",
"391 507 OFFCURVE",
"450 456 OFFCURVE",
"450 356 CURVE SMOOTH",
"450 241 OFFCURVE",
"372 193 OFFCURVE",
"271 193 CURVE SMOOTH",
"251 193 OFFCURVE",
"234 195 OFFCURVE",
"214 198 CURVE",
"214 141 LINE",
"227 139 OFFCURVE",
"244 137 OFFCURVE",
"268 137 CURVE SMOOTH",
"403 137 OFFCURVE",
"510 201 OFFCURVE",
"510 352 CURVE SMOOTH",
"510 477 OFFCURVE",
"436 556 OFFCURVE",
"317 563 CURVE",
"160 563 LINE",
"160 684 LINE",
"100 684 LINE",
"100 0 LINE"
);
}
);
width = 558;
},
{
anchors = (
{
name = bottom;
position = "{282, 0}";
},
{
name = top;
position = "{282, 684}";
}
);
layerId = "0CAF3BED-C4AC-4024-B3E1-4C69D1EF7EC0";
paths = (
{
closed = 1;
nodes = (
"179 -1 LINE",
"179 493 LINE",
"300 493 LINE SMOOTH",
"384 493 OFFCURVE",
"436 446 OFFCURVE",
"436 356 CURVE SMOOTH",
"436 253 OFFCURVE",
"367 208 OFFCURVE",
"274 208 CURVE SMOOTH",
"251 208 OFFCURVE",
"230 211 OFFCURVE",
"205 215 CURVE",
"205 138 LINE",
"217 136 OFFCURVE",
"240 132 OFFCURVE",
"271 132 CURVE SMOOTH",
"406 132 OFFCURVE",
"518 200 OFFCURVE",
"518 353 CURVE SMOOTH",
"518 478 OFFCURVE",
"440 562 OFFCURVE",
"320 569 CURVE",
"179 569 LINE",
"179 686 LINE",
"97 686 LINE",
"97 -1 LINE"
);
}
);
width = 564;
},
{
anchors = (
{
name = bottom;
position = "{271, 0}";
},
{
name = top;
position = "{271, 684}";
}
);
layerId = "49C16FD3-6177-408B-A733-AEB3898BB77C";
paths = (
{
closed = 1;
nodes = (
"147 1 LINE",
"147 520 LINE",
"296 520 LINE SMOOTH",
"395 520 OFFCURVE",
"461 464 OFFCURVE",
"461 357 CURVE SMOOTH",
"461 235 OFFCURVE",
"375 180 OFFCURVE",
"268 180 CURVE SMOOTH",
"251 180 OFFCURVE",
"234 180 OFFCURVE",
"217 183 CURVE",
"217 145 LINE",
"227 143 OFFCURVE",
"244 142 OFFCURVE",
"265 142 CURVE SMOOTH",
"401 142 OFFCURVE",
"503 204 OFFCURVE",
"503 353 CURVE SMOOTH",
"503 478 OFFCURVE",
"433 553 OFFCURVE",
"315 560 CURVE",
"147 560 LINE",
"147 685 LINE",
"105 685 LINE",
"105 1 LINE"
);
}
);
width = 556;
}
);
rightKerningGroup = O;
unicode = 00DE;
userData = {
position = 403;
width = 59;
};
},
{
glyphname = Q;
lastChange = "2019-10-24 18:14:08 +0000";
layers = (
{
anchors = (
{
name = bottom;
position = "{390, 0}";
},
{
name = top;
position = "{390, 684}";
}
);
layerId = "873CAA12-270D-4223-A88E-AE8E101FDBE8";
paths = (
{
closed = 1;
nodes = (
"272 -138 LINE",
"371 -171 LINE SMOOTH",
"412 -185 OFFCURVE",
"450 -193 OFFCURVE",
"501 -193 CURVE SMOOTH",
"537 -193 OFFCURVE",
"562 -189 OFFCURVE",
"616 -150 CURVE",
"591 -106 LINE",
"549 -135 OFFCURVE",
"525 -141 OFFCURVE",
"494 -141 CURVE SMOOTH",
"463 -141 OFFCURVE",
"421 -134 OFFCURVE",
"383 -121 CURVE SMOOTH",
"303 -94 LINE",
"362 -9 LINE",
"390 -9 LINE SMOOTH",
"589 -9 OFFCURVE",
"722 138 OFFCURVE",
"722 341 CURVE SMOOTH",
"722 542 OFFCURVE",
"592 694 OFFCURVE",
"389 694 CURVE SMOOTH",
"189 694 OFFCURVE",
"57 545 OFFCURVE",
"57 342 CURVE SMOOTH",
"57 179 OFFCURVE",
"140 39 OFFCURVE",
"305 0 CURVE",
"187 -166 LINE",
"230 -199 LINE"
);
},
{
closed = 1;
nodes = (
"217 45 OFFCURVE",
"117 174 OFFCURVE",
"117 343 CURVE SMOOTH",
"117 514 OFFCURVE",
"220 639 OFFCURVE",
"390 639 CURVE SMOOTH",
"560 639 OFFCURVE",
"662 513 OFFCURVE",
"662 343 CURVE SMOOTH",
"662 173 OFFCURVE",
"561 45 OFFCURVE",
"389 45 CURVE SMOOTH"
);
}
);
width = 779;
},
{
anchors = (
{
name = bottom;
position = "{388, 0}";
},
{
name = top;
position = "{388, 684}";
}
);
layerId = "0CAF3BED-C4AC-4024-B3E1-4C69D1EF7EC0";
paths = (
{
closed = 1;
nodes = (
"279 -137 LINE",
"367 -166 LINE SMOOTH",
"412 -181 OFFCURVE",
"449 -188 OFFCURVE",
"496 -188 CURVE SMOOTH",
"534 -188 OFFCURVE",
"563 -183 OFFCURVE",
"623 -138 CURVE",
"587 -75 LINE",
"541 -108 OFFCURVE",
"521 -114 OFFCURVE",
"490 -114 CURVE SMOOTH",
"459 -114 OFFCURVE",
"422 -107 OFFCURVE",
"386 -95 CURVE SMOOTH",
"323 -74 LINE",
"367 -9 LINE",
"388 -9 LINE SMOOTH",
"587 -9 OFFCURVE",
"724 140 OFFCURVE",
"724 342 CURVE SMOOTH",
"724 541 OFFCURVE",
"590 696 OFFCURVE",
"388 696 CURVE SMOOTH",
"189 696 OFFCURVE",
"54 544 OFFCURVE",
"54 343 CURVE SMOOTH",
"54 187 OFFCURVE",
"133 48 OFFCURVE",
"287 4 CURVE",
"176 -152 LINE",
"236 -199 LINE"
);
},
{
closed = 1;
nodes = (
"228 65 OFFCURVE",
"136 186 OFFCURVE",
"136 344 CURVE SMOOTH",
"136 503 OFFCURVE",
"231 622 OFFCURVE",
"389 622 CURVE SMOOTH",
"546 622 OFFCURVE",
"642 502 OFFCURVE",
"642 344 CURVE SMOOTH",
"642 185 OFFCURVE",
"547 65 OFFCURVE",
"388 65 CURVE SMOOTH"
);
}
);
width = 778;
},
{
anchors = (
{
name = bottom;
position = "{395, 0}";
},
{
name = top;
position = "{395, 684}";
}
);
layerId = "49C16FD3-6177-408B-A733-AEB3898BB77C";
paths = (
{
closed = 1;
nodes = (
"269 -138 LINE",
"377 -174 LINE SMOOTH",
"424 -190 OFFCURVE",
"460 -197 OFFCURVE",
"508 -197 CURVE SMOOTH",
"541 -197 OFFCURVE",
"566 -193 OFFCURVE",
"615 -159 CURVE",
"597 -129 LINE",
"558 -155 OFFCURVE",
"532 -161 OFFCURVE",
"501 -161 CURVE SMOOTH",
"467 -161 OFFCURVE",
"426 -154 OFFCURVE",
"384 -140 CURVE SMOOTH",
"292 -109 LINE",
"361 -8 LINE",
"395 -8 LINE SMOOTH",
"594 -8 OFFCURVE",
"726 138 OFFCURVE",
"726 342 CURVE SMOOTH",
"726 544 OFFCURVE",
"597 695 OFFCURVE",
"394 695 CURVE SMOOTH",
"193 695 OFFCURVE",
"62 547 OFFCURVE",
"62 343 CURVE SMOOTH",
"62 174 OFFCURVE",
"149 33 OFFCURVE",
"323 -1 CURVE",
"198 -176 LINE",
"229 -199 LINE"
);
},
{
closed = 1;
nodes = (
"213 30 OFFCURVE",
"104 168 OFFCURVE",
"104 344 CURVE SMOOTH",
"104 522 OFFCURVE",
"216 657 OFFCURVE",
"395 657 CURVE SMOOTH",
"572 657 OFFCURVE",
"684 522 OFFCURVE",
"684 344 CURVE SMOOTH",
"684 167 OFFCURVE",
"574 30 OFFCURVE",
"394 30 CURVE SMOOTH"
);
}
);
width = 788;
}
);
leftKerningGroup = O;
rightKerningGroup = O;
unicode = 0051;
userData = {
position = 652;
width = 60;
};
},
{
glyphname = R;
lastChange = "2019-10-24 18:36:51 +0000";
layers = (
{
anchors = (
{
name = bottom;
position = "{333, 0}";
},
{
name = top;
position = "{310, 684}";
}
);
hints = (
{
origin = "{0, 48}";
type = Corner;
name = _corner.caps_left;
}
);
layerId = "873CAA12-270D-4223-A88E-AE8E101FDBE8";
paths = (
{
closed = 1;
nodes = (
"150 0 LINE",
"210 0 LINE",
"210 628 LINE",
"370 628 LINE SMOOTH",
"448 628 OFFCURVE",
"502 566 OFFCURVE",
"502 477 CURVE SMOOTH",
"502 388 OFFCURVE",
"447 332 OFFCURVE",
"359 332 CURVE SMOOTH",
"272 332 LINE",
"272 276 LINE",
"349 269 OFFCURVE",
"378 232 OFFCURVE",
"407 193 CURVE SMOOTH",
"526 29 LINE SMOOTH",
"545 3 OFFCURVE",
"570 -10 OFFCURVE",
"600 -10 CURVE SMOOTH",
"631 -10 OFFCURVE",
"660 5 OFFCURVE",
"676 29 CURVE",
"629 63 LINE",
"622 52 OFFCURVE",
"611 45 OFFCURVE",
"599 45 CURVE SMOOTH",
"589 45 OFFCURVE",
"581 50 OFFCURVE",
"573 61 CURVE SMOOTH",
"428 257 LINE SMOOTH",
"420 268 OFFCURVE",
"401 282 OFFCURVE",
"390 285 CURVE SMOOTH",
"386 286 OFFCURVE",
"381 288 OFFCURVE",
"377 289 CURVE",
"385 289 OFFCURVE",
"394 290 OFFCURVE",
"402 290 CURVE SMOOTH",
"495 290 OFFCURVE",
"562 373 OFFCURVE",
"562 477 CURVE SMOOTH",
"562 561 OFFCURVE",
"520 635 OFFCURVE",
"454 667 CURVE SMOOTH",
"431 678 OFFCURVE",
"405 684 OFFCURVE",
"374 684 CURVE SMOOTH",
"150 684 LINE"
);
}
);
width = 705;
},
{
anchors = (
{
name = bottom;
position = "{345, 11}";
},
{
name = top;
position = "{332, 684}";
}
);
hints = (
{
origin = "{0, 48}";
type = Corner;
name = _corner.caps_left;
}
);
layerId = "0CAF3BED-C4AC-4024-B3E1-4C69D1EF7EC0";
paths = (
{
closed = 1;
nodes = (
"156 -1 LINE",
"238 -1 LINE",
"238 611 LINE",
"382 611 LINE SMOOTH",
"450 611 OFFCURVE",
"498 554 OFFCURVE",
"498 474 CURVE SMOOTH",
"498 394 OFFCURVE",
"449 345 OFFCURVE",
"371 345 CURVE SMOOTH",
"295 345 LINE",
"295 268 LINE",
"365 264 OFFCURVE",
"373 240 OFFCURVE",
"408 192 CURVE SMOOTH",
"523 32 LINE SMOOTH",
"543 5 OFFCURVE",
"572 -10 OFFCURVE",
"604 -10 CURVE SMOOTH",
"639 -10 OFFCURVE",
"673 9 OFFCURVE",
"691 38 CURVE",
"628 82 LINE",
"624 72 OFFCURVE",
"616 66 OFFCURVE",
"607 66 CURVE SMOOTH",
"600 66 OFFCURVE",
"593 70 OFFCURVE",
"588 77 CURVE SMOOTH",
"485 222 LINE SMOOTH",
"476 234 OFFCURVE",
"461 253 OFFCURVE",
"452 264 CURVE SMOOTH",
"444 274 OFFCURVE",
"434 284 OFFCURVE",
"421 289 CURVE",
"445 289 OFFCURVE",
"473 296 OFFCURVE",
"489 306 CURVE SMOOTH",
"547 342 OFFCURVE",
"580 404 OFFCURVE",
"580 474 CURVE SMOOTH",
"580 558 OFFCURVE",
"535 637 OFFCURVE",
"468 669 CURVE SMOOTH",
"443 681 OFFCURVE",
"415 686 OFFCURVE",
"385 686 CURVE SMOOTH",
"156 686 LINE"
);
}
);
width = 718;
},
{
anchors = (
{
name = bottom;
position = "{320, -8}";
},
{
name = top;
position = "{285, 684}";
}
);
hints = (
{
origin = "{0, 48}";
type = Corner;
name = _corner.caps_left;
}
);
layerId = "49C16FD3-6177-408B-A733-AEB3898BB77C";
paths = (
{
closed = 1;
nodes = (
"143 1 LINE",
"185 1 LINE",
"185 645 LINE",
"358 645 LINE SMOOTH",
"442 645 OFFCURVE",
"504 575 OFFCURVE",
"504 482 CURVE SMOOTH",
"504 387 OFFCURVE",
"441 323 OFFCURVE",
"347 323 CURVE SMOOTH",
"266 323 LINE",
"266 284 LINE",
"344 274 OFFCURVE",
"374 234 OFFCURVE",
"402 196 CURVE SMOOTH",
"525 28 LINE SMOOTH",
"544 3 OFFCURVE",
"567 -9 OFFCURVE",
"594 -9 CURVE SMOOTH",
"622 -9 OFFCURVE",
"647 3 OFFCURVE",
"662 24 CURVE",
"631 45 LINE",
"622 36 OFFCURVE",
"607 30 OFFCURVE",
"593 30 CURVE SMOOTH",
"580 30 OFFCURVE",
"568 37 OFFCURVE",
"558 50 CURVE SMOOTH",
"410 250 LINE SMOOTH",
"397 267 OFFCURVE",
"382 281 OFFCURVE",
"372 285 CURVE SMOOTH",
"365 288 OFFCURVE",
"358 291 OFFCURVE",
"351 294 CURVE",
"364 294 OFFCURVE",
"377 294 OFFCURVE",
"390 294 CURVE SMOOTH",
"479 294 OFFCURVE",
"546 375 OFFCURVE",
"546 482 CURVE SMOOTH",
"546 565 OFFCURVE",
"506 636 OFFCURVE",
"441 668 CURVE SMOOTH",
"417 680 OFFCURVE",
"391 685 OFFCURVE",
"362 685 CURVE SMOOTH",
"143 684 LINE"
);
}
);
width = 696;
}
);
leftKerningGroup = E;
rightKerningGroup = K;
unicode = 0052;
userData = {
position = 619;
width = 57;
};
},
{
glyphname = R.ss01;
lastChange = "2019-10-24 18:16:34 +0000";
layers = (
{
anchors = (
{
name = bottom;
position = "{323, 0}";
},
{
name = top;
position = "{266, 684}";
}
);
layerId = "873CAA12-270D-4223-A88E-AE8E101FDBE8";
paths = (
{
closed = 1;
nodes = (
"566 -7 OFFCURVE",
"579 -3 OFFCURVE",
"593 7 CURVE",
"568 56 LINE",
"563 52 OFFCURVE",
"556 50 OFFCURVE",
"548 50 CURVE SMOOTH",
"534 50 OFFCURVE",
"528 56 OFFCURVE",
"520 65 CURVE SMOOTH",
"498 90 OFFCURVE",
"400 227 OFFCURVE",
"378 256 CURVE SMOOTH",
"365 273 OFFCURVE",
"346 288 OFFCURVE",
"323 293 CURVE",
"326 293 OFFCURVE",
"367 291 OFFCURVE",
"386 295 CURVE SMOOTH",
"430 304 OFFCURVE",
"511 369 OFFCURVE",
"511 483 CURVE SMOOTH",
"511 596 OFFCURVE",
"432 684 OFFCURVE",
"323 684 CURVE SMOOTH",
"99 684 LINE",
"99 628 LINE",
"319 628 LINE SMOOTH",
"396 628 OFFCURVE",
"451 565 OFFCURVE",
"451 477 CURVE SMOOTH",
"451 388 OFFCURVE",
"395 332 OFFCURVE",
"308 332 CURVE SMOOTH",
"221 332 LINE",
"221 276 LINE",
"281 272 OFFCURVE",
"308 257 OFFCURVE",
"355 193 CURVE SMOOTH",
"474 32 LINE SMOOTH",
"484 19 OFFCURVE",
"505 -7 OFFCURVE",
"549 -7 CURVE SMOOTH"
);
},
{
closed = 1;
nodes = (
"159 0 LINE",
"159 672 LINE",
"99 672 LINE",
"99 0 LINE"
);
}
);
width = 623;
},
{
anchors = (
{
name = bottom;
position = "{324, 0}";
},
{
name = top;
position = "{267, 684}";
}
);
layerId = "0CAF3BED-C4AC-4024-B3E1-4C69D1EF7EC0";
paths = (
{
closed = 1;
nodes = (
"574 -10 OFFCURVE",
"595 -3 OFFCURVE",
"607 10 CURVE",
"571 73 LINE",
"564 66 OFFCURVE",
"559 64 OFFCURVE",
"550 64 CURVE SMOOTH",
"540 64 OFFCURVE",
"533 69 OFFCURVE",
"521 84 CURVE SMOOTH",
"494 118 OFFCURVE",
"407 238 OFFCURVE",
"396 252 CURVE SMOOTH",
"375 278 OFFCURVE",
"363 286 OFFCURVE",
"324 297 CURVE",
"330 297 OFFCURVE",
"376 296 OFFCURVE",
"404 304 CURVE SMOOTH",
"468 322 OFFCURVE",
"521 398 OFFCURVE",
"521 484 CURVE SMOOTH",
"521 591 OFFCURVE",
"438 686 OFFCURVE",
"327 686 CURVE SMOOTH",
"97 686 LINE",
"97 610 LINE",
"323 610 LINE SMOOTH",
"391 610 OFFCURVE",
"439 554 OFFCURVE",
"439 474 CURVE SMOOTH",
"439 394 OFFCURVE",
"390 345 OFFCURVE",
"312 345 CURVE SMOOTH",
"216 345 LINE",
"216 268 LINE",
"294 266 OFFCURVE",
"321 229 OFFCURVE",
"349 191 CURVE SMOOTH",
"465 32 LINE SMOOTH",
"486 4 OFFCURVE",
"514 -10 OFFCURVE",
"549 -10 CURVE SMOOTH"
);
},
{
closed = 1;
nodes = (
"179 -1 LINE",
"179 675 LINE",
"97 675 LINE",
"97 -1 LINE"
);
}
);
width = 634;
},
{
anchors = (
{
name = bottom;
position = "{253, -3}";
},
{
name = top;
position = "{253, 684}";
}
);
layerId = "49C16FD3-6177-408B-A733-AEB3898BB77C";
paths = (
{
closed = 1;
nodes = (
"571 -8 OFFCURVE",
"579 -6 OFFCURVE",
"589 0 CURVE",
"572 33 LINE",
"568 31 OFFCURVE",
"563 30 OFFCURVE",
"554 30 CURVE SMOOTH",
"540 30 OFFCURVE",
"529 37 OFFCURVE",
"521 48 CURVE SMOOTH",
"503 73 OFFCURVE",
"389 227 OFFCURVE",
"365 258 CURVE SMOOTH",
"347 281 OFFCURVE",
"334 289 OFFCURVE",
"299 294 CURVE",
"321 294 OFFCURVE",
"335 295 OFFCURVE",
"352 296 CURVE SMOOTH",
"447 302 OFFCURVE",
"510 374 OFFCURVE",
"510 483 CURVE SMOOTH",
"510 600 OFFCURVE",
"432 684 OFFCURVE",
"324 684 CURVE SMOOTH",
"104 684 LINE",
"104 644 LINE",
"320 644 LINE SMOOTH",
"406 644 OFFCURVE",
"468 576 OFFCURVE",
"468 482 CURVE SMOOTH",
"468 385 OFFCURVE",
"404 320 OFFCURVE",
"309 320 CURVE SMOOTH",
"231 320 LINE",
"231 283 LINE",
"285 277 OFFCURVE",
"322 256 OFFCURVE",
"367 194 CURVE SMOOTH",
"488 27 LINE SMOOTH",
"505 4 OFFCURVE",
"527 -8 OFFCURVE",
"555 -8 CURVE SMOOTH"
);
},
{
closed = 1;
nodes = (
"146 0 LINE",
"146 671 LINE",
"104 671 LINE",
"104 0 LINE"
);
}
);
width = 623;
}
);
rightKerningGroup = K;
userData = {
position = 619;
width = 57;
};
},
{
glyphname = R.swsh;
lastChange = "2019-10-24 18:37:15 +0000";
layers = (
{
anchors = (
{
name = bottom;
position = "{396, 0}";
},
{
name = top;
position = "{396, 0}";
}
);
hints = (
{
origin = "{0, 25}";
type = Corner;
name = _corner.caps_swash;
}
);
layerId = "873CAA12-270D-4223-A88E-AE8E101FDBE8";
paths = (
{
closed = 1;
nodes = (
"672 -10 OFFCURVE",
"707 32 OFFCURVE",
"707 79 CURVE",
"650 81 LINE",
"650 58 OFFCURVE",
"634 45 OFFCURVE",
"617 45 CURVE SMOOTH",
"607 45 OFFCURVE",
"598 49 OFFCURVE",
"589 61 CURVE SMOOTH",
"544 121 OFFCURVE",
"493 192 OFFCURVE",
"443 257 CURVE SMOOTH",
"433 270 OFFCURVE",
"416 283 OFFCURVE",
"392 289 CURVE",
"400 290 OFFCURVE",
"415 291 OFFCURVE",
"417 291 CURVE SMOOTH",
"519 299 OFFCURVE",
"577 380 OFFCURVE",
"577 478 CURVE SMOOTH",
"577 589 OFFCURVE",
"504 684 OFFCURVE",
"389 684 CURVE SMOOTH",
"143 684 LINE",
"143 628 LINE",
"385 628 LINE SMOOTH",
"467 628 OFFCURVE",
"517 559 OFFCURVE",
"517 476 CURVE SMOOTH",
"517 388 OFFCURVE",
"461 332 OFFCURVE",
"374 332 CURVE SMOOTH",
"289 332 LINE",
"289 276 LINE",
"366 270 OFFCURVE",
"396 228 OFFCURVE",
"422 193 CURVE SMOOTH",
"542 29 LINE SMOOTH",
"561 3 OFFCURVE",
"586 -10 OFFCURVE",
"617 -10 CURVE SMOOTH"
);
},
{
closed = 1;
nodes = (
"224 0 LINE",
"224 582 LINE",
"164 582 LINE",
"164 0 LINE"
);
}
);
width = 740;
},
{
anchors = (
{
name = bottom;
position = "{403, 11}";
},
{
name = top;
position = "{403, 11}";
}
);
hints = (
{
origin = "{0, 25}";
type = Corner;
name = _corner.caps_swash;
}
);
layerId = "0CAF3BED-C4AC-4024-B3E1-4C69D1EF7EC0";
paths = (
{
closed = 1;
nodes = (
"680 -10 OFFCURVE",
"721 45 OFFCURVE",
"715 99 CURVE",
"638 98 LINE",
"643 78 OFFCURVE",
"632 66 OFFCURVE",
"616 66 CURVE SMOOTH",
"609 66 OFFCURVE",
"603 68 OFFCURVE",
"596 77 CURVE SMOOTH",
"596 77 OFFCURVE",
"591 83 OFFCURVE",
"583 94 CURVE SMOOTH",
"556 131 OFFCURVE",
"497 212 OFFCURVE",
"455 267 CURVE SMOOTH",
"452 271 OFFCURVE",
"438 281 OFFCURVE",
"425 281 CURVE",
"529 290 OFFCURVE",
"591 375 OFFCURVE",
"591 475 CURVE SMOOTH",
"591 586 OFFCURVE",
"514 686 OFFCURVE",
"396 686 CURVE SMOOTH",
"147 686 LINE",
"147 610 LINE",
"393 610 LINE SMOOTH",
"464 610 OFFCURVE",
"509 548 OFFCURVE",
"509 473 CURVE SMOOTH",
"509 394 OFFCURVE",
"459 345 OFFCURVE",
"382 345 CURVE SMOOTH",
"298 345 LINE",
"298 268 LINE",
"375 264 OFFCURVE",
"389 234 OFFCURVE",
"419 192 CURVE SMOOTH",
"534 32 LINE SMOOTH",
"555 3 OFFCURVE",
"586 -10 OFFCURVE",
"616 -10 CURVE SMOOTH"
);
},
{
closed = 1;
nodes = (
"248 -1 LINE",
"248 569 LINE",
"166 569 LINE",
"166 -1 LINE"
);
}
);
width = 747;
},
{
anchors = (
{
name = bottom;
position = "{404, -10}";
},
{
name = top;
position = "{404, -10}";
}
);
hints = (
{
origin = "{0, 25}";
type = Corner;
name = _corner.caps_swash;
}
);
layerId = "49C16FD3-6177-408B-A733-AEB3898BB77C";
paths = (
{
closed = 1;
nodes = (
"675 -9 OFFCURVE",
"708 18 OFFCURVE",
"713 62 CURVE",
"676 63 LINE",
"671 41 OFFCURVE",
"653 26 OFFCURVE",
"634 26 CURVE SMOOTH",
"621 26 OFFCURVE",
"610 31 OFFCURVE",
"596 49 CURVE SMOOTH",
"543 118 OFFCURVE",
"496 184 OFFCURVE",
"441 256 CURVE SMOOTH",
"434 265 OFFCURVE",
"414 289 OFFCURVE",
"378 292 CURVE",
"394 292 OFFCURVE",
"424 292 OFFCURVE",
"424 292 CURVE SMOOTH",
"520 291 OFFCURVE",
"580 386 OFFCURVE",
"580 484 CURVE SMOOTH",
"580 594 OFFCURVE",
"510 685 OFFCURVE",
"397 685 CURVE SMOOTH",
"144 685 LINE",
"144 645 LINE",
"393 645 LINE SMOOTH",
"482 645 OFFCURVE",
"540 569 OFFCURVE",
"540 482 CURVE SMOOTH",
"540 388 OFFCURVE",
"475 321 OFFCURVE",
"382 321 CURVE SMOOTH",
"302 321 LINE",
"302 285 LINE",
"371 276 OFFCURVE",
"403 243 OFFCURVE",
"438 196 CURVE SMOOTH",
"563 28 LINE SMOOTH",
"580 6 OFFCURVE",
"599 -9 OFFCURVE",
"632 -9 CURVE SMOOTH"
);
},
{
closed = 1;
nodes = (
"218 1 LINE",
"218 569 LINE",
"176 569 LINE",
"176 1 LINE"
);
}
);
width = 750;
}
);
leftKerningGroup = Swash;
rightKerningGroup = K;
userData = {
position = 619;
width = 57;
};
},
{
glyphname = S;
lastChange = "2019-10-24 18:14:08 +0000";
layers = (
{
anchors = (
{
name = bottom;
position = "{286, -32}";
},
{
name = top;
position = "{287, 684}";
}
);
layerId = "873CAA12-270D-4223-A88E-AE8E101FDBE8";
paths = (
{
closed = 1;
nodes = (
"411 -21 OFFCURVE",
"513 74 OFFCURVE",
"513 194 CURVE SMOOTH",
"513 282 OFFCURVE",
"460 340 OFFCURVE",
"319 400 CURVE SMOOTH",
"208 447 OFFCURVE",
"164 486 OFFCURVE",
"164 543 CURVE SMOOTH",
"164 602 OFFCURVE",
"221 651 OFFCURVE",
"291 651 CURVE SMOOTH",
"346 651 OFFCURVE",
"394 621 OFFCURVE",
"394 587 CURVE SMOOTH",
"394 565 OFFCURVE",
"376 548 OFFCURVE",
"354 551 CURVE",
"350 499 LINE",
"408 492 OFFCURVE",
"452 534 OFFCURVE",
"452 586 CURVE SMOOTH",
"452 655 OFFCURVE",
"383 706 OFFCURVE",
"290 706 CURVE SMOOTH",
"183 706 OFFCURVE",
"104 635 OFFCURVE",
"104 540 CURVE SMOOTH",
"104 459 OFFCURVE",
"154 409 OFFCURVE",
"284 354 CURVE SMOOTH",
"416 299 OFFCURVE",
"453 262 OFFCURVE",
"453 193 CURVE SMOOTH",
"453 103 OFFCURVE",
"379 34 OFFCURVE",
"282 34 CURVE SMOOTH",
"188 34 OFFCURVE",
"105 92 OFFCURVE",
"84 173 CURVE",
"34 152 LINE",
"59 53 OFFCURVE",
"166 -21 OFFCURVE",
"282 -21 CURVE SMOOTH"
);
}
);
width = 560;
},
{
anchors = (
{
name = bottom;
position = "{285, 0}";
},
{
name = top;
position = "{296, 684}";
}
);
layerId = "0CAF3BED-C4AC-4024-B3E1-4C69D1EF7EC0";
paths = (
{
closed = 1;
nodes = (
"418 -20 OFFCURVE",
"523 75 OFFCURVE",
"523 202 CURVE SMOOTH",
"523 295 OFFCURVE",
"465 356 OFFCURVE",
"322 415 CURVE SMOOTH",
"229 453 OFFCURVE",
"184 492 OFFCURVE",
"184 537 CURVE SMOOTH",
"184 587 OFFCURVE",
"236 629 OFFCURVE",
"298 629 CURVE SMOOTH",
"346 629 OFFCURVE",
"386 605 OFFCURVE",
"386 576 CURVE SMOOTH",
"386 556 OFFCURVE",
"369 542 OFFCURVE",
"352 549 CURVE",
"346 481 LINE",
"413 471 OFFCURVE",
"465 512 OFFCURVE",
"465 577 CURVE SMOOTH",
"465 649 OFFCURVE",
"391 705 OFFCURVE",
"296 705 CURVE SMOOTH",
"187 705 OFFCURVE",
"103 630 OFFCURVE",
"103 533 CURVE SMOOTH",
"103 453 OFFCURVE",
"158 398 OFFCURVE",
"291 343 CURVE SMOOTH",
"407 296 OFFCURVE",
"440 265 OFFCURVE",
"440 201 CURVE SMOOTH",
"440 116 OFFCURVE",
"375 56 OFFCURVE",
"281 56 CURVE SMOOTH",
"192 56 OFFCURVE",
"119 113 OFFCURVE",
"101 196 CURVE",
"32 166 LINE",
"55 55 OFFCURVE",
"154 -20 OFFCURVE",
"279 -20 CURVE SMOOTH"
);
}
);
width = 568;
},
{
anchors = (
{
name = bottom;
position = "{285, 8}";
},
{
name = top;
position = "{277, 684}";
}
);
layerId = "49C16FD3-6177-408B-A733-AEB3898BB77C";
paths = (
{
closed = 1;
nodes = (
"412 -16 OFFCURVE",
"509 73 OFFCURVE",
"509 198 CURVE SMOOTH",
"509 291 OFFCURVE",
"456 344 OFFCURVE",
"297 411 CURVE SMOOTH",
"178 462 OFFCURVE",
"150 487 OFFCURVE",
"150 543 CURVE SMOOTH",
"150 606 OFFCURVE",
"218 661 OFFCURVE",
"295 661 CURVE SMOOTH",
"358 661 OFFCURVE",
"405 628 OFFCURVE",
"405 583 CURVE SMOOTH",
"405 555 OFFCURVE",
"388 537 OFFCURVE",
"364 539 CURVE",
"361 501 LINE",
"405 496 OFFCURVE",
"447 532 OFFCURVE",
"447 585 CURVE SMOOTH",
"447 654 OFFCURVE",
"384 701 OFFCURVE",
"293 701 CURVE SMOOTH",
"187 701 OFFCURVE",
"108 633 OFFCURVE",
"108 541 CURVE SMOOTH",
"108 468 OFFCURVE",
"148 428 OFFCURVE",
"275 375 CURVE SMOOTH",
"421 314 OFFCURVE",
"466 272 OFFCURVE",
"466 197 CURVE SMOOTH",
"466 98 OFFCURVE",
"386 24 OFFCURVE",
"278 24 CURVE SMOOTH",
"184 24 OFFCURVE",
"103 80 OFFCURVE",
"77 164 CURVE",
"39 149 LINE",
"70 50 OFFCURVE",
"165 -16 OFFCURVE",
"277 -16 CURVE SMOOTH"
);
}
);
width = 561;
}
);
leftKerningGroup = S;
rightKerningGroup = S;
unicode = 0053;
userData = {
position = 433;
width = 55;
};
},
{
glyphname = S.ss01;
lastChange = "2019-10-24 18:16:34 +0000";
layers = (
{
anchors = (
{
name = bottom;
position = "{292, 0}";
},
{
name = top;
position = "{285, 684}";
}
);
layerId = "873CAA12-270D-4223-A88E-AE8E101FDBE8";
paths = (
{
closed = 1;
nodes = (
"395 -23 OFFCURVE",
"503 61 OFFCURVE",
"503 186 CURVE SMOOTH",
"503 267 OFFCURVE",
"462 320 OFFCURVE",
"357 376 CURVE SMOOTH",
"290 412 OFFCURVE",
"158 454 OFFCURVE",
"158 544 CURVE SMOOTH",
"158 604 OFFCURVE",
"216 648 OFFCURVE",
"285 648 CURVE SMOOTH",
"329 648 OFFCURVE",
"385 628 OFFCURVE",
"385 586 CURVE",
"441 583 LINE",
"445 652 OFFCURVE",
"372 703 OFFCURVE",
"287 703 CURVE SMOOTH",
"187 703 OFFCURVE",
"98 640 OFFCURVE",
"98 541 CURVE SMOOTH",
"98 437 OFFCURVE",
"196 391 OFFCURVE",
"327 328 CURVE SMOOTH",
"409 288 OFFCURVE",
"443 252 OFFCURVE",
"443 187 CURVE SMOOTH",
"443 95 OFFCURVE",
"370 32 OFFCURVE",
"277 32 CURVE SMOOTH",
"200 32 OFFCURVE",
"113 79 OFFCURVE",
"86 164 CURVE",
"35 144 LINE",
"62 45 OFFCURVE",
"178 -23 OFFCURVE",
"277 -23 CURVE SMOOTH"
);
}
);
width = 549;
},
{
anchors = (
{
name = bottom;
position = "{283, 0}";
},
{
name = top;
position = "{291, 684}";
}
);
layerId = "0CAF3BED-C4AC-4024-B3E1-4C69D1EF7EC0";
paths = (
{
closed = 1;
nodes = (
"405 -21 OFFCURVE",
"513 65 OFFCURVE",
"513 193 CURVE SMOOTH",
"513 279 OFFCURVE",
"466 329 OFFCURVE",
"365 384 CURVE SMOOTH",
"302 418 OFFCURVE",
"182 461 OFFCURVE",
"182 538 CURVE SMOOTH",
"182 587 OFFCURVE",
"232 628 OFFCURVE",
"291 628 CURVE SMOOTH",
"330 628 OFFCURVE",
"385 601 OFFCURVE",
"376 566 CURVE",
"454 561 LINE",
"468 635 OFFCURVE",
"388 704 OFFCURVE",
"293 704 CURVE SMOOTH",
"192 704 OFFCURVE",
"100 637 OFFCURVE",
"100 535 CURVE SMOOTH",
"100 426 OFFCURVE",
"199 381 OFFCURVE",
"318 323 CURVE SMOOTH",
"402 283 OFFCURVE",
"431 251 OFFCURVE",
"431 194 CURVE SMOOTH",
"431 110 OFFCURVE",
"364 55 OFFCURVE",
"283 55 CURVE SMOOTH",
"211 55 OFFCURVE",
"129 102 OFFCURVE",
"107 190 CURVE",
"33 159 LINE",
"55 53 OFFCURVE",
"163 -21 OFFCURVE",
"283 -21 CURVE SMOOTH"
);
}
);
width = 557;
},
{
anchors = (
{
name = bottom;
position = "{268, 0}";
},
{
name = top;
position = "{268, 684}";
}
);
layerId = "49C16FD3-6177-408B-A733-AEB3898BB77C";
paths = (
{
closed = 1;
nodes = (
"393 -21 OFFCURVE",
"497 60 OFFCURVE",
"497 184 CURVE SMOOTH",
"497 264 OFFCURVE",
"436 316 OFFCURVE",
"325 382 CURVE SMOOTH",
"268 416 OFFCURVE",
"148 454 OFFCURVE",
"148 544 CURVE SMOOTH",
"148 608 OFFCURVE",
"212 660 OFFCURVE",
"284 660 CURVE SMOOTH",
"330 660 OFFCURVE",
"388 640 OFFCURVE",
"393 593 CURVE",
"437 591 LINE",
"436 657 OFFCURVE",
"370 700 OFFCURVE",
"287 700 CURVE SMOOTH",
"187 700 OFFCURVE",
"106 638 OFFCURVE",
"106 541 CURVE SMOOTH",
"106 439 OFFCURVE",
"202 407 OFFCURVE",
"312 344 CURVE SMOOTH",
"402 292 OFFCURVE",
"453 254 OFFCURVE",
"453 185 CURVE SMOOTH",
"453 88 OFFCURVE",
"374 19 OFFCURVE",
"276 19 CURVE SMOOTH",
"198 19 OFFCURVE",
"108 67 OFFCURVE",
"78 152 CURVE",
"39 137 LINE",
"68 42 OFFCURVE",
"180 -21 OFFCURVE",
"276 -21 CURVE SMOOTH"
);
}
);
width = 547;
}
);
leftKerningGroup = S;
rightKerningGroup = S;
userData = {
position = 433;
width = 55;
};
},
{
glyphname = S.swsh;
lastChange = "2019-10-24 18:16:34 +0000";
layers = (
{
anchors = (
{
name = bottom;
position = "{276, 0}";
},
{
name = top;
position = "{282, 684}";
}
);
layerId = "873CAA12-270D-4223-A88E-AE8E101FDBE8";
paths = (
{
closed = 1;
nodes = (
"396 -14 OFFCURVE",
"506 67 OFFCURVE",
"506 184 CURVE SMOOTH",
"506 300 OFFCURVE",
"409 356 OFFCURVE",
"307 406 CURVE SMOOTH",
"237 441 OFFCURVE",
"173 473 OFFCURVE",
"173 539 CURVE SMOOTH",
"173 598 OFFCURVE",
"222 642 OFFCURVE",
"284 642 CURVE SMOOTH",
"363 642 OFFCURVE",
"394 611 OFFCURVE",
"394 585 CURVE SMOOTH",
"394 569 OFFCURVE",
"386 560 OFFCURVE",
"375 560 CURVE SMOOTH",
"367 560 OFFCURVE",
"359 566 OFFCURVE",
"356 572 CURVE",
"308 549 LINE",
"323 520 OFFCURVE",
"350 507 OFFCURVE",
"376 507 CURVE SMOOTH",
"421 507 OFFCURVE",
"450 544 OFFCURVE",
"450 589 CURVE SMOOTH",
"450 656 OFFCURVE",
"375 696 OFFCURVE",
"290 696 CURVE SMOOTH",
"192 696 OFFCURVE",
"113 635 OFFCURVE",
"113 539 CURVE SMOOTH",
"113 448 OFFCURVE",
"191 399 OFFCURVE",
"282 356 CURVE SMOOTH",
"367 316 OFFCURVE",
"446 276 OFFCURVE",
"446 185 CURVE SMOOTH",
"446 103 OFFCURVE",
"368 42 OFFCURVE",
"274 42 CURVE SMOOTH",
"198 42 OFFCURVE",
"130 87 OFFCURVE",
"107 146 CURVE SMOOTH",
"97 171 OFFCURVE",
"95 203 OFFCURVE",
"106 232 CURVE",
"52 252 LINE",
"39 214 OFFCURVE",
"40 170 OFFCURVE",
"54 132 CURVE SMOOTH",
"89 38 OFFCURVE",
"178 -14 OFFCURVE",
"276 -14 CURVE SMOOTH"
);
}
);
width = 553;
},
{
anchors = (
{
name = bottom;
position = "{295, -25}";
},
{
name = top;
position = "{300, 694}";
}
);
layerId = "0CAF3BED-C4AC-4024-B3E1-4C69D1EF7EC0";
paths = (
{
closed = 1;
nodes = (
"412 -26 OFFCURVE",
"523 57 OFFCURVE",
"523 182 CURVE SMOOTH",
"523 300 OFFCURVE",
"439 357 OFFCURVE",
"326 411 CURVE SMOOTH",
"266 440 OFFCURVE",
"190 479 OFFCURVE",
"190 542 CURVE SMOOTH",
"190 588 OFFCURVE",
"230 631 OFFCURVE",
"293 631 CURVE SMOOTH",
"345 631 OFFCURVE",
"391 611 OFFCURVE",
"391 585 CURVE SMOOTH",
"391 574 OFFCURVE",
"387 566 OFFCURVE",
"379 566 CURVE SMOOTH",
"373 566 OFFCURVE",
"367 569 OFFCURVE",
"365 575 CURVE",
"303 541 LINE",
"319 510 OFFCURVE",
"351 493 OFFCURVE",
"381 493 CURVE SMOOTH",
"433 493 OFFCURVE",
"468 534 OFFCURVE",
"468 587 CURVE SMOOTH",
"467 642 OFFCURVE",
"419 707 OFFCURVE",
"291 706 CURVE SMOOTH",
"186 705 OFFCURVE",
"108 628 OFFCURVE",
"108 541 CURVE SMOOTH",
"108 444 OFFCURVE",
"193 386 OFFCURVE",
"284 347 CURVE SMOOTH",
"366 312 OFFCURVE",
"441 267 OFFCURVE",
"441 184 CURVE SMOOTH",
"441 109 OFFCURVE",
"367 50 OFFCURVE",
"284 50 CURVE SMOOTH",
"206 50 OFFCURVE",
"145 97 OFFCURVE",
"123 151 CURVE SMOOTH",
"116 168 OFFCURVE",
"113 194 OFFCURVE",
"116 214 CURVE",
"41 225 LINE",
"38 191 OFFCURVE",
"38 161 OFFCURVE",
"50 129 CURVE SMOOTH",
"83 39 OFFCURVE",
"179 -26 OFFCURVE",
"287 -26 CURVE SMOOTH"
);
}
);
width = 569;
},
{
anchors = (
{
name = bottom;
position = "{274, 0}";
},
{
name = top;
position = "{286, 695}";
}
);
layerId = "49C16FD3-6177-408B-A733-AEB3898BB77C";
paths = (
{
closed = 1;
nodes = (
"410 -13 OFFCURVE",
"494 84 OFFCURVE",
"494 183 CURVE SMOOTH",
"494 275 OFFCURVE",
"430 334 OFFCURVE",
"343 378 CURVE SMOOTH",
"261 420 OFFCURVE",
"159 458 OFFCURVE",
"159 541 CURVE SMOOTH",
"159 600 OFFCURVE",
"214 655 OFFCURVE",
"281 655 CURVE SMOOTH",
"331 655 OFFCURVE",
"392 632 OFFCURVE",
"397 595 CURVE SMOOTH",
"401 565 OFFCURVE",
"386 552 OFFCURVE",
"371 552 CURVE SMOOTH",
"361 552 OFFCURVE",
"352 557 OFFCURVE",
"347 568 CURVE",
"311 550 LINE",
"322 524 OFFCURVE",
"348 512 OFFCURVE",
"372 512 CURVE SMOOTH",
"415 512 OFFCURVE",
"439 549 OFFCURVE",
"439 588 CURVE SMOOTH",
"439 656 OFFCURVE",
"366 695 OFFCURVE",
"286 695 CURVE SMOOTH",
"183 695 OFFCURVE",
"117 616 OFFCURVE",
"117 540 CURVE SMOOTH",
"117 429 OFFCURVE",
"231 390 OFFCURVE",
"336 336 CURVE SMOOTH",
"401 303 OFFCURVE",
"452 263 OFFCURVE",
"452 186 CURVE SMOOTH",
"452 97 OFFCURVE",
"373 27 OFFCURVE",
"271 27 CURVE SMOOTH",
"164 27 OFFCURVE",
"89 113 OFFCURVE",
"89 192 CURVE SMOOTH",
"89 205 OFFCURVE",
"91 218 OFFCURVE",
"95 231 CURVE",
"55 244 LINE",
"50 228 OFFCURVE",
"47 211 OFFCURVE",
"47 194 CURVE SMOOTH",
"47 93 OFFCURVE",
"142 -13 OFFCURVE",
"274 -13 CURVE SMOOTH"
);
}
);
width = 546;
},
{
anchors = (
{
name = bottom;
position = "{273, -24}";
},
{
name = top;
position = "{278, 714}";
}
);
associatedMasterId = "49C16FD3-6177-408B-A733-AEB3898BB77C";
layerId = "07BC72AF-B0D1-4139-ADAE-DF16B9206D67";
name = "Sep 24 19, 11:40";
paths = (
{
closed = 1;
nodes = (
"492 228 OFFCURVE",
"470 280 OFFCURVE",
"419 322 CURVE",
"334 394 OFFCURVE",
"204 413 OFFCURVE",
"155 498 CURVE",
"112 575 OFFCURVE",
"181 664 OFFCURVE",
"270 660 CURVE",
"322 659 OFFCURVE",
"386 638 OFFCURVE",
"388 595 CURVE",
"390 546 OFFCURVE",
"348 543 OFFCURVE",
"335 570 CURVE",
"297 551 LINE",
"309 529 OFFCURVE",
"327 516 OFFCURVE",
"351 512 CURVE",
"434 499 OFFCURVE",
"479 630 OFFCURVE",
"369 682 CURVE",
"230 748 OFFCURVE",
"72 653 OFFCURVE",
"99 518 CURVE",
"135 336 OFFCURVE",
"494 360 OFFCURVE",
"442 136 CURVE",
"392 -33 OFFCURVE",
"120 -25 OFFCURVE",
"72 144 CURVE",
"29 131 LINE",
"44 83 OFFCURVE",
"76 42 OFFCURVE",
"117 14 CURVE",
"271 -89 OFFCURVE",
"500 0 OFFCURVE",
"493 183 CURVE"
);
}
);
width = 534;
},
{
anchors = (
{
name = bottom;
position = "{278, -25}";
},
{
name = top;
position = "{283, 706}";
}
);
associatedMasterId = "873CAA12-270D-4223-A88E-AE8E101FDBE8";
layerId = "8F60F1D1-073F-47A4-A90D-78AE31FB1A17";
name = "Sep 24 19, 11:40";
paths = (
{
closed = 1;
nodes = (
"497 236 OFFCURVE",
"475 289 OFFCURVE",
"424 332 CURVE SMOOTH",
"342 400 OFFCURVE",
"215 420 OFFCURVE",
"169 500 CURVE SMOOTH",
"133 565 OFFCURVE",
"184 645 OFFCURVE",
"269 649 CURVE SMOOTH",
"310 649 OFFCURVE",
"372 635 OFFCURVE",
"378 594 CURVE SMOOTH",
"385 549 OFFCURVE",
"348 550 OFFCURVE",
"338 570 CURVE",
"291 546 LINE",
"330 473 OFFCURVE",
"438 499 OFFCURVE",
"436 591 CURVE SMOOTH",
"434 665 OFFCURVE",
"360 700 OFFCURVE",
"275 702 CURVE SMOOTH",
"141 705 OFFCURVE",
"50 566 OFFCURVE",
"128 458 CURVE SMOOTH",
"207 350 OFFCURVE",
"382 351 OFFCURVE",
"432 229 CURVE",
"483 75 OFFCURVE",
"282 -29 OFFCURVE",
"147 71 CURVE SMOOTH",
"119 93 OFFCURVE",
"98 122 OFFCURVE",
"89 155 CURVE",
"35 139 LINE",
"113 -104 OFFCURVE",
"508 -56 OFFCURVE",
"498 191 CURVE SMOOTH"
);
}
);
width = 544;
},
{
anchors = (
{
name = bottom;
position = "{289, -25}";
},
{
name = top;
position = "{294, 696}";
}
);
associatedMasterId = "0CAF3BED-C4AC-4024-B3E1-4C69D1EF7EC0";
layerId = "343A3424-8ADD-44AD-B7AD-98CA22AF63FA";
name = "Sep 24 19, 11:40";
paths = (
{
closed = 1;
nodes = (
"510 346 OFFCURVE",
"334 398 OFFCURVE",
"265 438 CURVE SMOOTH",
"227 459 OFFCURVE",
"180 494 OFFCURVE",
"177 538 CURVE SMOOTH",
"172 577 OFFCURVE",
"202 622 OFFCURVE",
"253 635 CURVE SMOOTH",
"295 646 OFFCURVE",
"359 629 OFFCURVE",
"378 596 CURVE SMOOTH",
"389 577 OFFCURVE",
"380 569 OFFCURVE",
"372 567 CURVE SMOOTH",
"368 566 OFFCURVE",
"362 571 OFFCURVE",
"359 575 CURVE",
"294 543 LINE",
"317 499 OFFCURVE",
"364 486 OFFCURVE",
"402 501 CURVE SMOOTH",
"478 531 OFFCURVE",
"490 662 OFFCURVE",
"356 701 CURVE SMOOTH",
"200 745 OFFCURVE",
"76 638 OFFCURVE",
"101 514 CURVE SMOOTH",
"135 345 OFFCURVE",
"401 359 OFFCURVE",
"433 211 CURVE SMOOTH",
"467 79 OFFCURVE",
"258 -19 OFFCURVE",
"143 102 CURVE SMOOTH",
"130 114 OFFCURVE",
"115 137 OFFCURVE",
"108 162 CURVE",
"35 141 LINE",
"116 -110 OFFCURVE",
"524 -61 OFFCURVE",
"514 196 CURVE SMOOTH"
);
}
);
width = 561;
}
);
leftKerningGroup = S;
rightKerningGroup = S;
userData = {
position = 433;
width = 55;
};
},
{
glyphname = Germandbls;
lastChange = "2019-10-24 18:14:08 +0000";
layers = (
{
anchors = (
{
name = bottom;
position = "{405, 0}";
},
{
name = top;
position = "{405, 684}";
}
);
layerId = "49C16FD3-6177-408B-A733-AEB3898BB77C";
paths = (
{
closed = 1;
nodes = (
"289 0 OFFCURVE",
"309 0 OFFCURVE",
"330 0 CURVE SMOOTH",
"480 0 OFFCURVE",
"581 85 OFFCURVE",
"581 215 CURVE SMOOTH",
"581 360 OFFCURVE",
"478 439 OFFCURVE",
"344 438 CURVE",
"521 684 LINE",
"105 686 LINE",
"105 0 LINE",
"147 0 LINE",
"147 645 LINE",
"443 645 LINE",
"295 438 LINE",
"295 402 LINE",
"304 402 OFFCURVE",
"315 403 OFFCURVE",
"330 403 CURVE SMOOTH",
"460 403 OFFCURVE",
"539 345 OFFCURVE",
"539 211 CURVE SMOOTH",
"539 108 OFFCURVE",
"452 36 OFFCURVE",
"323 36 CURVE SMOOTH",
"303 36 OFFCURVE",
"286 38 OFFCURVE",
"269 38 CURVE",
"269 0 LINE"
);
}
);
width = 634;
},
{
anchors = (
{
name = bottom;
position = "{363, 0}";
},
{
name = top;
position = "{363, 684}";
}
);
layerId = "873CAA12-270D-4223-A88E-AE8E101FDBE8";
paths = (
{
closed = 1;
nodes = (
"292 0 OFFCURVE",
"331 -1 OFFCURVE",
"345 -1 CURVE SMOOTH",
"491 -3 OFFCURVE",
"586 79 OFFCURVE",
"586 216 CURVE SMOOTH",
"586 323 OFFCURVE",
"508 429 OFFCURVE",
"353 436 CURVE",
"542 684 LINE",
"100 685 LINE",
"100 0 LINE",
"160 0 LINE",
"160 629 LINE",
"431 629 LINE",
"287 436 LINE",
"287 381 LINE",
"304 381 OFFCURVE",
"320 382 OFFCURVE",
"335 382 CURVE SMOOTH",
"449 382 OFFCURVE",
"526 326 OFFCURVE",
"526 219 CURVE SMOOTH",
"526 141 OFFCURVE",
"476 63 OFFCURVE",
"379 55 CURVE SMOOTH",
"369 54 OFFCURVE",
"319 53 OFFCURVE",
"266 53 CURVE",
"266 0 LINE"
);
}
);
width = 635;
},
{
anchors = (
{
name = bottom;
position = "{397, 0}";
},
{
name = top;
position = "{397, 684}";
}
);
layerId = "0CAF3BED-C4AC-4024-B3E1-4C69D1EF7EC0";
paths = (
{
closed = 1;
nodes = (
"295 0 OFFCURVE",
"332 0 OFFCURVE",
"354 0 CURVE SMOOTH",
"507 0 OFFCURVE",
"602 64 OFFCURVE",
"602 233 CURVE SMOOTH",
"602 320 OFFCURVE",
"535 432 OFFCURVE",
"389 442 CURVE",
"573 684 LINE",
"97 684 LINE",
"97 -1 LINE",
"179 -1 LINE",
"179 608 LINE",
"416 608 LINE",
"295 445 LINE",
"295 372 LINE",
"307 372 OFFCURVE",
"320 373 OFFCURVE",
"333 373 CURVE SMOOTH",
"419 373 OFFCURVE",
"519 330 OFFCURVE",
"520 232 CURVE SMOOTH",
"521 113 OFFCURVE",
"458 77 OFFCURVE",
"341 77 CURVE SMOOTH",
"320 77 OFFCURVE",
"299 78 OFFCURVE",
"272 78 CURVE",
"272 0 LINE"
);
}
);
width = 651;
}
);
rightKerningGroup = B;
unicode = 1E9E;
},
{
glyphname = Schwa;
lastChange = "2019-10-24 18:14:08 +0000";
layers = (
{
anchors = (
{
name = bottom;
position = "{326, 712}";
},
{
name = ogonek;
position = "{86, 630}";
},
{
name = top;
position = "{323, -19}";
}
);
layerId = "49C16FD3-6177-408B-A733-AEB3898BB77C";
paths = (
{
closed = 1;
nodes = (
"238 702 OFFCURVE",
"155 674 OFFCURVE",
"86 630 CURVE",
"104 600 LINE",
"177 638 OFFCURVE",
"237 663 OFFCURVE",
"321 663 CURVE SMOOTH",
"556 663 OFFCURVE",
"576 443 OFFCURVE",
"576 365 CURVE SMOOTH",
"576 138 OFFCURVE",
"460 20 OFFCURVE",
"326 20 CURVE SMOOTH",
"201 20 OFFCURVE",
"99 123 OFFCURVE",
"99 265 CURVE SMOOTH",
"99 289 OFFCURVE",
"101 318 OFFCURVE",
"107 352 CURVE",
"64 352 LINE",
"61 322 OFFCURVE",
"59 295 OFFCURVE",
"59 269 CURVE SMOOTH",
"59 101 OFFCURVE",
"167 -14 OFFCURVE",
"325 -14 CURVE SMOOTH",
"517 -14 OFFCURVE",
"618 161 OFFCURVE",
"618 365 CURVE SMOOTH",
"618 566 OFFCURVE",
"517 702 OFFCURVE",
"326 702 CURVE SMOOTH"
);
},
{
closed = 1;
nodes = (
"90 352 LINE",
"90 312 LINE",
"591 312 LINE",
"591 352 LINE"
);
}
);
userData = {
RMXScaler = {
height = 140;
weight = -145;
width = 135;
};
};
width = 684;
},
{
anchors = (
{
name = bottom;
position = "{329, 708}";
},
{
name = ogonek;
position = "{83, 630}";
},
{
name = top;
position = "{328, -14}";
}
);
layerId = "873CAA12-270D-4223-A88E-AE8E101FDBE8";
paths = (
{
closed = 1;
nodes = (
"234 707 OFFCURVE",
"147 674 OFFCURVE",
"83 630 CURVE",
"108 588 LINE",
"180 626 OFFCURVE",
"241 652 OFFCURVE",
"324 652 CURVE SMOOTH",
"549 652 OFFCURVE",
"565 444 OFFCURVE",
"565 368 CURVE SMOOTH",
"565 150 OFFCURVE",
"457 35 OFFCURVE",
"330 35 CURVE SMOOTH",
"211 35 OFFCURVE",
"114 134 OFFCURVE",
"114 269 CURVE SMOOTH",
"114 296 OFFCURVE",
"117 326 OFFCURVE",
"124 363 CURVE",
"60 363 LINE",
"57 331 OFFCURVE",
"54 301 OFFCURVE",
"54 273 CURVE SMOOTH",
"54 105 OFFCURVE",
"170 -14 OFFCURVE",
"328 -14 CURVE SMOOTH",
"522 -14 OFFCURVE",
"625 165 OFFCURVE",
"625 367 CURVE SMOOTH",
"625 568 OFFCURVE",
"521 707 OFFCURVE",
"330 707 CURVE SMOOTH"
);
},
{
closed = 1;
nodes = (
"89 363 LINE",
"89 307 LINE",
"598 307 LINE",
"598 363 LINE"
);
}
);
userData = {
RMXScaler = {
height = 140;
weight = -145;
width = 135;
};
};
width = 686;
},
{
anchors = (
{
name = bottom;
position = "{335, 696}";
},
{
name = ogonek;
position = "{77, 629}";
},
{
name = top;
position = "{339, -14}";
}
);
layerId = "0CAF3BED-C4AC-4024-B3E1-4C69D1EF7EC0";
paths = (
{
closed = 1;
nodes = (
"240 712 OFFCURVE",
"148 680 OFFCURVE",
"77 629 CURVE",
"114 569 LINE",
"193 612 OFFCURVE",
"252 636 OFFCURVE",
"328 636 CURVE SMOOTH",
"538 636 OFFCURVE",
"551 442 OFFCURVE",
"551 370 CURVE SMOOTH",
"551 162 OFFCURVE",
"452 59 OFFCURVE",
"333 59 CURVE SMOOTH",
"223 59 OFFCURVE",
"135 146 OFFCURVE",
"135 273 CURVE SMOOTH",
"135 296 OFFCURVE",
"138 328 OFFCURVE",
"146 377 CURVE",
"60 377 LINE",
"57 339 OFFCURVE",
"53 307 OFFCURVE",
"53 277 CURVE SMOOTH",
"53 106 OFFCURVE",
"175 -15 OFFCURVE",
"332 -15 CURVE SMOOTH",
"528 -15 OFFCURVE",
"634 169 OFFCURVE",
"634 369 CURVE SMOOTH",
"634 568 OFFCURVE",
"527 712 OFFCURVE",
"333 712 CURVE SMOOTH"
);
},
{
closed = 1;
nodes = (
"88 377 LINE",
"88 301 LINE",
"607 301 LINE",
"607 377 LINE"
);
}
);
userData = {
RMXScaler = {
height = 140;
weight = -120;
width = 135;
};
};
width = 692;
}
);
leftKerningGroup = O;
rightKerningGroup = O;
unicode = 018F;
userData = {
RMXScaler = {
source = e.ss01;
};
};
},
{
glyphname = T;
lastChange = "2019-10-24 18:14:08 +0000";
layers = (
{
anchors = (
{
name = bottom;
position = "{311, 0}";
},
{
name = center;
position = "{317, 352}";
},
{
name = top;
position = "{310, 684}";
}
);
layerId = "873CAA12-270D-4223-A88E-AE8E101FDBE8";
paths = (
{
closed = 1;
nodes = (
"340 0 LINE",
"340 628 LINE",
"574 628 LINE",
"574 684 LINE",
"121 684 LINE SMOOTH",
"97 684 OFFCURVE",
"76 674 OFFCURVE",
"59 657 CURVE SMOOTH",
"42 640 OFFCURVE",
"33 618 OFFCURVE",
"33 594 CURVE",
"90 594 LINE",
"90 610 OFFCURVE",
"102 628 OFFCURVE",
"124 628 CURVE SMOOTH",
"280 628 LINE",
"280 0 LINE"
);
}
);
width = 607;
},
{
anchors = (
{
name = bottom;
position = "{314, 0}";
},
{
name = center;
position = "{312, 352}";
},
{
name = top;
position = "{319, 684}";
}
);
layerId = "0CAF3BED-C4AC-4024-B3E1-4C69D1EF7EC0";
paths = (
{
closed = 1;
nodes = (
"354 -1 LINE",
"354 610 LINE",
"580 610 LINE",
"580 686 LINE",
"130 686 LINE SMOOTH",
"104 686 OFFCURVE",
"79 675 OFFCURVE",
"61 657 CURVE SMOOTH",
"40 636 OFFCURVE",
"30 605 OFFCURVE",
"33 576 CURVE",
"111 576 LINE",
"104 595 OFFCURVE",
"115 610 OFFCURVE",
"133 610 CURVE SMOOTH",
"272 610 LINE",
"272 -1 LINE"
);
}
);
width = 613;
},
{
anchors = (
{
name = bottom;
position = "{313, 0}";
},
{
name = center;
position = "{312, 352}";
},
{
name = top;
position = "{311, 684}";
}
);
layerId = "49C16FD3-6177-408B-A733-AEB3898BB77C";
paths = (
{
closed = 1;
nodes = (
"332 1 LINE",
"332 645 LINE",
"571 645 LINE",
"571 685 LINE",
"118 685 LINE SMOOTH",
"94 685 OFFCURVE",
"77 676 OFFCURVE",
"61 660 CURVE SMOOTH",
"46 645 OFFCURVE",
"38 630 OFFCURVE",
"37 610 CURVE",
"78 610 LINE",
"83 629 OFFCURVE",
"99 645 OFFCURVE",
"121 645 CURVE SMOOTH",
"290 645 LINE",
"290 1 LINE"
);
}
);
width = 608;
}
);
leftKerningGroup = T;
rightKerningGroup = T;
unicode = 0054;
userData = {
position = 277;
width = 61;
};
},
{
glyphname = T.ss01;
lastChange = "2019-10-24 18:16:34 +0000";
layers = (
{
anchors = (
{
name = bottom;
position = "{297, 0}";
},
{
name = center;
position = "{303, 361}";
},
{
name = top;
position = "{297, 684}";
}
);
layerId = "873CAA12-270D-4223-A88E-AE8E101FDBE8";
paths = (
{
closed = 1;
nodes = (
"327 0 LINE",
"327 628 LINE",
"561 628 LINE",
"561 684 LINE",
"33 684 LINE",
"33 628 LINE",
"267 628 LINE",
"267 0 LINE"
);
}
);
width = 594;
},
{
anchors = (
{
name = bottom;
position = "{302, 0}";
},
{
name = center;
position = "{307, 355}";
},
{
name = top;
position = "{301, 684}";
}
);
layerId = "0CAF3BED-C4AC-4024-B3E1-4C69D1EF7EC0";
paths = (
{
closed = 1;
nodes = (
"342 -1 LINE",
"342 610 LINE",
"569 610 LINE",
"569 686 LINE",
"33 686 LINE",
"33 610 LINE",
"260 610 LINE",
"260 -1 LINE"
);
}
);
width = 602;
},
{
anchors = (
{
name = bottom;
position = "{302, 0}";
},
{
name = center;
position = "{304, 348}";
},
{
name = top;
position = "{298, 684}";
}
);
layerId = "49C16FD3-6177-408B-A733-AEB3898BB77C";
paths = (
{
closed = 1;
nodes = (
"322 1 LINE",
"322 644 LINE",
"561 644 LINE",
"561 685 LINE",
"37 685 LINE",
"37 644 LINE",
"277 644 LINE",
"277 1 LINE"
);
}
);
width = 598;
}
);
leftKerningGroup = T;
rightKerningGroup = T;
userData = {
position = 254;
width = 61;
};
},
{
glyphname = T.swsh;
lastChange = "2019-10-25 05:53:57 +0000";
layers = (
{
anchors = (
{
name = bottom;
position = "{338, 0}";
},
{
name = center;
position = "{343, 342}";
},
{
name = top;
position = "{339, 684}";
}
);
hints = (
{
origin = "{0, 4}";
type = Corner;
name = _corner.caps_swash;
}
);
layerId = "873CAA12-270D-4223-A88E-AE8E101FDBE8";
paths = (
{
closed = 1;
nodes = (
"367 0 LINE",
"367 628 LINE",
"606 628 LINE",
"606 684 LINE",
"143 684 LINE",
"143 628 LINE",
"307 628 LINE",
"307 0 LINE"
);
}
);
width = 640;
},
{
anchors = (
{
name = bottom;
position = "{337, 0}";
},
{
name = center;
position = "{341, 343}";
},
{
name = top;
position = "{336, 687}";
}
);
hints = (
{
origin = "{0, 4}";
type = Corner;
name = _corner.caps_swash;
}
);
layerId = "0CAF3BED-C4AC-4024-B3E1-4C69D1EF7EC0";
paths = (
{
closed = 1;
nodes = (
"376 -1 LINE",
"376 610 LINE",
"607 610 LINE",
"607 686 LINE",
"147 686 LINE",
"147 610 LINE",
"294 610 LINE",
"294 -1 LINE"
);
}
);
width = 640;
},
{
anchors = (
{
name = bottom;
position = "{342, 0}";
},
{
name = center;
position = "{349, 343}";
},
{
name = top;
position = "{343, 684}";
}
);
hints = (
{
origin = "{0, 4}";
type = Corner;
name = _corner.caps_swash;
}
);
layerId = "49C16FD3-6177-408B-A733-AEB3898BB77C";
paths = (
{
closed = 1;
nodes = (
"363 1 LINE",
"363 645 LINE",
"607 645 LINE",
"607 685 LINE",
"144 685 LINE",
"144 645 LINE",
"321 645 LINE",
"321 1 LINE"
);
}
);
width = 644;
}
);
leftKerningGroup = T;
rightKerningGroup = T;
userData = {
position = 277;
width = 61;
};
},
{
glyphname = U;
lastChange = "2019-11-08 13:49:14 +0000";
layers = (
{
anchors = (
{
name = bottom;
position = "{394, -10}";
},
{
name = center;
position = "{393, 342}";
},
{
name = horn;
position = "{622, 684}";
},
{
name = ogonek;
position = "{564, 55}";
},
{
name = top;
position = "{392, 684}";
},
{
name = topright;
position = "{700, 684}";
}
);
hints = (
{
origin = "{0, 12}";
type = Corner;
name = _corner.caps_vert;
}
);
layerId = "873CAA12-270D-4223-A88E-AE8E101FDBE8";
paths = (
{
closed = 1;
nodes = (
"570 -10 OFFCURVE",
"649 132 OFFCURVE",
"649 267 CURVE SMOOTH",
"649 684 LINE",
"589 684 LINE",
"589 267 LINE SMOOTH",
"589 161 OFFCURVE",
"532 46 OFFCURVE",
"393 46 CURVE SMOOTH",
"265 46 OFFCURVE",
"196 145 OFFCURVE",
"196 267 CURVE SMOOTH",
"196 569 LINE",
"136 569 LINE",
"136 267 LINE SMOOTH",
"136 118 OFFCURVE",
"228 -10 OFFCURVE",
"394 -10 CURVE SMOOTH"
);
}
);
width = 734;
},
{
anchors = (
{
name = bottom;
position = "{392, 2}";
},
{
name = center;
position = "{391, 342}";
},
{
name = horn;
position = "{632, 683}";
},
{
name = ogonek;
position = "{557, 47}";
},
{
name = top;
position = "{390, 675}";
},
{
name = topright;
position = "{702, 684}";
}
);
hints = (
{
origin = "{0, 12}";
type = Corner;
name = _corner.caps_vert;
}
);
layerId = "0CAF3BED-C4AC-4024-B3E1-4C69D1EF7EC0";
paths = (
{
closed = 1;
nodes = (
"569 -13 OFFCURVE",
"651 133 OFFCURVE",
"651 267 CURVE SMOOTH",
"651 683 LINE",
"569 683 LINE",
"569 267 LINE SMOOTH",
"569 169 OFFCURVE",
"516 62 OFFCURVE",
"391 62 CURVE SMOOTH",
"275 62 OFFCURVE",
"212 158 OFFCURVE",
"212 267 CURVE SMOOTH",
"212 569 LINE",
"130 569 LINE",
"130 267 LINE SMOOTH",
"130 119 OFFCURVE",
"225 -13 OFFCURVE",
"392 -13 CURVE SMOOTH"
);
}
);
width = 733;
},
{
anchors = (
{
name = bottom;
position = "{386, -18}";
},
{
name = center;
position = "{385, 342}";
},
{
name = horn;
position = "{633, 684}";
},
{
name = ogonek;
position = "{547, 46}";
},
{
name = top;
position = "{377, 684}";
},
{
name = topright;
position = "{686, 684}";
}
);
hints = (
{
origin = "{0, 12}";
type = Corner;
name = _corner.caps_vert;
}
);
layerId = "49C16FD3-6177-408B-A733-AEB3898BB77C";
paths = (
{
closed = 1;
nodes = (
"562 -10 OFFCURVE",
"637 130 OFFCURVE",
"637 265 CURVE SMOOTH",
"637 684 LINE",
"595 684 LINE",
"595 265 LINE SMOOTH",
"595 155 OFFCURVE",
"533 30 OFFCURVE",
"385 30 CURVE SMOOTH",
"249 30 OFFCURVE",
"175 138 OFFCURVE",
"175 265 CURVE SMOOTH",
"175 569 LINE",
"133 569 LINE",
"133 265 LINE SMOOTH",
"133 116 OFFCURVE",
"221 -10 OFFCURVE",
"386 -10 CURVE SMOOTH"
);
}
);
width = 727;
}
);
leftKerningGroup = E;
rightKerningGroup = U;
unicode = 0055;
userData = {
position = 606;
width = 61;
};
},
{
glyphname = U.ss01;
lastChange = "2019-11-08 13:49:32 +0000";
layers = (
{
anchors = (
{
name = bottom;
position = "{341, -10}";
},
{
name = center;
position = "{343, 342}";
},
{
name = horn;
position = "{570, 684}";
},
{
name = ogonek;
position = "{521, 59}";
},
{
name = top;
position = "{348, 684}";
},
{
name = topright;
position = "{647, 684}";
}
);
layerId = "873CAA12-270D-4223-A88E-AE8E101FDBE8";
paths = (
{
closed = 1;
nodes = (
"490 -10 OFFCURVE",
"600 98 OFFCURVE",
"600 267 CURVE SMOOTH",
"600 684 LINE",
"540 684 LINE",
"540 267 LINE SMOOTH",
"540 133 OFFCURVE",
"458 45 OFFCURVE",
"343 45 CURVE SMOOTH",
"230 45 OFFCURVE",
"145 131 OFFCURVE",
"145 267 CURVE SMOOTH",
"145 684 LINE",
"85 684 LINE",
"85 267 LINE SMOOTH",
"85 108 OFFCURVE",
"186 -10 OFFCURVE",
"341 -10 CURVE SMOOTH"
);
}
);
width = 685;
},
{
anchors = (
{
name = bottom;
position = "{353, 0}";
},
{
name = center;
position = "{353, 342}";
},
{
name = horn;
position = "{614, 686}";
},
{
name = ogonek;
position = "{537, 61}";
},
{
name = top;
position = "{358, 675}";
},
{
name = topright;
position = "{678, 684}";
}
);
layerId = "0CAF3BED-C4AC-4024-B3E1-4C69D1EF7EC0";
paths = (
{
closed = 1;
nodes = (
"510 -10 OFFCURVE",
"624 101 OFFCURVE",
"624 270 CURVE SMOOTH",
"624 686 LINE",
"542 686 LINE",
"542 270 LINE SMOOTH",
"542 147 OFFCURVE",
"468 63 OFFCURVE",
"353 63 CURVE SMOOTH",
"241 63 OFFCURVE",
"164 145 OFFCURVE",
"164 270 CURVE SMOOTH",
"164 686 LINE",
"82 686 LINE",
"82 270 LINE SMOOTH",
"82 112 OFFCURVE",
"186 -10 OFFCURVE",
"351 -10 CURVE SMOOTH"
);
}
);
width = 706;
},
{
anchors = (
{
name = bottom;
position = "{340, -9}";
},
{
name = center;
position = "{343, 342}";
},
{
name = horn;
position = "{579, 685}";
},
{
name = ogonek;
position = "{503, 46}";
},
{
name = top;
position = "{349, 684}";
},
{
name = topright;
position = "{658, 686}";
}
);
layerId = "49C16FD3-6177-408B-A733-AEB3898BB77C";
paths = (
{
closed = 1;
nodes = (
"491 -9 OFFCURVE",
"595 98 OFFCURVE",
"595 266 CURVE SMOOTH",
"595 685 LINE",
"553 685 LINE",
"553 266 LINE SMOOTH",
"553 126 OFFCURVE",
"465 31 OFFCURVE",
"343 31 CURVE SMOOTH",
"223 31 OFFCURVE",
"132 124 OFFCURVE",
"132 266 CURVE SMOOTH",
"132 685 LINE",
"90 685 LINE",
"90 266 LINE SMOOTH",
"90 107 OFFCURVE",
"186 -9 OFFCURVE",
"341 -9 CURVE SMOOTH"
);
}
);
width = 685;
}
);
leftKerningGroup = U;
rightKerningGroup = U;
userData = {
position = 564;
width = 61;
};
},
{
glyphname = U.swsh;
lastChange = "2019-10-25 05:53:57 +0000";
layers = (
{
anchors = (
{
name = bottom;
position = "{413, -10}";
},
{
name = center;
position = "{415, 342}";
},
{
name = horn;
position = "{643, 684}";
},
{
name = ogonek;
position = "{599, 67}";
},
{
name = top;
position = "{420, 684}";
},
{
name = topright;
position = "{726, 684}";
}
);
hints = (
{
origin = "{0, 12}";
type = Corner;
name = _corner.caps_swash_vert;
}
);
layerId = "873CAA12-270D-4223-A88E-AE8E101FDBE8";
paths = (
{
closed = 1;
nodes = (
"562 -10 OFFCURVE",
"672 98 OFFCURVE",
"672 267 CURVE SMOOTH",
"672 684 LINE",
"612 684 LINE",
"612 267 LINE SMOOTH",
"612 133 OFFCURVE",
"530 46 OFFCURVE",
"415 46 CURVE SMOOTH",
"302 46 OFFCURVE",
"217 131 OFFCURVE",
"217 267 CURVE SMOOTH",
"217 569 LINE",
"157 569 LINE",
"157 267 LINE SMOOTH",
"157 108 OFFCURVE",
"258 -10 OFFCURVE",
"413 -10 CURVE SMOOTH"
);
}
);
width = 757;
},
{
anchors = (
{
name = bottom;
position = "{412, 0}";
},
{
name = center;
position = "{412, 342}";
},
{
name = horn;
position = "{635, 684}";
},
{
name = ogonek;
position = "{595, 63}";
},
{
name = top;
position = "{417, 675}";
},
{
name = topright;
position = "{727, 684}";
}
);
hints = (
{
origin = "{0, 12}";
type = Corner;
name = _corner.caps_swash_vert;
}
);
layerId = "0CAF3BED-C4AC-4024-B3E1-4C69D1EF7EC0";
paths = (
{
closed = 1;
nodes = (
"559 -10 OFFCURVE",
"673 101 OFFCURVE",
"673 270 CURVE SMOOTH",
"673 686 LINE",
"591 686 LINE",
"591 270 LINE SMOOTH",
"591 147 OFFCURVE",
"517 63 OFFCURVE",
"412 63 CURVE SMOOTH",
"310 63 OFFCURVE",
"233 145 OFFCURVE",
"233 270 CURVE SMOOTH",
"233 569 LINE",
"151 569 LINE",
"151 270 LINE SMOOTH",
"151 112 OFFCURVE",
"255 -10 OFFCURVE",
"410 -10 CURVE SMOOTH"
);
}
);
width = 755;
},
{
anchors = (
{
name = bottom;
position = "{406, -9}";
},
{
name = center;
position = "{409, 342}";
},
{
name = horn;
position = "{640, 684}";
},
{
name = ogonek;
position = "{587, 61}";
},
{
name = top;
position = "{415, 694}";
},
{
name = topright;
position = "{667, 684}";
}
);
hints = (
{
origin = "{0, 12}";
type = Corner;
name = _corner.caps_swash_vert;
}
);
layerId = "49C16FD3-6177-408B-A733-AEB3898BB77C";
paths = (
{
closed = 1;
nodes = (
"557 -9 OFFCURVE",
"661 98 OFFCURVE",
"661 266 CURVE SMOOTH",
"661 685 LINE",
"619 685 LINE",
"619 266 LINE SMOOTH",
"619 126 OFFCURVE",
"531 31 OFFCURVE",
"409 31 CURVE SMOOTH",
"289 31 OFFCURVE",
"198 124 OFFCURVE",
"198 266 CURVE SMOOTH",
"198 570 LINE",
"156 570 LINE",
"156 266 LINE SMOOTH",
"156 107 OFFCURVE",
"252 -9 OFFCURVE",
"407 -9 CURVE SMOOTH"
);
}
);
width = 751;
}
);
leftKerningGroup = Swash;
rightKerningGroup = U;
userData = {
position = 564;
width = 61;
};
},
{
glyphname = V;
lastChange = "2019-10-25 06:09:14 +0000";
layers = (
{
anchors = (
{
name = bottom;
position = "{367, 0}";
},
{
name = top;
position = "{367, 684}";
}
);
background = {
paths = (
{
closed = 1;
nodes = (
"396 0 LINE",
"622 685 LINE",
"562 685 LINE",
"376 123 LINE",
"367 84 LINE",
"358 122 LINE",
"182 638 LINE SMOOTH",
"172 668 OFFCURVE",
"142 690 OFFCURVE",
"104 690 CURVE SMOOTH",
"72 690 OFFCURVE",
"43 675 OFFCURVE",
"25 649 CURVE",
"74 616 LINE",
"81 626 OFFCURVE",
"92 632 OFFCURVE",
"102 632 CURVE SMOOTH",
"115 632 OFFCURVE",
"127 623 OFFCURVE",
"132 610 CURVE SMOOTH",
"338 0 LINE"
);
}
);
};
hints = (
{
origin = "{0, 6}";
type = Corner;
name = _corner.caps_diag;
}
);
layerId = "873CAA12-270D-4223-A88E-AE8E101FDBE8";
paths = (
{
closed = 1;
nodes = (
"396 0 LINE",
"633 685 LINE",
"573 685 LINE",
"376 123 LINE",
"367 84 LINE",
"358 122 LINE",
"176 630 LINE",
"121 610 LINE",
"338 0 LINE"
);
}
);
width = 669;
},
{
anchors = (
{
name = bottom;
position = "{359, 0}";
},
{
name = top;
position = "{361, 684}";
}
);
background = {
paths = (
{
closed = 1;
nodes = (
"398 -1 LINE",
"626 687 LINE",
"544 687 LINE",
"371 163 LINE",
"361 123 LINE",
"351 161 LINE",
"193 636 LINE SMOOTH",
"183 667 OFFCURVE",
"147 692 OFFCURVE",
"106 692 CURVE SMOOTH",
"64 692 OFFCURVE",
"31 671 OFFCURVE",
"13 634 CURVE",
"76 592 LINE",
"81 606 OFFCURVE",
"93 611 OFFCURVE",
"101 611 CURVE SMOOTH",
"113 611 OFFCURVE",
"119 607 OFFCURVE",
"122 599 CURVE SMOOTH",
"324 -1 LINE"
);
}
);
};
hints = (
{
origin = "{0, 6}";
type = Corner;
name = _corner.caps_diag;
}
);
layerId = "0CAF3BED-C4AC-4024-B3E1-4C69D1EF7EC0";
paths = (
{
closed = 1;
nodes = (
"398 -1 LINE",
"636 687 LINE",
"554 687 LINE",
"371 163 LINE",
"361 123 LINE",
"351 161 LINE",
"184 628 LINE",
"109 597 LINE",
"324 -1 LINE"
);
}
);
width = 670;
},
{
anchors = (
{
name = bottom;
position = "{352, 0}";
},
{
name = top;
position = "{351, 684}";
}
);
background = {
paths = (
{
closed = 1;
nodes = (
"373 1 LINE",
"598 686 LINE",
"551 686 LINE",
"362 98 LINE",
"351 53 LINE",
"340 97 LINE",
"161 630 LINE SMOOTH",
"145 677 OFFCURVE",
"118 691 OFFCURVE",
"82 691 CURVE SMOOTH",
"55 691 OFFCURVE",
"31 680 OFFCURVE",
"14 660 CURVE",
"52 635 LINE",
"60 643 OFFCURVE",
"71 648 OFFCURVE",
"80 648 CURVE SMOOTH",
"95 648 OFFCURVE",
"111 638 OFFCURVE",
"117 619 CURVE SMOOTH",
"326 1 LINE"
);
}
);
};
hints = (
{
origin = "{0, 6}";
type = Corner;
name = _corner.caps_diag;
options = 1;
}
);
layerId = "49C16FD3-6177-408B-A733-AEB3898BB77C";
paths = (
{
closed = 1;
nodes = (
"373 1 LINE",
"614 686 LINE",
"567 686 LINE",
"362 98 LINE",
"351 53 LINE",
"340 97 LINE",
"145 632 LINE",
"105 619 LINE",
"326 1 LINE"
);
}
);
width = 655;
}
);
leftKerningGroup = V;
rightKerningGroup = V;
unicode = 0056;
userData = {
position = 631;
width = 59;
};
},
{
glyphname = V.ss01;
lastChange = "2019-10-24 18:16:34 +0000";
layers = (
{
anchors = (
{
name = bottom;
position = "{313, 0}";
},
{
name = top;
position = "{315, 679}";
}
);
layerId = "873CAA12-270D-4223-A88E-AE8E101FDBE8";
paths = (
{
closed = 1;
nodes = (
"343 0 LINE",
"581 685 LINE",
"520 685 LINE",
"313 86 LINE",
"123 625 LINE SMOOTH",
"114 652 OFFCURVE",
"86 690 OFFCURVE",
"35 690 CURVE",
"35 631 LINE",
"50 629 OFFCURVE",
"63 625 OFFCURVE",
"68 610 CURVE SMOOTH",
"284 0 LINE"
);
}
);
width = 612;
},
{
anchors = (
{
name = bottom;
position = "{321, 0}";
},
{
name = top;
position = "{321, 684}";
}
);
layerId = "0CAF3BED-C4AC-4024-B3E1-4C69D1EF7EC0";
paths = (
{
closed = 1;
nodes = (
"358 -1 LINE",
"597 687 LINE",
"514 687 LINE",
"321 132 LINE",
"143 621 LINE SMOOTH",
"124 673 OFFCURVE",
"86 691 OFFCURVE",
"35 691 CURVE",
"35 613 LINE",
"55 610 OFFCURVE",
"63 610 OFFCURVE",
"67 599 CURVE SMOOTH",
"285 -1 LINE"
);
}
);
width = 631;
},
{
anchors = (
{
name = bottom;
position = "{321, 3}";
},
{
name = top;
position = "{321, 684}";
}
);
layerId = "49C16FD3-6177-408B-A733-AEB3898BB77C";
paths = (
{
closed = 1;
nodes = (
"345 1 LINE",
"578 686 LINE",
"532 686 LINE",
"321 59 LINE",
"116 629 LINE SMOOTH",
"107 654 OFFCURVE",
"84 687 OFFCURVE",
"40 690 CURVE",
"40 644 LINE",
"54 641 OFFCURVE",
"67 635 OFFCURVE",
"73 618 CURVE SMOOTH",
"296 1 LINE"
);
}
);
width = 620;
}
);
leftKerningGroup = V;
rightKerningGroup = V;
userData = {
position = 631;
width = 59;
};
},
{
glyphname = V.swsh;
lastChange = "2019-10-25 06:10:12 +0000";
layers = (
{
anchors = (
{
name = bottom;
position = "{379, 0}";
},
{
name = top;
position = "{379, 684}";
}
);
hints = (
{
origin = "{0, 6}";
type = Corner;
name = _corner.caps_swash_diag;
options = 1;
}
);
layerId = "873CAA12-270D-4223-A88E-AE8E101FDBE8";
paths = (
{
closed = 1;
nodes = (
"408 0 LINE",
"644 685 LINE",
"584 685 LINE",
"388 123 LINE",
"379 84 LINE",
"370 122 LINE",
"205 596 LINE",
"147 579 LINE",
"350 0 LINE"
);
}
);
width = 680;
},
{
anchors = (
{
name = bottom;
position = "{382, 0}";
},
{
name = top;
position = "{384, 684}";
}
);
hints = (
{
origin = "{0, 6}";
type = Corner;
name = _corner.caps_swash_diag;
options = 1;
}
);
layerId = "0CAF3BED-C4AC-4024-B3E1-4C69D1EF7EC0";
paths = (
{
closed = 1;
nodes = (
"421 -1 LINE",
"659 687 LINE",
"577 687 LINE",
"394 163 LINE",
"384 123 LINE",
"374 161 LINE",
"222 594 LINE",
"144 568 LINE",
"347 -1 LINE"
);
}
);
width = 693;
},
{
anchors = (
{
name = bottom;
position = "{363, 0}";
},
{
name = top;
position = "{362, 684}";
}
);
hints = (
{
origin = "{0, 6}";
type = Corner;
name = _corner.caps_swash_diag;
options = 1;
}
);
layerId = "49C16FD3-6177-408B-A733-AEB3898BB77C";
paths = (
{
closed = 1;
nodes = (
"383 1 LINE",
"619 686 LINE",
"572 686 LINE",
"373 98 LINE",
"362 53 LINE",
"351 97 LINE",
"172 595 LINE",
"131 584 LINE",
"341 1 LINE"
);
}
);
width = 660;
}
);
leftKerningGroup = V;
rightKerningGroup = V;
userData = {
position = 631;
width = 59;
};
},
{
glyphname = W;
lastChange = "2019-10-25 06:10:35 +0000";
layers = (
{
anchors = (
{
name = bottom;
position = "{543, 0}";
},
{
name = top;
position = "{583, 684}";
}
);
hints = (
{
origin = "{0, 16}";
type = Corner;
name = _corner.caps_diag;
options = 1;
}
);
layerId = "873CAA12-270D-4223-A88E-AE8E101FDBE8";
paths = (
{
closed = 1;
nodes = (
"129 613 LINE",
"331 0 LINE",
"390 0 LINE",
"582 591 LINE",
"775 0 LINE",
"834 0 LINE",
"1057 685 LINE",
"997 685 LINE",
"809 100 LINE",
"806 72 LINE",
"800 100 LINE",
"612 685 LINE",
"553 685 LINE",
"365 100 LINE",
"360 79 LINE",
"356 100 LINE",
"185 631 LINE"
);
}
);
width = 1094;
},
{
anchors = (
{
name = bottom;
position = "{533, 0}";
},
{
name = top;
position = "{571, 675}";
}
);
background = {
paths = (
{
closed = 1;
nodes = (
"79 604 LINE",
"84 615 OFFCURVE",
"92 619 OFFCURVE",
"101 619 CURVE SMOOTH",
"110 619 OFFCURVE",
"117 613 OFFCURVE",
"121 602 CURVE SMOOTH",
"319 -1 LINE",
"393 -1 LINE",
"570 547 LINE",
"749 -1 LINE",
"823 -1 LINE",
"1047 687 LINE",
"965 687 LINE",
"791 126 LINE",
"786 84 LINE",
"779 126 LINE",
"608 687 LINE",
"534 687 LINE",
"360 126 LINE",
"355 87 LINE",
"351 126 LINE",
"196 627 LINE SMOOTH",
"182 672 OFFCURVE",
"145 696 OFFCURVE",
"102 696 CURVE SMOOTH",
"70 696 OFFCURVE",
"34 678 OFFCURVE",
"15 646 CURVE"
);
}
);
};
hints = (
{
origin = "{0, 16}";
type = Corner;
name = _corner.caps_diag;
}
);
layerId = "0CAF3BED-C4AC-4024-B3E1-4C69D1EF7EC0";
paths = (
{
closed = 1;
nodes = (
"120 596 LINE",
"319 -1 LINE",
"393 -1 LINE",
"570 547 LINE",
"749 -1 LINE",
"823 -1 LINE",
"1047 687 LINE",
"965 687 LINE",
"791 126 LINE",
"786 84 LINE",
"779 126 LINE",
"608 687 LINE",
"534 687 LINE",
"360 126 LINE",
"355 87 LINE",
"351 126 LINE",
"197 621 LINE"
);
}
);
width = 1082;
},
{
anchors = (
{
name = bottom;
position = "{541, 0}";
},
{
name = top;
position = "{582, 692}";
}
);
background = {
paths = (
{
closed = 1;
nodes = (
"55 635 LINE",
"63 646 OFFCURVE",
"75 653 OFFCURVE",
"87 653 CURVE SMOOTH",
"102 653 OFFCURVE",
"118 645 OFFCURVE",
"126 622 CURVE SMOOTH",
"330 1 LINE",
"380 1 LINE",
"581 620 LINE",
"783 1 LINE",
"833 1 LINE",
"1055 686 LINE",
"1009 686 LINE",
"819 94 LINE",
"808 38 LINE",
"796 94 LINE",
"606 686 LINE",
"556 686 LINE",
"366 94 LINE",
"354 41 LINE",
"343 94 LINE",
"169 635 LINE SMOOTH",
"158 671 OFFCURVE",
"126 695 OFFCURVE",
"88 695 CURVE SMOOTH",
"61 695 OFFCURVE",
"35 683 OFFCURVE",
"18 660 CURVE"
);
}
);
};
hints = (
{
origin = "{0, 16}";
type = Corner;
name = _corner.caps_diag;
options = 1;
}
);
layerId = "49C16FD3-6177-408B-A733-AEB3898BB77C";
paths = (
{
closed = 1;
nodes = (
"128 624 LINE",
"330 1 LINE",
"380 1 LINE",
"581 620 LINE",
"783 1 LINE",
"833 1 LINE",
"1055 686 LINE",
"1009 686 LINE",
"819 94 LINE",
"808 38 LINE",
"796 94 LINE",
"606 686 LINE",
"556 686 LINE",
"366 94 LINE",
"354 41 LINE",
"343 94 LINE",
"168 637 LINE"
);
}
);
width = 1097;
}
);
leftKerningGroup = V;
rightKerningGroup = V;
unicode = 0057;
userData = {
position = 665;
width = 20;
};
},
{
glyphname = W.ss01;
lastChange = "2019-10-24 18:16:34 +0000";
layers = (
{
anchors = (
{
name = bottom;
position = "{516, 0}";
},
{
name = top;
position = "{521, 684}";
}
);
layerId = "873CAA12-270D-4223-A88E-AE8E101FDBE8";
paths = (
{
closed = 1;
nodes = (
"328 0 LINE",
"520 591 LINE",
"713 0 LINE",
"772 0 LINE",
"995 685 LINE",
"935 685 LINE",
"750 100 LINE",
"744 72 LINE",
"738 100 LINE",
"550 685 LINE",
"491 685 LINE",
"303 100 LINE",
"298 79 LINE",
"294 100 LINE",
"123 631 LINE SMOOTH",
"117 650 OFFCURVE",
"106 666 OFFCURVE",
"90 677 CURVE SMOOTH",
"77 686 OFFCURVE",
"57 694 OFFCURVE",
"36 694 CURVE",
"36 637 LINE",
"53 636 OFFCURVE",
"63 628 OFFCURVE",
"68 613 CURVE SMOOTH",
"269 0 LINE"
);
}
);
width = 1032;
},
{
anchors = (
{
name = bottom;
position = "{514, 0}";
},
{
name = top;
position = "{518, 675}";
}
);
layerId = "0CAF3BED-C4AC-4024-B3E1-4C69D1EF7EC0";
paths = (
{
closed = 1;
nodes = (
"339 -1 LINE",
"517 547 LINE",
"695 -1 LINE",
"769 -1 LINE",
"993 687 LINE",
"911 687 LINE",
"739 144 LINE",
"733 100 LINE",
"726 144 LINE",
"554 687 LINE",
"480 687 LINE",
"309 144 LINE",
"302 100 LINE",
"296 144 LINE",
"143 627 LINE SMOOTH",
"137 647 OFFCURVE",
"123 666 OFFCURVE",
"106 677 CURVE SMOOTH",
"90 687 OFFCURVE",
"57 696 OFFCURVE",
"35 692 CURVE",
"35 616 LINE",
"52 616 OFFCURVE",
"62 615 OFFCURVE",
"69 594 CURVE SMOOTH",
"265 -1 LINE"
);
}
);
width = 1027;
},
{
anchors = (
{
name = bottom;
position = "{522, 0}";
},
{
name = top;
position = "{527, 692}";
}
);
layerId = "49C16FD3-6177-408B-A733-AEB3898BB77C";
paths = (
{
closed = 1;
nodes = (
"325 1 LINE",
"526 620 LINE",
"728 1 LINE",
"778 1 LINE",
"1001 686 LINE",
"955 686 LINE",
"765 94 LINE",
"753 41 LINE",
"742 94 LINE",
"552 686 LINE",
"502 686 LINE",
"312 94 LINE",
"300 41 LINE",
"289 95 LINE",
"115 635 LINE SMOOTH",
"109 654 OFFCURVE",
"99 668 OFFCURVE",
"84 679 CURVE SMOOTH",
"73 686 OFFCURVE",
"57 693 OFFCURVE",
"40 694 CURVE",
"40 649 LINE",
"56 647 OFFCURVE",
"67 637 OFFCURVE",
"72 621 CURVE SMOOTH",
"275 1 LINE"
);
}
);
width = 1043;
}
);
leftKerningGroup = V;
rightKerningGroup = V;
userData = {
position = 665;
width = 20;
};
},
{
glyphname = W.swsh;
lastChange = "2019-10-25 06:11:27 +0000";
layers = (
{
anchors = (
{
name = bottom;
position = "{550, 0}";
},
{
name = top;
position = "{590, 684}";
}
);
hints = (
{
origin = "{0, 14}";
type = Corner;
name = _corner.caps_swash_diag;
options = 1;
}
);
layerId = "873CAA12-270D-4223-A88E-AE8E101FDBE8";
paths = (
{
closed = 1;
nodes = (
"397 0 LINE",
"589 591 LINE",
"782 0 LINE",
"841 0 LINE",
"1064 685 LINE",
"1004 685 LINE",
"816 100 LINE",
"813 72 LINE",
"807 100 LINE",
"619 685 LINE",
"560 685 LINE",
"372 100 LINE",
"367 79 LINE",
"363 100 LINE",
"205 589 LINE",
"148 570 LINE",
"338 0 LINE"
);
}
);
width = 1101;
},
{
anchors = (
{
name = bottom;
position = "{543, 0}";
},
{
name = top;
position = "{581, 675}";
}
);
hints = (
{
origin = "{0, 14}";
type = Corner;
name = _corner.caps_swash_diag;
}
);
layerId = "0CAF3BED-C4AC-4024-B3E1-4C69D1EF7EC0";
paths = (
{
closed = 1;
nodes = (
"403 -1 LINE",
"580 547 LINE",
"759 -1 LINE",
"833 -1 LINE",
"1057 687 LINE",
"975 687 LINE",
"801 126 LINE",
"796 84 LINE",
"789 126 LINE",
"618 687 LINE",
"544 687 LINE",
"370 126 LINE",
"365 87 LINE",
"361 126 LINE",
"221 587 LINE",
"143 563 LINE",
"329 -1 LINE"
);
}
);
width = 1092;
},
{
anchors = (
{
name = bottom;
position = "{555, 0}";
},
{
name = top;
position = "{596, 692}";
}
);
hints = (
{
origin = "{0, 14}";
type = Corner;
name = _corner.caps_swash_diag;
options = 1;
}
);
layerId = "49C16FD3-6177-408B-A733-AEB3898BB77C";
paths = (
{
closed = 1;
nodes = (
"394 1 LINE",
"595 620 LINE",
"797 1 LINE",
"847 1 LINE",
"1069 686 LINE",
"1023 686 LINE",
"833 94 LINE",
"822 38 LINE",
"810 94 LINE",
"620 686 LINE",
"570 686 LINE",
"380 94 LINE",
"368 41 LINE",
"357 94 LINE",
"196 593 LINE",
"157 578 LINE",
"344 1 LINE"
);
}
);
width = 1111;
}
);
leftKerningGroup = V;
rightKerningGroup = V;
userData = {
position = 665;
width = 20;
};
},
{
glyphname = X;
lastChange = "2019-10-24 18:14:08 +0000";
layers = (
{
anchors = (
{
name = bottom;
position = "{293, 0}";
},
{
name = top;
position = "{293, 684}";
}
);
layerId = "873CAA12-270D-4223-A88E-AE8E101FDBE8";
paths = (
{
closed = 1;
nodes = (
"252 363 LINE",
"41 0 LINE",
"112 0 LINE",
"288 309 LINE",
"423 65 LINE SMOOTH",
"448 20 OFFCURVE",
"470 -7 OFFCURVE",
"514 -7 CURVE SMOOTH",
"544 -7 OFFCURVE",
"573 5 OFFCURVE",
"591 28 CURVE",
"542 62 LINE",
"536 55 OFFCURVE",
"528 51 OFFCURVE",
"518 51 CURVE SMOOTH",
"506 51 OFFCURVE",
"497 57 OFFCURVE",
"492 65 CURVE SMOOTH",
"324 352 LINE",
"542 684 LINE",
"471 684 LINE",
"290 405 LINE",
"108 684 LINE",
"39 684 LINE"
);
}
);
width = 621;
},
{
anchors = (
{
name = bottom;
position = "{304, 0}";
},
{
name = top;
position = "{304, 684}";
}
);
layerId = "0CAF3BED-C4AC-4024-B3E1-4C69D1EF7EC0";
paths = (
{
closed = 1;
nodes = (
"249 361 LINE",
"39 -1 LINE",
"135 -1 LINE",
"298 285 LINE",
"420 68 LINE SMOOTH",
"445 23 OFFCURVE",
"475 -7 OFFCURVE",
"523 -7 CURVE SMOOTH",
"562 -7 OFFCURVE",
"591 8 OFFCURVE",
"612 36 CURVE",
"546 82 LINE",
"542 76 OFFCURVE",
"536 72 OFFCURVE",
"530 72 CURVE SMOOTH",
"519 72 OFFCURVE",
"510 75 OFFCURVE",
"499 93 CURVE SMOOTH",
"350 351 LINE",
"567 686 LINE",
"470 686 LINE",
"301 426 LINE",
"131 686 LINE",
"37 686 LINE"
);
}
);
width = 641;
},
{
anchors = (
{
name = bottom;
position = "{290, 0}";
},
{
name = top;
position = "{290, 684}";
}
);
layerId = "49C16FD3-6177-408B-A733-AEB3898BB77C";
paths = (
{
closed = 1;
nodes = (
"257 362 LINE",
"48 1 LINE",
"101 1 LINE",
"284 321 LINE",
"429 64 LINE SMOOTH",
"455 18 OFFCURVE",
"474 -7 OFFCURVE",
"516 -7 CURVE SMOOTH",
"541 -7 OFFCURVE",
"564 2 OFFCURVE",
"581 18 CURVE",
"542 46 LINE",
"536 42 OFFCURVE",
"528 38 OFFCURVE",
"520 38 CURVE SMOOTH",
"505 38 OFFCURVE",
"492 47 OFFCURVE",
"487 56 CURVE SMOOTH",
"312 353 LINE",
"528 685 LINE",
"475 685 LINE",
"287 393 LINE",
"97 685 LINE",
"44 685 LINE"
);
}
);
width = 615;
},
{
anchors = (
{
name = bottom;
position = "{284, 0}";
},
{
name = top;
position = "{284, 684}";
}
);
associatedMasterId = "49C16FD3-6177-408B-A733-AEB3898BB77C";
layerId = "C396F3EE-AB0F-4C10-A1DC-81F9C8939901";
name = "Oct 11 19, 11:02";
paths = (
{
closed = 1;
nodes = (
"554 -6 OFFCURVE",
"594 20 OFFCURVE",
"600 69 CURVE",
"554 71 LINE",
"549 54 OFFCURVE",
"534 39 OFFCURVE",
"514 39 CURVE SMOOTH",
"499 39 OFFCURVE",
"486 47 OFFCURVE",
"481 56 CURVE SMOOTH",
"306 353 LINE",
"522 685 LINE",
"469 685 LINE",
"281 393 LINE",
"91 685 LINE",
"38 685 LINE",
"251 362 LINE",
"42 1 LINE",
"95 1 LINE",
"278 321 LINE",
"423 64 LINE SMOOTH",
"449 18 OFFCURVE",
"468 -6 OFFCURVE",
"510 -6 CURVE SMOOTH"
);
}
);
width = 630;
}
);
leftKerningGroup = X;
rightKerningGroup = K;
unicode = 0058;
userData = {
position = 566;
width = 58;
};
},
{
glyphname = X.ss01;
lastChange = "2019-10-24 18:16:34 +0000";
layers = (
{
anchors = (
{
name = bottom;
position = "{295, 0}";
},
{
name = top;
position = "{295, 684}";
}
);
layerId = "873CAA12-270D-4223-A88E-AE8E101FDBE8";
paths = (
{
closed = 1;
nodes = (
"553 -6 OFFCURVE",
"569 4 OFFCURVE",
"576 7 CURVE",
"554 57 LINE",
"548 54 OFFCURVE",
"542 51 OFFCURVE",
"532 51 CURVE SMOOTH",
"523 51 OFFCURVE",
"516 59 OFFCURVE",
"512 65 CURVE SMOOTH",
"328 353 LINE",
"542 684 LINE",
"471 684 LINE",
"290 405 LINE",
"108 684 LINE",
"39 684 LINE",
"250 361 LINE",
"41 0 LINE",
"112 0 LINE",
"289 308 LINE",
"443 65 LINE SMOOTH",
"470 22 OFFCURVE",
"487 -6 OFFCURVE",
"530 -6 CURVE SMOOTH"
);
}
);
width = 610;
},
{
anchors = (
{
name = bottom;
position = "{297, 0}";
},
{
name = top;
position = "{302, 684}";
}
);
layerId = "0CAF3BED-C4AC-4024-B3E1-4C69D1EF7EC0";
paths = (
{
closed = 1;
nodes = (
"560 -4 OFFCURVE",
"585 2 OFFCURVE",
"599 11 CURVE",
"574 75 LINE",
"567 71 OFFCURVE",
"557 69 OFFCURVE",
"548 69 CURVE SMOOTH",
"540 69 OFFCURVE",
"527 74 OFFCURVE",
"517 90 CURVE SMOOTH",
"351 352 LINE",
"566 686 LINE",
"469 686 LINE",
"300 426 LINE",
"130 686 LINE",
"36 686 LINE",
"248 361 LINE",
"38 -1 LINE",
"134 -1 LINE",
"299 286 LINE",
"439 68 LINE SMOOTH",
"473 15 OFFCURVE",
"500 -4 OFFCURVE",
"546 -4 CURVE SMOOTH"
);
}
);
width = 631;
},
{
anchors = (
{
name = bottom;
position = "{287, -2}";
},
{
name = top;
position = "{286, 684}";
}
);
layerId = "49C16FD3-6177-408B-A733-AEB3898BB77C";
paths = (
{
closed = 1;
nodes = (
"547 -6 OFFCURVE",
"558 -5 OFFCURVE",
"567 -1 CURVE",
"553 38 LINE",
"547 37 OFFCURVE",
"542 36 OFFCURVE",
"536 36 CURVE SMOOTH",
"523 36 OFFCURVE",
"513 46 OFFCURVE",
"506 56 CURVE",
"314 357 LINE",
"527 685 LINE",
"474 685 LINE",
"286 393 LINE",
"96 685 LINE",
"43 685 LINE",
"256 362 LINE",
"47 1 LINE",
"100 1 LINE",
"286 325 LINE",
"448 64 LINE SMOOTH",
"477 17 OFFCURVE",
"494 -6 OFFCURVE",
"536 -6 CURVE SMOOTH"
);
}
);
width = 604;
}
);
leftKerningGroup = X;
rightKerningGroup = K;
userData = {
position = 566;
width = 58;
};
},
{
glyphname = X.swsh;
lastChange = "2019-10-25 06:11:51 +0000";
layers = (
{
anchors = (
{
name = bottom;
position = "{330, 0}";
},
{
name = top;
position = "{327, 684}";
}
);
background = {
paths = (
{
closed = 1;
nodes = (
"149 0 LINE",
"323 304 LINE",
"450 65 LINE SMOOTH",
"474 19 OFFCURVE",
"497 -7 OFFCURVE",
"541 -7 CURVE SMOOTH",
"589 -7 OFFCURVE",
"634 24 OFFCURVE",
"637 80 CURVE",
"579 83 LINE",
"576 65 OFFCURVE",
"564 51 OFFCURVE",
"545 51 CURVE SMOOTH",
"533 51 OFFCURVE",
"523 57 OFFCURVE",
"519 65 CURVE SMOOTH",
"362 349 LINE",
"579 684 LINE",
"508 684 LINE",
"327 405 LINE",
"188 648 LINE SMOOTH",
"168 683 OFFCURVE",
"137 694 OFFCURVE",
"110 694 CURVE SMOOTH",
"67 694 OFFCURVE",
"21 665 OFFCURVE",
"16 611 CURVE",
"75 605 LINE",
"76 624 OFFCURVE",
"91 635 OFFCURVE",
"107 635 CURVE SMOOTH",
"117 635 OFFCURVE",
"127 631 OFFCURVE",
"135 621 CURVE",
"287 361 LINE",
"78 0 LINE"
);
}
);
};
hints = (
{
origin = "{0, 20}";
type = Corner;
name = _corner.caps_diag;
}
);
layerId = "873CAA12-270D-4223-A88E-AE8E101FDBE8";
paths = (
{
closed = 1;
nodes = (
"149 0 LINE",
"323 304 LINE",
"450 65 LINE SMOOTH",
"474 19 OFFCURVE",
"497 -7 OFFCURVE",
"541 -7 CURVE SMOOTH",
"589 -7 OFFCURVE",
"634 24 OFFCURVE",
"637 80 CURVE",
"579 83 LINE",
"576 65 OFFCURVE",
"564 51 OFFCURVE",
"545 51 CURVE SMOOTH",
"533 51 OFFCURVE",
"523 57 OFFCURVE",
"519 65 CURVE SMOOTH",
"362 349 LINE",
"579 684 LINE",
"508 684 LINE",
"327 405 LINE",
"191 643 LINE",
"139 616 LINE",
"287 361 LINE",
"78 0 LINE"
);
}
);
width = 670;
},
{
anchors = (
{
name = bottom;
position = "{327, 0}";
},
{
name = top;
position = "{325, 687}";
}
);
background = {
paths = (
{
closed = 1;
nodes = (
"160 -1 LINE",
"322 286 LINE",
"435 68 LINE SMOOTH",
"458 23 OFFCURVE",
"485 -7 OFFCURVE",
"533 -7 CURVE SMOOTH",
"587 -7 OFFCURVE",
"641 33 OFFCURVE",
"638 100 CURVE",
"559 104 LINE",
"561 87 OFFCURVE",
"551 72 OFFCURVE",
"537 72 CURVE SMOOTH",
"529 72 OFFCURVE",
"525 75 OFFCURVE",
"522 80 CURVE SMOOTH",
"371 352 LINE",
"592 686 LINE",
"495 686 LINE",
"326 426 LINE",
"204 643 LINE SMOOTH",
"181 681 OFFCURVE",
"146 696 OFFCURVE",
"117 696 CURVE SMOOTH",
"69 696 OFFCURVE",
"13 659 OFFCURVE",
"14 593 CURVE",
"88 585 LINE",
"88 604 OFFCURVE",
"98 615 OFFCURVE",
"114 615 CURVE SMOOTH",
"130 615 OFFCURVE",
"135 600 OFFCURVE",
"141 590 CURVE",
"277 361 LINE",
"64 -1 LINE"
);
}
);
};
hints = (
{
origin = "{0, 20}";
type = Corner;
name = _corner.caps_diag;
}
);
layerId = "0CAF3BED-C4AC-4024-B3E1-4C69D1EF7EC0";
paths = (
{
closed = 1;
nodes = (
"160 -1 LINE",
"322 286 LINE",
"435 68 LINE SMOOTH",
"458 23 OFFCURVE",
"485 -7 OFFCURVE",
"533 -7 CURVE SMOOTH",
"587 -7 OFFCURVE",
"641 33 OFFCURVE",
"638 100 CURVE",
"559 104 LINE",
"561 87 OFFCURVE",
"551 72 OFFCURVE",
"537 72 CURVE SMOOTH",
"529 72 OFFCURVE",
"525 75 OFFCURVE",
"522 80 CURVE SMOOTH",
"371 352 LINE",
"592 686 LINE",
"495 686 LINE",
"326 426 LINE",
"204 643 LINE",
"135 601 LINE",
"277 361 LINE",
"64 -1 LINE"
);
}
);
width = 670;
},
{
anchors = (
{
name = bottom;
position = "{313, 8}";
},
{
name = top;
position = "{313, 684}";
}
);
background = {
paths = (
{
closed = 1;
nodes = (
"124 1 LINE",
"308 318 LINE",
"442 64 LINE SMOOTH",
"467 17 OFFCURVE",
"487 -6 OFFCURVE",
"529 -6 CURVE SMOOTH",
"568 -6 OFFCURVE",
"608 20 OFFCURVE",
"614 69 CURVE",
"568 71 LINE",
"563 54 OFFCURVE",
"553 39 OFFCURVE",
"533 39 CURVE SMOOTH",
"508 39 OFFCURVE",
"501 48 OFFCURVE",
"481 87 CURVE",
"336 353 LINE",
"551 685 LINE",
"496 685 LINE",
"310 395 LINE",
"191 618 LINE SMOOTH",
"166 665 OFFCURVE",
"146 689 OFFCURVE",
"104 689 CURVE SMOOTH",
"60 689 OFFCURVE",
"20 663 OFFCURVE",
"14 614 CURVE",
"60 612 LINE",
"62 631 OFFCURVE",
"80 644 OFFCURVE",
"100 644 CURVE SMOOTH",
"120 644 OFFCURVE",
"128 635 OFFCURVE",
"143 612 CURVE",
"280 362 LINE",
"71 1 LINE"
);
}
);
};
hints = (
{
origin = "{0, 20}";
type = Corner;
name = _corner.caps_diag;
}
);
layerId = "49C16FD3-6177-408B-A733-AEB3898BB77C";
paths = (
{
closed = 1;
nodes = (
"124 1 LINE",
"308 318 LINE",
"442 64 LINE SMOOTH",
"467 17 OFFCURVE",
"487 -6 OFFCURVE",
"529 -6 CURVE SMOOTH",
"568 -6 OFFCURVE",
"608 20 OFFCURVE",
"614 69 CURVE",
"568 71 LINE",
"563 54 OFFCURVE",
"553 39 OFFCURVE",
"533 39 CURVE SMOOTH",
"508 39 OFFCURVE",
"501 48 OFFCURVE",
"481 87 CURVE",
"336 353 LINE",
"551 685 LINE",
"496 685 LINE",
"310 395 LINE",
"176 643 LINE",
"139 623 LINE",
"280 362 LINE",
"71 1 LINE"
);
}
);
width = 651;
}
);
leftKerningGroup = X;
rightKerningGroup = K;
userData = {
position = 566;
width = 58;
};
},
{
glyphname = Y;
lastChange = "2019-10-25 06:12:10 +0000";
layers = (
{
anchors = (
{
name = bottom;
position = "{324, 1}";
},
{
name = top;
position = "{323, 684}";
},
{
name = topleft;
position = "{-1, 684}";
}
);
background = {
paths = (
{
closed = 1;
nodes = (
"67 622 LINE",
"73 630 OFFCURVE",
"83 635 OFFCURVE",
"93 635 CURVE SMOOTH",
"104 635 OFFCURVE",
"115 630 OFFCURVE",
"123 618 CURVE",
"298 297 LINE",
"298 0 LINE",
"359 0 LINE",
"357 299 LINE",
"573 685 LINE",
"509 685 LINE",
"328 361 LINE",
"172 646 LINE SMOOTH",
"153 681 OFFCURVE",
"123 694 OFFCURVE",
"96 694 CURVE SMOOTH",
"67 694 OFFCURVE",
"36 681 OFFCURVE",
"18 655 CURVE"
);
}
);
};
hints = (
{
origin = "{0, 8}";
type = Corner;
name = _corner.caps_diag;
options = 1;
}
);
layerId = "873CAA12-270D-4223-A88E-AE8E101FDBE8";
paths = (
{
closed = 1;
nodes = (
"123 615 LINE",
"298 297 LINE",
"298 0 LINE",
"359 0 LINE",
"357 299 LINE",
"573 685 LINE",
"509 685 LINE",
"328 361 LINE",
"174 644 LINE"
);
}
);
width = 601;
},
{
anchors = (
{
name = bottom;
position = "{329, 12}";
},
{
name = top;
position = "{328, 675}";
},
{
name = topleft;
position = "{139, 684}";
}
);
background = {
paths = (
{
closed = 1;
nodes = (
"75 597 LINE",
"80 610 OFFCURVE",
"91 615 OFFCURVE",
"100 615 CURVE SMOOTH",
"111 615 OFFCURVE",
"117 613 OFFCURVE",
"124 601 CURVE SMOOTH",
"291 296 LINE",
"294 -1 LINE",
"375 -1 LINE",
"374 298 LINE",
"591 687 LINE",
"497 687 LINE",
"332 385 LINE",
"193 643 LINE",
"170 681 OFFCURVE",
"135 696 OFFCURVE",
"106 696 CURVE SMOOTH",
"71 696 OFFCURVE",
"31 676 OFFCURVE",
"13 640 CURVE"
);
}
);
};
hints = (
{
origin = "{0, 8}";
type = Corner;
name = _corner.caps_diag;
}
);
layerId = "0CAF3BED-C4AC-4024-B3E1-4C69D1EF7EC0";
paths = (
{
closed = 1;
nodes = (
"124 601 LINE",
"291 296 LINE",
"294 -1 LINE",
"375 -1 LINE",
"374 298 LINE",
"591 687 LINE",
"497 687 LINE",
"332 385 LINE",
"193 643 LINE"
);
}
);
width = 620;
},
{
anchors = (
{
name = bottom;
position = "{337, 0}";
},
{
name = top;
position = "{336, 684}";
},
{
name = topleft;
position = "{34, 684}";
}
);
hints = (
{
origin = "{0, 8}";
type = Corner;
name = _corner.caps_diag;
options = 1;
}
);
layerId = "49C16FD3-6177-408B-A733-AEB3898BB77C";
paths = (
{
closed = 1;
nodes = (
"136 630 LINE",
"319 300 LINE",
"319 1 LINE",
"362 1 LINE",
"360 302 LINE",
"576 686 LINE",
"527 686 LINE",
"340 348 LINE",
"172 651 LINE"
);
}
);
width = 613;
}
);
leftKerningGroup = Y;
rightKerningGroup = Y;
unicode = 0059;
userData = {
position = 308;
width = 66;
};
},
{
glyphname = Y.ss01;
lastChange = "2019-10-24 18:16:34 +0000";
layers = (
{
anchors = (
{
name = bottom;
position = "{278, 0}";
},
{
name = top;
position = "{277, 684}";
},
{
name = topleft;
position = "{29, 684}";
}
);
layerId = "873CAA12-270D-4223-A88E-AE8E101FDBE8";
paths = (
{
closed = 1;
nodes = (
"305 0 LINE",
"303 299 LINE",
"520 685 LINE",
"452 685 LINE",
"273 362 LINE",
"117 646 LINE SMOOTH",
"99 679 OFFCURVE",
"73 694 OFFCURVE",
"33 694 CURVE",
"33 637 LINE",
"51 637 OFFCURVE",
"61 631 OFFCURVE",
"67 620 CURVE SMOOTH",
"244 297 LINE",
"244 0 LINE"
);
}
);
width = 551;
},
{
anchors = (
{
name = bottom;
position = "{274, 0}";
},
{
name = top;
position = "{273, 684}";
},
{
name = topleft;
position = "{27, 684}";
}
);
layerId = "0CAF3BED-C4AC-4024-B3E1-4C69D1EF7EC0";
paths = (
{
closed = 1;
nodes = (
"320 -1 LINE",
"318 298 LINE",
"536 687 LINE",
"442 687 LINE",
"277 385 LINE",
"138 643 LINE SMOOTH",
"117 681 OFFCURVE",
"80 699 OFFCURVE",
"33 695 CURVE",
"33 617 LINE",
"55 618 OFFCURVE",
"61 617 OFFCURVE",
"67 606 CURVE",
"238 296 LINE",
"238 -1 LINE"
);
}
);
width = 565;
},
{
anchors = (
{
name = bottom;
position = "{270, 0}";
},
{
name = top;
position = "{278, 684}";
},
{
name = topleft;
position = "{52, 684}";
}
);
layerId = "49C16FD3-6177-408B-A733-AEB3898BB77C";
paths = (
{
closed = 1;
nodes = (
"295 1 LINE",
"295 302 LINE",
"512 686 LINE",
"460 686 LINE",
"273 345 LINE",
"108 650 LINE SMOOTH",
"93 678 OFFCURVE",
"68 692 OFFCURVE",
"37 695 CURVE",
"37 652 LINE",
"51 651 OFFCURVE",
"62 644 OFFCURVE",
"69 631 CURVE SMOOTH",
"254 300 LINE",
"254 1 LINE"
);
}
);
width = 548;
}
);
leftKerningGroup = Y;
rightKerningGroup = Y;
userData = {
position = 308;
width = 66;
};
},
{
glyphname = Y.swsh;
lastChange = "2019-10-24 18:24:43 +0000";
layers = (
{
anchors = (
{
name = bottom;
position = "{348, 1}";
},
{
name = top;
position = "{347, 684}";
},
{
name = topleft;
position = "{23, 684}";
}
);
hints = (
{
origin = "{0, 5}";
type = Corner;
name = _corner.caps_swash_diag;
options = 1;
}
);
layerId = "873CAA12-270D-4223-A88E-AE8E101FDBE8";
paths = (
{
closed = 1;
nodes = (
"384 0 LINE",
"382 299 LINE",
"598 685 LINE",
"528 685 LINE",
"351 364 LINE",
"215 612 LINE",
"165 579 LINE",
"320 297 LINE",
"321 0 LINE"
);
}
);
width = 629;
},
{
anchors = (
{
name = bottom;
position = "{348, 12}";
},
{
name = top;
position = "{347, 675}";
},
{
name = topleft;
position = "{20, 684}";
}
);
hints = (
{
origin = "{0, 5}";
type = Corner;
name = _corner.caps_swash_diag;
options = 1;
}
);
layerId = "0CAF3BED-C4AC-4024-B3E1-4C69D1EF7EC0";
paths = (
{
closed = 1;
nodes = (
"394 -1 LINE",
"393 298 LINE",
"610 687 LINE",
"516 687 LINE",
"351 385 LINE",
"227 615 LINE",
"157 573 LINE",
"310 296 LINE",
"313 -1 LINE"
);
}
);
width = 639;
},
{
anchors = (
{
name = bottom;
position = "{345, 0}";
},
{
name = top;
position = "{344, 684}";
},
{
name = topleft;
position = "{42, 684}";
}
);
hints = (
{
origin = "{0, 5}";
type = Corner;
name = _corner.caps_swash_diag;
options = 1;
}
);
layerId = "49C16FD3-6177-408B-A733-AEB3898BB77C";
paths = (
{
closed = 1;
nodes = (
"370 1 LINE",
"368 302 LINE",
"584 686 LINE",
"535 686 LINE",
"348 348 LINE",
"203 610 LINE",
"167 588 LINE",
"327 300 LINE",
"327 1 LINE"
);
}
);
width = 621;
}
);
leftKerningGroup = Y;
rightKerningGroup = Y;
userData = {
position = 308;
width = 66;
};
},
{
glyphname = Z;
lastChange = "2019-10-24 18:14:08 +0000";
layers = (
{
anchors = (
{
name = bottom;
position = "{286, 0}";
},
{
name = center;
position = "{286, 342}";
},
{
name = top;
position = "{284, 684}";
}
);
layerId = "873CAA12-270D-4223-A88E-AE8E101FDBE8";
paths = (
{
closed = 1;
nodes = (
"123 46 LINE",
"205 28 OFFCURVE",
"288 -14 OFFCURVE",
"376 -14 CURVE SMOOTH",
"437 -14 OFFCURVE",
"494 7 OFFCURVE",
"545 56 CURVE",
"504 94 LINE",
"468 59 OFFCURVE",
"419 42 OFFCURVE",
"376 42 CURVE SMOOTH",
"318 42 OFFCURVE",
"247 73 OFFCURVE",
"183 88 CURVE SMOOTH",
"153 95 LINE",
"503 684 LINE",
"73 684 LINE",
"73 628 LINE",
"402 628 LINE",
"37 13 LINE",
"87 -16 LINE"
);
}
);
width = 578;
},
{
anchors = (
{
name = bottom;
position = "{292, 0}";
},
{
name = center;
position = "{292, 342}";
},
{
name = top;
position = "{290, 682}";
}
);
layerId = "0CAF3BED-C4AC-4024-B3E1-4C69D1EF7EC0";
paths = (
{
closed = 1;
nodes = (
"136 43 LINE",
"225 25 OFFCURVE",
"293 -14 OFFCURVE",
"379 -14 CURVE SMOOTH",
"440 -14 OFFCURVE",
"502 7 OFFCURVE",
"558 63 CURVE",
"504 116 LINE",
"470 81 OFFCURVE",
"425 61 OFFCURVE",
"379 61 CURVE SMOOTH",
"324 61 OFFCURVE",
"255 92 OFFCURVE",
"191 104 CURVE SMOOTH",
"175 107 LINE",
"519 684 LINE",
"73 684 LINE",
"73 608 LINE",
"388 608 LINE",
"35 19 LINE",
"99 -19 LINE"
);
}
);
width = 588;
},
{
anchors = (
{
name = bottom;
position = "{283, 0}";
},
{
name = center;
position = "{283, 342}";
},
{
name = top;
position = "{283, 684}";
}
);
layerId = "49C16FD3-6177-408B-A733-AEB3898BB77C";
paths = (
{
closed = 1;
nodes = (
"111 49 LINE",
"214 31 OFFCURVE",
"297 -13 OFFCURVE",
"386 -13 CURVE SMOOTH",
"441 -13 OFFCURVE",
"485 3 OFFCURVE",
"536 49 CURVE",
"508 77 LINE",
"473 46 OFFCURVE",
"434 27 OFFCURVE",
"386 27 CURVE SMOOTH",
"325 27 OFFCURVE",
"249 60 OFFCURVE",
"175 73 CURVE SMOOTH",
"130 81 LINE",
"489 684 LINE",
"75 684 LINE",
"75 644 LINE",
"419 644 LINE",
"41 9 LINE",
"75 -11 LINE"
);
}
);
width = 573;
}
);
leftKerningGroup = Z;
rightKerningGroup = Z;
unicode = 005A;
userData = {
position = 628;
width = 53;
};
},
{
glyphname = Z.ss01;
lastChange = "2019-10-24 18:16:34 +0000";
layers = (
{
anchors = (
{
name = bottom;
position = "{276, 0}";
},
{
name = center;
position = "{275, 342}";
},
{
name = top;
position = "{276, 684}";
}
);
layerId = "873CAA12-270D-4223-A88E-AE8E101FDBE8";
paths = (
{
closed = 1;
nodes = (
"511 0 LINE",
"511 56 LINE",
"132 56 LINE",
"491 671 LINE",
"491 684 LINE",
"50 684 LINE",
"50 628 LINE",
"399 628 LINE",
"40 13 LINE",
"40 0 LINE"
);
}
);
width = 551;
},
{
anchors = (
{
name = bottom;
position = "{283, 0}";
},
{
name = center;
position = "{283, 342}";
},
{
name = top;
position = "{284, 684}";
}
);
layerId = "0CAF3BED-C4AC-4024-B3E1-4C69D1EF7EC0";
paths = (
{
closed = 1;
nodes = (
"523 -1 LINE",
"523 75 LINE",
"162 75 LINE",
"503 659 LINE",
"503 684 LINE",
"52 684 LINE",
"52 608 LINE",
"384 608 LINE",
"43 27 LINE",
"43 -1 LINE"
);
}
);
width = 564;
},
{
anchors = (
{
name = bottom;
position = "{278, 0}";
},
{
name = center;
position = "{277, 342}";
},
{
name = top;
position = "{278, 684}";
}
);
layerId = "49C16FD3-6177-408B-A733-AEB3898BB77C";
paths = (
{
closed = 1;
nodes = (
"511 1 LINE",
"511 43 LINE",
"119 43 LINE",
"490 680 LINE",
"490 685 LINE",
"55 685 LINE",
"55 643 LINE",
"416 643 LINE",
"45 5 LINE",
"45 1 LINE"
);
}
);
width = 553;
}
);
leftKerningGroup = S;
rightKerningGroup = S;
userData = {
position = 627;
width = 57;
};
},
{
glyphname = a;
lastChange = "2019-11-08 13:50:20 +0000";
layers = (
{
anchors = (
{
name = bottom;
position = "{260, -8}";
},
{
name = ogonek;
position = "{556, 10}";
},
{
name = top;
position = "{290, 500}";
}
);
background = {
paths = (
{
closed = 1;
nodes = (
"324 -10 OFFCURVE",
"379 14 OFFCURVE",
"411 68 CURVE",
"417 24 OFFCURVE",
"453 -10 OFFCURVE",
"499 -10 CURVE SMOOTH",
"525 -10 OFFCURVE",
"557 1 OFFCURVE",
"575 30 CURVE",
"532 60 LINE",
"525 49 OFFCURVE",
"513 45 OFFCURVE",
"503 45 CURVE SMOOTH",
"485 45 OFFCURVE",
"470 58 OFFCURVE",
"470 80 CURVE SMOOTH",
"470 499 LINE",
"410 499 LINE",
"374 504 OFFCURVE",
"320 508 OFFCURVE",
"290 508 CURVE SMOOTH",
"137 508 OFFCURVE",
"43 400 OFFCURVE",
"43 246 CURVE SMOOTH",
"43 110 OFFCURVE",
"117 -10 OFFCURVE",
"260 -10 CURVE SMOOTH"
);
},
{
closed = 1;
nodes = (
"152 44 OFFCURVE",
"103 144 OFFCURVE",
"103 248 CURVE SMOOTH",
"103 364 OFFCURVE",
"160 454 OFFCURVE",
"286 454 CURVE SMOOTH",
"312 454 OFFCURVE",
"380 450 OFFCURVE",
"410 450 CURVE",
"410 188 LINE SMOOTH",
"410 178 OFFCURVE",
"410 153 OFFCURVE",
"396 124 CURVE SMOOTH",
"373 77 OFFCURVE",
"323 44 OFFCURVE",
"261 44 CURVE SMOOTH"
);
}
);
};
hints = (
{
origin = "{0, 3}";
type = Corner;
name = _corner.right_curved;
}
);
layerId = "873CAA12-270D-4223-A88E-AE8E101FDBE8";
paths = (
{
closed = 1;
nodes = (
"324 -10 OFFCURVE",
"379 18 OFFCURVE",
"411 72 CURVE",
"470 84 LINE",
"470 499 LINE",
"410 499 LINE",
"374 504 OFFCURVE",
"320 508 OFFCURVE",
"290 508 CURVE SMOOTH",
"137 508 OFFCURVE",
"43 400 OFFCURVE",
"43 246 CURVE SMOOTH",
"43 110 OFFCURVE",
"117 -10 OFFCURVE",
"260 -10 CURVE SMOOTH"
);
},
{
closed = 1;
nodes = (
"152 44 OFFCURVE",
"103 144 OFFCURVE",
"103 248 CURVE SMOOTH",
"103 364 OFFCURVE",
"160 454 OFFCURVE",
"286 454 CURVE SMOOTH",
"312 454 OFFCURVE",
"380 450 OFFCURVE",
"410 450 CURVE",
"410 188 LINE SMOOTH",
"410 178 OFFCURVE",
"410 153 OFFCURVE",
"396 124 CURVE SMOOTH",
"373 77 OFFCURVE",
"323 44 OFFCURVE",
"261 44 CURVE SMOOTH"
);
}
);
width = 588;
},
{
anchors = (
{
name = bottom;
position = "{258, 6}";
},
{
name = ogonek;
position = "{566, 23}";
},
{
name = top;
position = "{275, 505}";
}
);
hints = (
{
origin = "{0, 3}";
type = Corner;
name = _corner.right_curved;
}
);
layerId = "0CAF3BED-C4AC-4024-B3E1-4C69D1EF7EC0";
paths = (
{
closed = 1;
nodes = (
"316 -10 OFFCURVE",
"377 15 OFFCURVE",
"400 61 CURVE",
"473 89 LINE",
"473 508 LINE",
"406 508 LINE",
"373 513 OFFCURVE",
"320 517 OFFCURVE",
"290 517 CURVE SMOOTH",
"128 517 OFFCURVE",
"40 400 OFFCURVE",
"40 251 CURVE SMOOTH",
"40 113 OFFCURVE",
"117 -10 OFFCURVE",
"255 -10 CURVE SMOOTH"
);
},
{
closed = 1;
nodes = (
"169 64 OFFCURVE",
"122 156 OFFCURVE",
"122 252 CURVE SMOOTH",
"122 357 OFFCURVE",
"177 443 OFFCURVE",
"282 443 CURVE SMOOTH",
"307 443 OFFCURVE",
"357 438 OFFCURVE",
"391 436 CURVE",
"391 194 LINE SMOOTH",
"391 186 OFFCURVE",
"393 165 OFFCURVE",
"379 138 CURVE SMOOTH",
"359 98 OFFCURVE",
"317 64 OFFCURVE",
"261 64 CURVE SMOOTH"
);
}
);
width = 593;
},
{
anchors = (
{
name = bottom;
position = "{259, 0}";
},
{
name = ogonek;
position = "{556, 19}";
},
{
name = top;
position = "{278, 500}";
}
);
hints = (
{
origin = "{0, 3}";
type = Corner;
name = _corner.right_curved;
options = 1;
}
);
layerId = "49C16FD3-6177-408B-A733-AEB3898BB77C";
paths = (
{
closed = 1;
nodes = (
"333 -9 OFFCURVE",
"393 25 OFFCURVE",
"421 76 CURVE",
"461 76 LINE",
"461 496 LINE",
"411 496 LINE",
"375 501 OFFCURVE",
"320 505 OFFCURVE",
"290 505 CURVE SMOOTH",
"137 505 OFFCURVE",
"48 400 OFFCURVE",
"48 245 CURVE SMOOTH",
"48 109 OFFCURVE",
"116 -9 OFFCURVE",
"259 -9 CURVE SMOOTH"
);
},
{
closed = 1;
nodes = (
"146 31 OFFCURVE",
"90 139 OFFCURVE",
"90 247 CURVE SMOOTH",
"90 366 OFFCURVE",
"154 465 OFFCURVE",
"286 465 CURVE SMOOTH",
"318 465 OFFCURVE",
"391 459 OFFCURVE",
"419 460 CURVE",
"419 186 LINE SMOOTH",
"419 173 OFFCURVE",
"419 147 OFFCURVE",
"404 117 CURVE SMOOTH",
"380 68 OFFCURVE",
"327 31 OFFCURVE",
"260 31 CURVE SMOOTH"
);
}
);
width = 581;
}
);
leftKerningGroup = o;
rightKerningGroup = m;
unicode = 0061;
userData = {
position = 407;
width = 55;
};
},
